<svg width="69" height="60" viewBox="0 0 69 60" fill="none" xmlns="http://www.w3.org/2000/svg">
<circle cx="33.6841" cy="30.5264" r="29.4737" fill="url(#paint0_linear_1_5112)"/>
<path d="M42.7698 45.2633C42.2913 45.2633 41.8439 45.1349 41.4278 44.878C40.2211 44.043 39.3161 42.3088 38.7128 39.6755C38.5671 39.0332 38.4423 38.3909 38.3383 37.7486C38.255 37.0849 38.1718 36.4212 38.0886 35.7575C37.9014 33.7665 37.8077 31.7968 37.8077 29.8485C37.8077 29.5916 37.8077 29.3347 37.8077 29.0778C37.8077 28.7995 37.8077 28.5426 37.8077 28.307C37.0795 29.5274 36.2994 30.7263 35.4671 31.9038C34.6349 33.0599 33.8131 34.1411 33.0017 35.1474C32.44 35.8325 31.7742 36.5604 31.0044 37.3311C30.2554 38.1019 29.4544 38.8084 28.6014 39.4507C27.7692 40.093 26.937 40.6068 26.1048 40.9921C25.7719 41.142 25.4494 41.2491 25.1374 41.3133C24.8253 41.3989 24.534 41.4417 24.2635 41.4417C23.6186 41.4417 23.0984 41.2384 22.7031 40.8316C22.3287 40.4248 22.1414 39.8682 22.1414 39.1616C22.1414 38.4765 22.3287 37.7058 22.7031 36.8494C22.9112 36.4641 23.2233 35.8753 23.6394 35.0831C24.0555 34.291 24.5236 33.4025 25.0437 32.4177L28.3518 26.2517C28.8095 25.4168 29.288 24.5069 29.7873 23.522C30.2866 22.5372 30.734 21.5952 31.1293 20.696C31.5454 19.7968 31.8158 19.026 31.9407 18.3838C31.6702 18.8548 31.3685 19.3579 31.0356 19.8931C30.7028 20.407 30.3595 20.9315 30.0058 21.4667L29.132 22.7834C28.6326 23.5327 28.1021 24.3249 27.5404 25.1599C26.9994 25.9948 26.4481 26.7977 25.8863 27.5684C25.3246 28.3392 24.7733 29.0136 24.2323 29.5916C21.8397 32.2464 19.2599 33.5738 16.4928 33.5738C15.6814 33.5738 15.0156 33.274 14.4955 32.6746C13.9545 32.0751 13.6841 31.4114 13.6841 30.6835C13.6841 30.2553 13.7777 29.8699 13.965 29.5274C14.1522 29.0564 14.4851 28.5533 14.9636 28.018C15.4421 27.4828 15.9727 26.9797 16.5552 26.5087C17.1377 26.0376 17.6579 25.7058 18.1156 25.5131C18.2196 25.4489 18.2924 25.4168 18.334 25.4168C18.4589 25.4168 18.5213 25.481 18.5213 25.6095C18.5213 25.7379 18.4485 25.845 18.3028 25.9306C18.074 26.1875 17.7827 26.5622 17.429 27.0546C17.0961 27.5256 16.7633 28.0394 16.4304 28.5961C16.1183 29.1527 15.8686 29.6987 15.6814 30.2339C15.5357 30.7477 15.4629 31.1973 15.4629 31.5827C15.4629 32.3534 15.7646 32.7388 16.368 32.7388C17.1794 32.7388 18.0532 32.4498 18.9894 31.8717C19.9465 31.2723 20.9139 30.5015 21.8917 29.5595C22.8904 28.6175 23.8682 27.5577 24.8253 26.3802C25.3038 25.7807 25.7719 25.192 26.2296 24.6139C26.7081 24.0359 27.1555 23.4685 27.5716 22.9119C27.8212 22.5693 28.0917 22.2161 28.383 21.8521C28.6742 21.4881 28.9551 21.1135 29.2256 20.7281C29.7249 20.0644 30.2034 19.4435 30.6611 18.8655C31.1189 18.266 31.4829 17.795 31.7534 17.4525C31.8158 17.3882 31.8782 17.324 31.9407 17.2598C32.0031 17.1955 32.0551 17.1206 32.0967 17.035C32.2007 16.9065 32.3048 16.8423 32.4088 16.8423C32.5336 16.8423 32.6584 16.9172 32.7833 17.0671C33.345 17.7094 33.6259 18.5443 33.6259 19.572C33.6259 21.2633 32.8665 23.5006 31.3477 26.2839C30.9732 26.969 30.5571 27.7183 30.0994 28.5318C29.6417 29.3454 29.184 30.1483 28.7263 30.9404C28.1645 31.9252 27.6444 32.8351 27.1659 33.6701C26.6873 34.5051 26.3441 35.1367 26.136 35.5649C25.9488 35.993 25.7407 36.4641 25.5118 36.9779C25.283 37.4917 25.0853 37.9948 24.9189 38.4872C24.7525 38.9583 24.6692 39.3543 24.6692 39.6755C24.6692 40.0394 24.8149 40.2214 25.1061 40.2214C25.2934 40.2214 25.5743 40.1358 25.9488 39.9645C26.4897 39.729 27.0618 39.3543 27.6652 38.8405C28.2893 38.3053 28.9031 37.7165 29.5065 37.0742C30.1306 36.4105 30.7132 35.7575 31.2541 35.1153C31.795 34.473 32.2423 33.9163 32.596 33.4453C33.5115 32.2678 34.4373 31.0368 35.3735 29.7522C36.3098 28.4676 37.1628 27.1723 37.9326 25.8664C37.9534 25.117 37.995 24.4855 38.0574 23.9716C38.1406 23.4364 38.203 23.0189 38.2446 22.7192C38.3487 22.291 38.5255 21.9913 38.7752 21.82C39.0248 21.6273 39.2849 21.531 39.5554 21.531C39.9091 21.531 40.2211 21.6808 40.4916 21.9806C40.7829 22.2803 40.8765 22.7085 40.7725 23.2651C40.6685 23.8646 40.5436 24.7638 40.398 25.9627C40.2732 27.1616 40.1587 28.4783 40.0547 29.9128C39.9715 31.3472 39.9299 32.7495 39.9299 34.1197C39.9299 34.398 39.9299 34.6657 39.9299 34.9226C39.9299 35.1795 39.9403 35.4364 39.9611 35.6933C40.1483 41.3668 41.147 44.2036 42.957 44.2036C43.1443 44.2036 43.3419 44.1715 43.55 44.1072C44.0909 43.9574 44.6527 43.5613 45.2352 42.919C45.8385 42.2553 46.4107 41.4203 46.9516 40.4141C47.4926 39.4293 47.9919 38.316 48.4496 37.0742C48.6785 36.4533 48.8865 35.8111 49.0738 35.1474C49.2818 34.4623 49.4587 33.7665 49.6043 33.0599C50.0204 31.026 50.2285 29.0778 50.2285 27.2152C50.2285 26.7442 50.2076 26.2839 50.166 25.8343C50.1452 25.3847 50.114 24.9458 50.0724 24.5176C49.9892 23.9823 49.8748 23.3829 49.7291 22.7192C49.5835 22.0555 49.365 21.4453 49.0738 20.8887C48.7825 20.332 48.3976 20.0537 47.9191 20.0537C47.3573 20.0537 46.7748 20.4284 46.1714 21.1777C46.0466 21.3704 45.9218 21.4667 45.7969 21.4667C45.6929 21.4667 45.6409 21.3811 45.6409 21.2098C45.6409 21.0385 45.6825 20.8566 45.7657 20.6639C45.8281 20.4712 45.9842 20.2464 46.2338 19.9895C46.5043 19.7326 46.7956 19.4971 47.1077 19.283C47.4406 19.0689 47.7214 18.9297 47.9503 18.8655C48.1791 18.8013 48.3976 18.7584 48.6056 18.737C48.8137 18.7156 49.0113 18.7049 49.1986 18.7049C51.4872 18.7049 52.6315 20.5782 52.6315 24.3249C52.6315 24.8815 52.6002 25.5024 52.5378 26.1875C52.4546 27.1938 52.309 28.2428 52.1009 29.3347C51.9137 30.4052 51.6952 31.4542 51.4456 32.4819C51.1959 33.4881 50.9462 34.4087 50.6966 35.2437C50.4469 36.0787 50.2284 36.7638 50.0412 37.299C49.5835 38.4765 49.0321 39.6112 48.3872 40.7031C47.7422 41.795 47.0348 42.7263 46.2651 43.4971C45.4953 44.2892 44.6631 44.8244 43.7684 45.1028C43.602 45.167 43.4355 45.2098 43.2691 45.2312C43.1027 45.2526 42.9362 45.2633 42.7698 45.2633Z" fill="white"/>
<circle cx="65.2631" cy="13.6843" r="3.15789" fill="white"/>
<circle cx="5.26322" cy="2.10526" r="2.10526" fill="white"/>
<circle cx="4.21053" cy="53.6842" r="4.21053" fill="white"/>
<defs>
<linearGradient id="paint0_linear_1_5112" x1="4.21045" y1="30.5264" x2="63.1578" y2="30.5264" gradientUnits="userSpaceOnUse">
<stop stop-color="#20D9A1"/>
<stop offset="1" stop-color="#5F39FF"/>
</linearGradient>
</defs>
</svg>
