<svg width="282" height="260" viewBox="0 0 282 260" fill="none" xmlns="http://www.w3.org/2000/svg">
<path opacity="0.05" d="M81.4533 95.0528C88.2508 138.032 29.9834 146.881 -1.5253e-05 145.934L-2.60432e-06 1.24975C17.8728 -4.43528 38.3827 10.3458 38.3827 23.9899C38.3827 37.634 42.7776 51.5623 49.8096 56.1103C77.6443 76.0079 79.6953 84.8197 81.4533 95.0528Z" fill="url(#paint0_linear_230_87)"/>
<path opacity="0.05" d="M152.897 174.788C45.3116 174.788 102.828 76 3.05176e-05 76L1.44318e-05 260L282 260C282 200.059 225.517 174.788 152.897 174.788Z" fill="url(#paint1_linear_230_87)"/>
<defs>
<linearGradient id="paint0_linear_230_87" x1="82" y1="73.0001" x2="-1.018e-05" y2="73.0001" gradientUnits="userSpaceOnUse">
<stop stop-color="#20D9A1"/>
<stop offset="1" stop-color="#5F39FF"/>
</linearGradient>
<linearGradient id="paint1_linear_230_87" x1="282" y1="168" x2="1.79935e-05" y2="168" gradientUnits="userSpaceOnUse">
<stop stop-color="#20D9A1"/>
<stop offset="1" stop-color="#5F39FF"/>
</linearGradient>
</defs>
</svg>
