<svg width="266" height="469" viewBox="0 0 266 469" fill="none" xmlns="http://www.w3.org/2000/svg">
<g opacity="0.5">
<g opacity="0.6">
<path opacity="0.4" d="M234.327 194.531L118.618 310.241L56.6672 310.241L172.377 194.531L234.327 194.531Z" fill="url(#paint0_linear_325_22456)"/>
<path opacity="0.4" d="M211.337 194.531L95.6275 310.241L33.677 310.241L149.386 194.531L211.337 194.531Z" fill="url(#paint1_linear_325_22456)"/>
<path opacity="0.4" d="M270.894 191.646L226.806 235.734L203.202 235.734L247.289 191.646L270.894 191.646Z" fill="#D9D9D9"/>
<path opacity="0.4" d="M126.697 233.422L54.7446 305.375L16.2213 305.375L88.1739 233.422L126.697 233.422Z" fill="url(#paint2_linear_325_22456)"/>
<path opacity="0.4" d="M157.761 177.152L78.4493 256.464L35.9861 256.464L115.298 177.152L157.761 177.152Z" fill="url(#paint3_linear_325_22456)"/>
<path opacity="0.4" d="M212.607 247.621L150.093 310.136L116.622 310.136L179.137 247.621L212.607 247.621Z" fill="url(#paint4_linear_325_22456)"/>
<path d="M231.435 45.166L29.2405 247.36" stroke="url(#paint5_linear_325_22456)" stroke-linecap="round"/>
<path d="M203.194 98.748L1.00027 300.942" stroke="url(#paint6_linear_325_22456)" stroke-linecap="round"/>
<path d="M350.541 1L148.347 203.194" stroke="url(#paint7_linear_325_22456)" stroke-linecap="round"/>
<path d="M291.532 88.248L89.3382 290.442" stroke="url(#paint8_linear_325_22456)" stroke-linecap="round"/>
<path d="M395.075 35.0312L192.881 237.225" stroke="url(#paint9_linear_325_22456)" stroke-linecap="round"/>
<path d="M344.387 102.006L142.193 304.2" stroke="url(#paint10_linear_325_22456)" stroke-linecap="round"/>
<path d="M411 57.8379L208.806 260.032" stroke="url(#paint11_linear_325_22456)" stroke-linecap="round"/>
</g>
<g opacity="0.6">
<path opacity="0.4" d="M234.257 425.189L118.974 309.907L57.2519 309.907L172.535 425.189L234.257 425.189Z" fill="url(#paint12_linear_325_22456)"/>
<path opacity="0.4" d="M211.351 425.189L96.0678 309.907L34.3456 309.907L149.628 425.189L211.351 425.189Z" fill="url(#paint13_linear_325_22456)"/>
<path opacity="0.4" d="M270.688 428.051L226.763 384.126L203.245 384.126L247.17 428.051L270.688 428.051Z" fill="#D9D9D9"/>
<path opacity="0.4" d="M127.023 386.428L55.3361 314.74L16.9548 314.74L88.6421 386.428L127.023 386.428Z" fill="url(#paint14_linear_325_22456)"/>
<path opacity="0.4" d="M157.968 442.49L78.9487 363.471L36.642 363.471L115.661 442.49L157.968 442.49Z" fill="url(#paint15_linear_325_22456)"/>
<path opacity="0.4" d="M212.616 372.285L150.332 310.001L116.985 310.001L179.269 372.285L212.616 372.285Z" fill="url(#paint16_linear_325_22456)"/>
<path d="M231.369 573.994L29.9205 372.545" stroke="url(#paint17_linear_325_22456)" stroke-linecap="round"/>
<path d="M203.237 520.604L1.78865 319.155" stroke="url(#paint18_linear_325_22456)" stroke-linecap="round"/>
<path d="M350.04 617.996L148.591 416.547" stroke="url(#paint19_linear_325_22456)" stroke-linecap="round"/>
<path d="M291.245 531.064L89.7965 329.616" stroke="url(#paint20_linear_325_22456)" stroke-linecap="round"/>
<path d="M394.405 584.096L192.957 382.647" stroke="url(#paint21_linear_325_22456)" stroke-linecap="round"/>
<path d="M343.905 517.359L142.457 315.911" stroke="url(#paint22_linear_325_22456)" stroke-linecap="round"/>
<path d="M410.277 561.361L208.829 359.913" stroke="url(#paint23_linear_325_22456)" stroke-linecap="round"/>
</g>
</g>
<defs>
<linearGradient id="paint0_linear_325_22456" x1="170.534" y1="277.423" x2="130.541" y2="237.43" gradientUnits="userSpaceOnUse">
<stop stop-color="white"/>
<stop offset="1" stop-color="white" stop-opacity="0"/>
</linearGradient>
<linearGradient id="paint1_linear_325_22456" x1="147.544" y1="277.423" x2="107.551" y2="237.43" gradientUnits="userSpaceOnUse">
<stop stop-color="white"/>
<stop offset="1" stop-color="white" stop-opacity="0"/>
</linearGradient>
<linearGradient id="paint2_linear_325_22456" x1="87.0283" y1="284.967" x2="62.1588" y2="260.098" gradientUnits="userSpaceOnUse">
<stop stop-color="white"/>
<stop offset="1" stop-color="white" stop-opacity="0"/>
</linearGradient>
<linearGradient id="paint3_linear_325_22456" x1="114.035" y1="233.969" x2="86.6218" y2="206.556" gradientUnits="userSpaceOnUse">
<stop stop-color="white"/>
<stop offset="1" stop-color="white" stop-opacity="0"/>
</linearGradient>
<linearGradient id="paint4_linear_325_22456" x1="178.142" y1="292.405" x2="156.534" y2="270.798" gradientUnits="userSpaceOnUse">
<stop stop-color="white"/>
<stop offset="1" stop-color="white" stop-opacity="0"/>
</linearGradient>
<linearGradient id="paint5_linear_325_22456" x1="130.338" y1="45.166" x2="130.338" y2="247.36" gradientUnits="userSpaceOnUse">
<stop stop-color="#20D9A1"/>
<stop offset="1" stop-color="#5F39FF"/>
</linearGradient>
<linearGradient id="paint6_linear_325_22456" x1="102.097" y1="98.748" x2="102.097" y2="300.942" gradientUnits="userSpaceOnUse">
<stop stop-color="#20D9A1"/>
<stop offset="1" stop-color="#5F39FF"/>
</linearGradient>
<linearGradient id="paint7_linear_325_22456" x1="249.444" y1="0.999999" x2="249.444" y2="203.194" gradientUnits="userSpaceOnUse">
<stop stop-color="#20D9A1"/>
<stop offset="1" stop-color="#5F39FF"/>
</linearGradient>
<linearGradient id="paint8_linear_325_22456" x1="190.435" y1="88.248" x2="190.435" y2="290.442" gradientUnits="userSpaceOnUse">
<stop stop-color="#20D9A1"/>
<stop offset="1" stop-color="#5F39FF"/>
</linearGradient>
<linearGradient id="paint9_linear_325_22456" x1="293.978" y1="35.0312" x2="293.978" y2="237.225" gradientUnits="userSpaceOnUse">
<stop stop-color="#20D9A1"/>
<stop offset="1" stop-color="#5F39FF"/>
</linearGradient>
<linearGradient id="paint10_linear_325_22456" x1="243.29" y1="102.006" x2="243.29" y2="304.2" gradientUnits="userSpaceOnUse">
<stop stop-color="#20D9A1"/>
<stop offset="1" stop-color="#5F39FF"/>
</linearGradient>
<linearGradient id="paint11_linear_325_22456" x1="309.903" y1="57.8379" x2="309.903" y2="260.032" gradientUnits="userSpaceOnUse">
<stop stop-color="#20D9A1"/>
<stop offset="1" stop-color="#5F39FF"/>
</linearGradient>
<linearGradient id="paint12_linear_325_22456" x1="170.699" y1="342.603" x2="130.853" y2="382.449" gradientUnits="userSpaceOnUse">
<stop stop-color="white"/>
<stop offset="1" stop-color="white" stop-opacity="0"/>
</linearGradient>
<linearGradient id="paint13_linear_325_22456" x1="147.793" y1="342.603" x2="107.947" y2="382.449" gradientUnits="userSpaceOnUse">
<stop stop-color="white"/>
<stop offset="1" stop-color="white" stop-opacity="0"/>
</linearGradient>
<linearGradient id="paint14_linear_325_22456" x1="87.5007" y1="335.072" x2="62.7229" y2="359.85" gradientUnits="userSpaceOnUse">
<stop stop-color="white"/>
<stop offset="1" stop-color="white" stop-opacity="0"/>
</linearGradient>
<linearGradient id="paint15_linear_325_22456" x1="114.403" y1="385.883" x2="87.0911" y2="413.195" gradientUnits="userSpaceOnUse">
<stop stop-color="white"/>
<stop offset="1" stop-color="white" stop-opacity="0"/>
</linearGradient>
<linearGradient id="paint16_linear_325_22456" x1="178.278" y1="327.666" x2="156.75" y2="349.194" gradientUnits="userSpaceOnUse">
<stop stop-color="white"/>
<stop offset="1" stop-color="white" stop-opacity="0"/>
</linearGradient>
<linearGradient id="paint17_linear_325_22456" x1="130.645" y1="573.994" x2="130.645" y2="372.545" gradientUnits="userSpaceOnUse">
<stop stop-color="#20D9A1"/>
<stop offset="1" stop-color="#5F39FF"/>
</linearGradient>
<linearGradient id="paint18_linear_325_22456" x1="102.513" y1="520.604" x2="102.513" y2="319.155" gradientUnits="userSpaceOnUse">
<stop stop-color="#20D9A1"/>
<stop offset="1" stop-color="#5F39FF"/>
</linearGradient>
<linearGradient id="paint19_linear_325_22456" x1="249.316" y1="617.996" x2="249.316" y2="416.547" gradientUnits="userSpaceOnUse">
<stop stop-color="#20D9A1"/>
<stop offset="1" stop-color="#5F39FF"/>
</linearGradient>
<linearGradient id="paint20_linear_325_22456" x1="190.521" y1="531.064" x2="190.521" y2="329.616" gradientUnits="userSpaceOnUse">
<stop stop-color="#20D9A1"/>
<stop offset="1" stop-color="#5F39FF"/>
</linearGradient>
<linearGradient id="paint21_linear_325_22456" x1="293.681" y1="584.096" x2="293.681" y2="382.647" gradientUnits="userSpaceOnUse">
<stop stop-color="#20D9A1"/>
<stop offset="1" stop-color="#5F39FF"/>
</linearGradient>
<linearGradient id="paint22_linear_325_22456" x1="243.181" y1="517.359" x2="243.181" y2="315.911" gradientUnits="userSpaceOnUse">
<stop stop-color="#20D9A1"/>
<stop offset="1" stop-color="#5F39FF"/>
</linearGradient>
<linearGradient id="paint23_linear_325_22456" x1="309.553" y1="561.361" x2="309.553" y2="359.913" gradientUnits="userSpaceOnUse">
<stop stop-color="#20D9A1"/>
<stop offset="1" stop-color="#5F39FF"/>
</linearGradient>
</defs>
</svg>
