<svg width="148" height="133" viewBox="0 0 148 133" fill="none" xmlns="http://www.w3.org/2000/svg">
<g opacity="0.3">
<path d="M38.8553 36.5446C42.6195 17.8669 55.3096 11.5075 61.1841 10.6626C82.2803 6.739 109.166 32.9395 120.809 47.3959C132.451 61.8524 138.027 81.8016 120.434 93.5241C102.84 105.246 90.9725 122.683 65.9763 125.196C40.9802 127.709 21.12 108.188 17.8949 89.8442C14.6698 71.5007 34.1501 59.8917 38.8553 36.5446Z" stroke="url(#paint0_linear_325_22501)"/>
<path d="M37.9424 32.1879C44.8078 12.7558 60.6453 7.22431 67.7059 6.88756C93.1762 4.73603 121.608 35.0529 133.52 51.4771C145.431 67.9014 149.454 89.5687 127.121 100.316C104.789 111.064 88.4951 128.41 58.5919 128.697C28.6887 128.983 7.70741 106.411 6.25897 86.6687C4.81053 66.9262 29.3607 56.478 37.9424 32.1879Z" stroke="url(#paint1_linear_325_22501)"/>
<path d="M45.8676 39.9477C51.2033 24.8451 63.5121 20.5461 68.9996 20.2844C88.795 18.6122 110.892 42.1743 120.15 54.9392C129.407 67.704 132.534 84.5437 115.177 92.8968C97.8204 101.25 85.1569 114.731 61.9162 114.954C38.6756 115.176 22.3691 97.6336 21.2433 82.2898C20.1176 66.9461 39.1979 58.8258 45.8676 39.9477Z" stroke="url(#paint2_linear_325_22501)"/>
<path d="M49.445 43.4517C54.0902 30.3037 64.8061 26.5609 69.5835 26.3331C86.8171 24.8773 106.055 45.3902 114.114 56.5032C122.174 67.6161 124.896 82.2766 109.785 89.5487C94.6745 96.8208 83.6498 108.558 63.4168 108.751C43.1837 108.945 28.9874 93.6725 28.0074 80.3144C27.0273 66.9563 43.6385 59.8868 49.445 43.4517Z" stroke="url(#paint3_linear_325_22501)"/>
<path d="M52.9209 46.8556C56.8953 35.6064 66.0636 32.4042 70.151 32.2092C84.8957 30.9637 101.355 48.5141 108.251 58.0221C115.146 67.5301 117.475 80.0733 104.547 86.2952C91.6183 92.517 82.1858 102.559 64.8749 102.724C47.5639 102.89 35.4179 89.8234 34.5794 78.3945C33.7409 66.9656 47.953 60.9171 52.9209 46.8556Z" stroke="url(#paint4_linear_325_22501)"/>
<path d="M57.8405 51.6714C60.8654 43.1096 67.8434 40.6724 70.9543 40.524C82.1766 39.5761 94.7038 52.9337 99.952 60.1703C105.2 67.4068 106.973 76.9534 97.1328 81.6889C87.2932 86.4244 80.1141 94.0671 66.9387 94.1933C53.7633 94.3194 44.5189 84.3742 43.8808 75.6757C43.2426 66.9771 54.0594 62.3736 57.8405 51.6714Z" stroke="url(#paint5_linear_325_22501)"/>
<path d="M60.9007 54.6676C63.335 47.7775 68.9506 45.8161 71.4541 45.6967C80.4852 44.9339 90.5665 55.6834 94.79 61.5071C99.0134 67.3307 100.44 75.0134 92.5213 78.8243C84.6028 82.6351 78.8254 88.7857 68.2225 88.8872C57.6196 88.9887 50.1801 80.9853 49.6665 73.9851C49.153 66.9849 57.8578 63.2802 60.9007 54.6676Z" stroke="url(#paint6_linear_325_22501)"/>
<path d="M63.4126 57.1277C65.362 51.6099 69.8592 50.0392 71.864 49.9436C79.0964 49.3327 87.1699 57.9413 90.5522 62.605C93.9344 67.2687 95.0767 73.4213 88.7353 76.4731C82.3939 79.525 77.7672 84.4505 69.2761 84.5318C60.7849 84.6131 54.8272 78.2037 54.4159 72.5978C54.0046 66.9918 60.9758 64.025 63.4126 57.1277Z" stroke="url(#paint7_linear_325_22501)"/>
</g>
<defs>
<linearGradient id="paint0_linear_325_22501" x1="55.3721" y1="-23.917" x2="82.2122" y2="120.396" gradientUnits="userSpaceOnUse">
<stop stop-color="white"/>
<stop offset="1" stop-color="white" stop-opacity="0"/>
</linearGradient>
<linearGradient id="paint1_linear_325_22501" x1="65.2921" y1="-30.3038" x2="78.424" y2="125.154" gradientUnits="userSpaceOnUse">
<stop stop-color="white"/>
<stop offset="1" stop-color="white" stop-opacity="0"/>
</linearGradient>
<linearGradient id="paint2_linear_325_22501" x1="67.1236" y1="-8.6206" x2="77.3297" y2="112.201" gradientUnits="userSpaceOnUse">
<stop stop-color="white"/>
<stop offset="1" stop-color="white" stop-opacity="0"/>
</linearGradient>
<linearGradient id="paint3_linear_325_22501" x1="67.9503" y1="1.16874" x2="76.8355" y2="106.354" gradientUnits="userSpaceOnUse">
<stop stop-color="white"/>
<stop offset="1" stop-color="white" stop-opacity="0"/>
</linearGradient>
<linearGradient id="paint4_linear_325_22501" x1="68.7537" y1="10.6792" x2="76.3557" y2="100.674" gradientUnits="userSpaceOnUse">
<stop stop-color="white"/>
<stop offset="1" stop-color="white" stop-opacity="0"/>
</linearGradient>
<linearGradient id="paint5_linear_325_22501" x1="69.8908" y1="24.1375" x2="75.6767" y2="92.6325" gradientUnits="userSpaceOnUse">
<stop stop-color="white"/>
<stop offset="1" stop-color="white" stop-opacity="0"/>
</linearGradient>
<linearGradient id="paint6_linear_325_22501" x1="70.5982" y1="32.5096" x2="75.2545" y2="87.6311" gradientUnits="userSpaceOnUse">
<stop stop-color="white"/>
<stop offset="1" stop-color="white" stop-opacity="0"/>
</linearGradient>
<linearGradient id="paint7_linear_325_22501" x1="71.1787" y1="39.383" x2="74.9075" y2="83.5259" gradientUnits="userSpaceOnUse">
<stop stop-color="white"/>
<stop offset="1" stop-color="white" stop-opacity="0"/>
</linearGradient>
</defs>
</svg>
