<svg width="449" height="412" viewBox="0 0 449 412" fill="none" xmlns="http://www.w3.org/2000/svg">
<g opacity="0.5">
<g opacity="0.6">
<path opacity="0.4" d="M24.5312 177.674L140.241 293.383L140.241 355.334L24.5312 239.624V177.674Z" fill="url(#paint0_linear_325_22427)"/>
<path opacity="0.4" d="M24.5312 200.664L140.241 316.373L140.241 378.324L24.5312 262.615V200.664Z" fill="url(#paint1_linear_325_22427)"/>
<path opacity="0.4" d="M21.6465 141.105L65.7339 185.193V208.797L21.6465 164.71V141.105Z" fill="#D9D9D9"/>
<path opacity="0.4" d="M63.4229 285.303L135.375 357.255L135.375 395.779L63.4228 323.826L63.4229 285.303Z" fill="url(#paint2_linear_325_22427)"/>
<path opacity="0.4" d="M7.15234 254.24L86.4638 333.552L86.4638 376.015L7.15234 296.703L7.15234 254.24Z" fill="url(#paint3_linear_325_22427)"/>
<path opacity="0.4" d="M77.6211 199.393L140.136 261.907L140.136 295.378L77.6211 232.863V199.393Z" fill="url(#paint4_linear_325_22427)"/>
<path d="M-124.834 180.566L77.3602 382.76" stroke="url(#paint5_linear_325_22427)" stroke-linecap="round"/>
<path d="M-71.251 208.807L130.943 411.001" stroke="url(#paint6_linear_325_22427)" stroke-linecap="round"/>
<path d="M-169 61.459L33.1942 263.653" stroke="url(#paint7_linear_325_22427)" stroke-linecap="round"/>
<path d="M-81.751 120.467L120.443 322.661" stroke="url(#paint8_linear_325_22427)" stroke-linecap="round"/>
<path d="M-134.97 16.9238L67.2244 219.118" stroke="url(#paint9_linear_325_22427)" stroke-linecap="round"/>
<path d="M-67.9932 67.6133L134.201 269.807" stroke="url(#paint10_linear_325_22427)" stroke-linecap="round"/>
<path d="M-112.162 1L90.032 203.194" stroke="url(#paint11_linear_325_22427)" stroke-linecap="round"/>
</g>
<g opacity="0.6">
<path opacity="0.4" d="M255.189 177.742L139.907 293.025L139.907 354.747L255.189 239.464V177.742Z" fill="url(#paint12_linear_325_22427)"/>
<path opacity="0.4" d="M255.189 200.648L139.907 315.931L139.907 377.653L255.189 262.371V200.648Z" fill="url(#paint13_linear_325_22427)"/>
<path opacity="0.4" d="M258.05 141.312L214.125 185.237L214.125 208.755L258.05 164.83L258.05 141.312Z" fill="#D9D9D9"/>
<path opacity="0.4" d="M216.428 284.977L144.74 356.664L144.74 395.045L216.428 323.358L216.428 284.977Z" fill="url(#paint14_linear_325_22427)"/>
<path opacity="0.4" d="M272.49 254.033L193.471 333.052L193.471 375.359L272.49 296.34L272.49 254.033Z" fill="url(#paint15_linear_325_22427)"/>
<path opacity="0.4" d="M202.285 199.385L140.001 261.669L140.001 295.016L202.285 232.732L202.285 199.385Z" fill="url(#paint16_linear_325_22427)"/>
<path d="M403.993 180.631L202.544 382.08" stroke="url(#paint17_linear_325_22427)" stroke-linecap="round"/>
<path d="M350.604 208.764L149.156 410.212" stroke="url(#paint18_linear_325_22427)" stroke-linecap="round"/>
<path d="M447.996 61.959L246.547 263.408" stroke="url(#paint19_linear_325_22427)" stroke-linecap="round"/>
<path d="M361.065 120.756L159.617 322.205" stroke="url(#paint20_linear_325_22427)" stroke-linecap="round"/>
<path d="M414.096 17.5957L212.647 219.044" stroke="url(#paint21_linear_325_22427)" stroke-linecap="round"/>
<path d="M347.36 68.0938L145.912 269.542" stroke="url(#paint22_linear_325_22427)" stroke-linecap="round"/>
<path d="M391.362 1.72266L189.914 203.171" stroke="url(#paint23_linear_325_22427)" stroke-linecap="round"/>
</g>
</g>
<defs>
<linearGradient id="paint0_linear_325_22427" x1="107.423" y1="241.467" x2="67.4296" y2="281.46" gradientUnits="userSpaceOnUse">
<stop stop-color="white"/>
<stop offset="1" stop-color="white" stop-opacity="0"/>
</linearGradient>
<linearGradient id="paint1_linear_325_22427" x1="107.423" y1="264.457" x2="67.4296" y2="304.45" gradientUnits="userSpaceOnUse">
<stop stop-color="white"/>
<stop offset="1" stop-color="white" stop-opacity="0"/>
</linearGradient>
<linearGradient id="paint2_linear_325_22427" x1="114.968" y1="324.972" x2="90.0987" y2="349.841" gradientUnits="userSpaceOnUse">
<stop stop-color="white"/>
<stop offset="1" stop-color="white" stop-opacity="0"/>
</linearGradient>
<linearGradient id="paint3_linear_325_22427" x1="63.9693" y1="297.966" x2="36.5564" y2="325.379" gradientUnits="userSpaceOnUse">
<stop stop-color="white"/>
<stop offset="1" stop-color="white" stop-opacity="0"/>
</linearGradient>
<linearGradient id="paint4_linear_325_22427" x1="122.405" y1="233.858" x2="100.798" y2="255.466" gradientUnits="userSpaceOnUse">
<stop stop-color="white"/>
<stop offset="1" stop-color="white" stop-opacity="0"/>
</linearGradient>
<linearGradient id="paint5_linear_325_22427" x1="-124.834" y1="281.663" x2="77.3602" y2="281.663" gradientUnits="userSpaceOnUse">
<stop stop-color="#20D9A1"/>
<stop offset="1" stop-color="#5F39FF"/>
</linearGradient>
<linearGradient id="paint6_linear_325_22427" x1="-71.251" y1="309.904" x2="130.943" y2="309.904" gradientUnits="userSpaceOnUse">
<stop stop-color="#20D9A1"/>
<stop offset="1" stop-color="#5F39FF"/>
</linearGradient>
<linearGradient id="paint7_linear_325_22427" x1="-169" y1="162.556" x2="33.1942" y2="162.556" gradientUnits="userSpaceOnUse">
<stop stop-color="#20D9A1"/>
<stop offset="1" stop-color="#5F39FF"/>
</linearGradient>
<linearGradient id="paint8_linear_325_22427" x1="-81.751" y1="221.564" x2="120.443" y2="221.564" gradientUnits="userSpaceOnUse">
<stop stop-color="#20D9A1"/>
<stop offset="1" stop-color="#5F39FF"/>
</linearGradient>
<linearGradient id="paint9_linear_325_22427" x1="-134.97" y1="118.021" x2="67.2244" y2="118.021" gradientUnits="userSpaceOnUse">
<stop stop-color="#20D9A1"/>
<stop offset="1" stop-color="#5F39FF"/>
</linearGradient>
<linearGradient id="paint10_linear_325_22427" x1="-67.9932" y1="168.71" x2="134.201" y2="168.71" gradientUnits="userSpaceOnUse">
<stop stop-color="#20D9A1"/>
<stop offset="1" stop-color="#5F39FF"/>
</linearGradient>
<linearGradient id="paint11_linear_325_22427" x1="-112.162" y1="102.097" x2="90.032" y2="102.097" gradientUnits="userSpaceOnUse">
<stop stop-color="#20D9A1"/>
<stop offset="1" stop-color="#5F39FF"/>
</linearGradient>
<linearGradient id="paint12_linear_325_22427" x1="172.603" y1="241.3" x2="212.449" y2="281.146" gradientUnits="userSpaceOnUse">
<stop stop-color="white"/>
<stop offset="1" stop-color="white" stop-opacity="0"/>
</linearGradient>
<linearGradient id="paint13_linear_325_22427" x1="172.603" y1="264.206" x2="212.449" y2="304.052" gradientUnits="userSpaceOnUse">
<stop stop-color="white"/>
<stop offset="1" stop-color="white" stop-opacity="0"/>
</linearGradient>
<linearGradient id="paint14_linear_325_22427" x1="165.072" y1="324.499" x2="189.85" y2="349.277" gradientUnits="userSpaceOnUse">
<stop stop-color="white"/>
<stop offset="1" stop-color="white" stop-opacity="0"/>
</linearGradient>
<linearGradient id="paint15_linear_325_22427" x1="215.883" y1="297.598" x2="243.195" y2="324.91" gradientUnits="userSpaceOnUse">
<stop stop-color="white"/>
<stop offset="1" stop-color="white" stop-opacity="0"/>
</linearGradient>
<linearGradient id="paint16_linear_325_22427" x1="157.666" y1="233.723" x2="179.194" y2="255.251" gradientUnits="userSpaceOnUse">
<stop stop-color="white"/>
<stop offset="1" stop-color="white" stop-opacity="0"/>
</linearGradient>
<linearGradient id="paint17_linear_325_22427" x1="403.993" y1="281.355" x2="202.544" y2="281.355" gradientUnits="userSpaceOnUse">
<stop stop-color="#20D9A1"/>
<stop offset="1" stop-color="#5F39FF"/>
</linearGradient>
<linearGradient id="paint18_linear_325_22427" x1="350.604" y1="309.488" x2="149.156" y2="309.488" gradientUnits="userSpaceOnUse">
<stop stop-color="#20D9A1"/>
<stop offset="1" stop-color="#5F39FF"/>
</linearGradient>
<linearGradient id="paint19_linear_325_22427" x1="447.996" y1="162.683" x2="246.547" y2="162.683" gradientUnits="userSpaceOnUse">
<stop stop-color="#20D9A1"/>
<stop offset="1" stop-color="#5F39FF"/>
</linearGradient>
<linearGradient id="paint20_linear_325_22427" x1="361.065" y1="221.48" x2="159.617" y2="221.48" gradientUnits="userSpaceOnUse">
<stop stop-color="#20D9A1"/>
<stop offset="1" stop-color="#5F39FF"/>
</linearGradient>
<linearGradient id="paint21_linear_325_22427" x1="414.096" y1="118.32" x2="212.647" y2="118.32" gradientUnits="userSpaceOnUse">
<stop stop-color="#20D9A1"/>
<stop offset="1" stop-color="#5F39FF"/>
</linearGradient>
<linearGradient id="paint22_linear_325_22427" x1="347.36" y1="168.818" x2="145.912" y2="168.818" gradientUnits="userSpaceOnUse">
<stop stop-color="#20D9A1"/>
<stop offset="1" stop-color="#5F39FF"/>
</linearGradient>
<linearGradient id="paint23_linear_325_22427" x1="391.362" y1="102.447" x2="189.914" y2="102.447" gradientUnits="userSpaceOnUse">
<stop stop-color="#20D9A1"/>
<stop offset="1" stop-color="#5F39FF"/>
</linearGradient>
</defs>
</svg>
