<svg width="241" height="692" viewBox="0 0 241 692" fill="none" xmlns="http://www.w3.org/2000/svg">
<g opacity="0.7">
<path opacity="0.05" d="M1.75141 149.575C-18.2147 23.3939 152.932 -2.58792 241.001 0.193858L241.001 424.971C188.504 441.661 128.261 398.266 128.261 358.208C128.261 318.151 115.352 277.259 94.6971 263.906C12.9393 205.489 6.91503 179.618 1.75141 149.575Z" fill="url(#paint0_linear_1_23611)"/>
<path opacity="0.05" d="M1.75141 412.934C-18.2147 286.753 152.932 260.771 241.001 263.553V688.33C188.504 705.021 128.261 661.625 128.261 621.567C128.261 581.51 115.352 540.618 94.6971 527.265C12.9393 468.848 6.91503 442.977 1.75141 412.934Z" fill="url(#paint1_linear_1_23611)"/>
</g>
<defs>
<linearGradient id="paint0_linear_1_23611" x1="0.145512" y1="214.319" x2="241.001" y2="214.319" gradientUnits="userSpaceOnUse">
<stop stop-color="#20D9A1"/>
<stop offset="1" stop-color="#5F39FF"/>
</linearGradient>
<linearGradient id="paint1_linear_1_23611" x1="0.145512" y1="477.678" x2="241.001" y2="477.678" gradientUnits="userSpaceOnUse">
<stop stop-color="#20D9A1"/>
<stop offset="1" stop-color="#5F39FF"/>
</linearGradient>
</defs>
</svg>
