<svg width="341" height="412" viewBox="0 0 341 412" fill="none" xmlns="http://www.w3.org/2000/svg">
<g opacity="0.3">
<g opacity="0.6">
<path opacity="0.18" d="M146.686 234.328L30.9758 118.618L30.9758 56.6676L146.686 172.377L146.686 234.328Z" fill="url(#paint0_linear_325_23376)"/>
<path opacity="0.18" d="M146.686 211.34L30.9758 95.6301L30.9758 33.6793L146.686 149.389L146.686 211.34Z" fill="url(#paint1_linear_325_23376)"/>
<path opacity="0.18" d="M149.563 270.893L105.476 226.805L105.476 203.201L149.563 247.288L149.563 270.893Z" fill="url(#paint2_linear_325_23376)"/>
<path opacity="0.18" d="M107.788 126.699L35.8352 54.7464L35.8352 16.2229L107.788 88.1758L107.788 126.699Z" fill="url(#paint3_linear_325_23376)"/>
<path opacity="0.18" d="M164.062 157.76L84.7498 78.4481L84.7499 35.9847L164.062 115.296L164.062 157.76Z" fill="url(#paint4_linear_325_23376)"/>
<path opacity="0.18" d="M93.5859 212.607L31.0711 150.093L31.0711 116.622L93.586 179.137L93.5859 212.607Z" fill="url(#paint5_linear_325_23376)"/>
<path d="M296.037 231.432L93.8425 29.2372" stroke="url(#paint6_linear_325_23376)" stroke-linecap="round"/>
<path d="M242.458 203.195L40.2634 1.00086" stroke="url(#paint7_linear_325_23376)" stroke-linecap="round"/>
<path d="M340.211 350.541L138.016 148.347" stroke="url(#paint8_linear_325_23376)" stroke-linecap="round"/>
<path d="M252.962 291.529L50.7673 89.3348" stroke="url(#paint9_linear_325_23376)" stroke-linecap="round"/>
<path d="M306.181 395.07L103.986 192.876" stroke="url(#paint10_linear_325_23376)" stroke-linecap="round"/>
<path d="M239.202 344.387L37.0075 142.192" stroke="url(#paint11_linear_325_23376)" stroke-linecap="round"/>
<path d="M283.375 411L81.1804 208.806" stroke="url(#paint12_linear_325_23376)" stroke-linecap="round"/>
</g>
</g>
<defs>
<linearGradient id="paint0_linear_325_23376" x1="110.078" y1="153.969" x2="52.6511" y2="178.52" gradientUnits="userSpaceOnUse">
<stop stop-color="#705FFF"/>
<stop offset="1" stop-color="#705FFF" stop-opacity="0"/>
</linearGradient>
<linearGradient id="paint1_linear_325_23376" x1="110.078" y1="130.981" x2="52.6511" y2="155.532" gradientUnits="userSpaceOnUse">
<stop stop-color="#705FFF"/>
<stop offset="1" stop-color="#705FFF" stop-opacity="0"/>
</linearGradient>
<linearGradient id="paint2_linear_325_23376" x1="135.615" y1="240.274" x2="113.735" y2="249.629" gradientUnits="userSpaceOnUse">
<stop stop-color="#705FFF"/>
<stop offset="1" stop-color="#705FFF" stop-opacity="0"/>
</linearGradient>
<linearGradient id="paint3_linear_325_23376" x1="85.0243" y1="76.7289" x2="49.3138" y2="91.9958" gradientUnits="userSpaceOnUse">
<stop stop-color="#705FFF"/>
<stop offset="1" stop-color="#705FFF" stop-opacity="0"/>
</linearGradient>
<linearGradient id="paint4_linear_325_23376" x1="138.97" y1="102.679" x2="99.6069" y2="119.507" gradientUnits="userSpaceOnUse">
<stop stop-color="#705FFF"/>
<stop offset="1" stop-color="#705FFF" stop-opacity="0"/>
</linearGradient>
<linearGradient id="paint5_linear_325_23376" x1="73.808" y1="169.192" x2="42.7816" y2="182.456" gradientUnits="userSpaceOnUse">
<stop stop-color="#705FFF"/>
<stop offset="1" stop-color="#705FFF" stop-opacity="0"/>
</linearGradient>
<linearGradient id="paint6_linear_325_23376" x1="296.037" y1="130.335" x2="93.8425" y2="130.335" gradientUnits="userSpaceOnUse">
<stop stop-color="#20D9A1"/>
<stop offset="1" stop-color="#5F39FF"/>
</linearGradient>
<linearGradient id="paint7_linear_325_23376" x1="242.458" y1="102.098" x2="40.2634" y2="102.098" gradientUnits="userSpaceOnUse">
<stop stop-color="#20D9A1"/>
<stop offset="1" stop-color="#5F39FF"/>
</linearGradient>
<linearGradient id="paint8_linear_325_23376" x1="340.211" y1="249.444" x2="138.016" y2="249.444" gradientUnits="userSpaceOnUse">
<stop stop-color="#20D9A1"/>
<stop offset="1" stop-color="#5F39FF"/>
</linearGradient>
<linearGradient id="paint9_linear_325_23376" x1="252.962" y1="190.432" x2="50.7673" y2="190.432" gradientUnits="userSpaceOnUse">
<stop stop-color="#20D9A1"/>
<stop offset="1" stop-color="#5F39FF"/>
</linearGradient>
<linearGradient id="paint10_linear_325_23376" x1="306.181" y1="293.973" x2="103.986" y2="293.973" gradientUnits="userSpaceOnUse">
<stop stop-color="#20D9A1"/>
<stop offset="1" stop-color="#5F39FF"/>
</linearGradient>
<linearGradient id="paint11_linear_325_23376" x1="239.202" y1="243.29" x2="37.0075" y2="243.29" gradientUnits="userSpaceOnUse">
<stop stop-color="#20D9A1"/>
<stop offset="1" stop-color="#5F39FF"/>
</linearGradient>
<linearGradient id="paint12_linear_325_23376" x1="283.375" y1="309.903" x2="81.1803" y2="309.903" gradientUnits="userSpaceOnUse">
<stop stop-color="#20D9A1"/>
<stop offset="1" stop-color="#5F39FF"/>
</linearGradient>
</defs>
</svg>
