<svg width="116" height="116" viewBox="0 0 116 116" fill="none" xmlns="http://www.w3.org/2000/svg">
<g opacity="0.3">
<circle cx="2.07141" cy="39.3568" r="2.07141" fill="#D6D1FF"/>
<circle cx="2.07141" cy="51.7853" r="2.07141" fill="#D6D1FF"/>
<circle cx="2.07141" cy="64.2137" r="2.07141" fill="#D6D1FF"/>
<circle cx="2.07141" cy="76.6422" r="2.07141" fill="#D6D1FF"/>
<circle cx="2.07141" cy="89.0707" r="2.07141" fill="#D6D1FF"/>
<circle cx="14.5001" cy="14.4999" r="2.07141" fill="#D6D1FF"/>
<circle cx="14.5001" cy="26.9283" r="2.07141" fill="#D6D1FF"/>
<circle cx="4.55798" cy="26.9283" r="2.07141" fill="#D6D1FF"/>
<circle cx="14.5001" cy="39.3568" r="2.07141" fill="#D6D1FF"/>
<circle cx="14.5001" cy="51.7853" r="2.07141" fill="#D6D1FF"/>
<circle cx="14.5001" cy="64.2137" r="2.07141" fill="#D6D1FF"/>
<circle cx="14.5001" cy="76.6422" r="2.07141" fill="#D6D1FF"/>
<circle cx="14.5001" cy="89.0707" r="2.07141" fill="#D6D1FF"/>
<circle cx="14.5001" cy="101.499" r="2.07141" fill="#D6D1FF"/>
<circle cx="26.9296" cy="14.4999" r="2.07141" fill="#D6D1FF"/>
<circle cx="26.9296" cy="6.21423" r="2.07141" fill="#D6D1FF"/>
<circle cx="26.9296" cy="26.9283" r="2.07141" fill="#D6D1FF"/>
<circle cx="26.9296" cy="39.3568" r="2.07141" fill="#D6D1FF"/>
<circle cx="26.9296" cy="51.7853" r="2.07141" fill="#D6D1FF"/>
<circle cx="26.9296" cy="64.2137" r="2.07141" fill="#D6D1FF"/>
<circle cx="26.9296" cy="76.6422" r="2.07141" fill="#D6D1FF"/>
<circle cx="26.9296" cy="89.0707" r="2.07141" fill="#D6D1FF"/>
<circle cx="26.9296" cy="101.499" r="2.07141" fill="#D6D1FF"/>
<circle cx="26.9296" cy="113.928" r="2.07141" fill="#D6D1FF"/>
<circle cx="39.3575" cy="2.07141" r="2.07141" fill="#D6D1FF"/>
<circle cx="39.3575" cy="14.4999" r="2.07141" fill="#D6D1FF"/>
<circle cx="39.3575" cy="26.9283" r="2.07141" fill="#D6D1FF"/>
<circle cx="39.3575" cy="39.3568" r="2.07141" fill="#D6D1FF"/>
<circle cx="39.3575" cy="51.7853" r="2.07141" fill="#D6D1FF"/>
<circle cx="39.3575" cy="64.2137" r="2.07141" fill="#D6D1FF"/>
<circle cx="39.3575" cy="76.6422" r="2.07141" fill="#D6D1FF"/>
<circle cx="39.3575" cy="89.0707" r="2.07141" fill="#D6D1FF"/>
<circle cx="39.3575" cy="101.499" r="2.07141" fill="#D6D1FF"/>
<circle cx="39.3575" cy="113.928" r="2.07141" fill="#D6D1FF"/>
<circle cx="51.7845" cy="2.07141" r="2.07141" fill="#D6D1FF"/>
<circle cx="51.7845" cy="14.4999" r="2.07141" fill="#D6D1FF"/>
<circle cx="51.7845" cy="26.9283" r="2.07141" fill="#D6D1FF"/>
<circle cx="51.7845" cy="39.3568" r="2.07141" fill="#D6D1FF"/>
<circle cx="51.7845" cy="51.7853" r="2.07141" fill="#D6D1FF"/>
<circle cx="51.7845" cy="64.2137" r="2.07141" fill="#D6D1FF"/>
<circle cx="51.7845" cy="76.6422" r="2.07141" fill="#D6D1FF"/>
<circle cx="51.7845" cy="89.0707" r="2.07141" fill="#D6D1FF"/>
<circle cx="51.7845" cy="101.499" r="2.07141" fill="#D6D1FF"/>
<circle cx="51.7845" cy="113.928" r="2.07141" fill="#D6D1FF"/>
<circle cx="64.212" cy="2.07141" r="2.07141" fill="#D6D1FF"/>
<circle cx="64.212" cy="14.4999" r="2.07141" fill="#D6D1FF"/>
<circle cx="64.212" cy="26.9283" r="2.07141" fill="#D6D1FF"/>
<circle cx="64.212" cy="39.3568" r="2.07141" fill="#D6D1FF"/>
<circle cx="64.212" cy="51.7853" r="2.07141" fill="#D6D1FF"/>
<circle cx="64.212" cy="64.2137" r="2.07141" fill="#D6D1FF"/>
<circle cx="64.212" cy="76.6422" r="2.07141" fill="#D6D1FF"/>
<circle cx="64.212" cy="89.0707" r="2.07141" fill="#D6D1FF"/>
<circle cx="64.212" cy="101.499" r="2.07141" fill="#D6D1FF"/>
<circle cx="64.212" cy="113.928" r="2.07141" fill="#D6D1FF"/>
<circle cx="76.6417" cy="2.07141" r="2.07141" fill="#D6D1FF"/>
<circle cx="76.6417" cy="14.4999" r="2.07141" fill="#D6D1FF"/>
<circle cx="76.6417" cy="26.9283" r="2.07141" fill="#D6D1FF"/>
<circle cx="76.6417" cy="39.3568" r="2.07141" fill="#D6D1FF"/>
<circle cx="76.6417" cy="51.7853" r="2.07141" fill="#D6D1FF"/>
<circle cx="76.6417" cy="64.2137" r="2.07141" fill="#D6D1FF"/>
<circle cx="76.6417" cy="76.6422" r="2.07141" fill="#D6D1FF"/>
<circle cx="76.6417" cy="89.0707" r="2.07141" fill="#D6D1FF"/>
<circle cx="76.6417" cy="101.499" r="2.07141" fill="#D6D1FF"/>
<circle cx="76.6417" cy="113.928" r="2.07141" fill="#D6D1FF"/>
<circle cx="76.6417" cy="2.07141" r="2.07141" fill="#D6D1FF"/>
<circle cx="76.6417" cy="14.4999" r="2.07141" fill="#D6D1FF"/>
<circle cx="76.6417" cy="26.9283" r="2.07141" fill="#D6D1FF"/>
<circle cx="76.6417" cy="39.3568" r="2.07141" fill="#D6D1FF"/>
<circle cx="76.6417" cy="51.7853" r="2.07141" fill="#D6D1FF"/>
<circle cx="76.6417" cy="64.2137" r="2.07141" fill="#D6D1FF"/>
<circle cx="76.6417" cy="76.6422" r="2.07141" fill="#D6D1FF"/>
<circle cx="76.6417" cy="89.0707" r="2.07141" fill="#D6D1FF"/>
<circle cx="76.6417" cy="101.499" r="2.07141" fill="#D6D1FF"/>
<circle cx="76.6417" cy="113.928" r="2.07141" fill="#D6D1FF"/>
<circle cx="89.0704" cy="14.4999" r="2.07141" fill="#D6D1FF"/>
<circle cx="89.0704" cy="26.9283" r="2.07141" fill="#D6D1FF"/>
<circle cx="89.0704" cy="39.3568" r="2.07141" fill="#D6D1FF"/>
<circle cx="89.0704" cy="51.7853" r="2.07141" fill="#D6D1FF"/>
<circle cx="89.0704" cy="64.2137" r="2.07141" fill="#D6D1FF"/>
<circle cx="89.0704" cy="76.6422" r="2.07141" fill="#D6D1FF"/>
<circle cx="89.0704" cy="89.0707" r="2.07141" fill="#D6D1FF"/>
<circle cx="89.0704" cy="101.499" r="2.07141" fill="#D6D1FF"/>
<circle cx="89.0704" cy="113.928" r="2.07141" fill="#D6D1FF"/>
<circle cx="101.5" cy="26.9283" r="2.07141" fill="#D6D1FF"/>
<circle cx="101.5" cy="39.3568" r="2.07141" fill="#D6D1FF"/>
<circle cx="101.5" cy="51.7853" r="2.07141" fill="#D6D1FF"/>
<circle cx="101.5" cy="64.2137" r="2.07141" fill="#D6D1FF"/>
<circle cx="101.5" cy="76.6422" r="2.07141" fill="#D6D1FF"/>
<circle cx="101.5" cy="89.0707" r="2.07141" fill="#D6D1FF"/>
<circle cx="101.5" cy="101.499" r="2.07141" fill="#D6D1FF"/>
<circle cx="113.929" cy="39.3568" r="2.07141" fill="#D6D1FF"/>
<circle cx="113.929" cy="51.7853" r="2.07141" fill="#D6D1FF"/>
<circle cx="113.929" cy="64.2137" r="2.07141" fill="#D6D1FF"/>
<circle cx="113.929" cy="76.6422" r="2.07141" fill="#D6D1FF"/>
</g>
</svg>
