<svg width="165" height="165" viewBox="0 0 165 165" fill="none" xmlns="http://www.w3.org/2000/svg">
<g opacity="0.6">
<circle cx="2.93005" cy="2.93005" r="2.93005" transform="matrix(-4.37114e-08 1 1 4.37114e-08 52.7412 0.506836)" fill="url(#paint0_linear_1_22960)"/>
<circle cx="2.93005" cy="2.93005" r="2.93005" transform="matrix(-4.37114e-08 1 1 4.37114e-08 70.3213 0.506836)" fill="url(#paint1_linear_1_22960)"/>
<circle cx="2.93005" cy="2.93005" r="2.93005" transform="matrix(-4.37114e-08 1 1 4.37114e-08 87.9014 0.507019)" fill="url(#paint2_linear_1_22960)"/>
<circle cx="2.93005" cy="2.93005" r="2.93005" transform="matrix(-4.37114e-08 1 1 4.37114e-08 105.482 0.507019)" fill="url(#paint3_linear_1_22960)"/>
<circle cx="2.93005" cy="2.93005" r="2.93005" transform="matrix(-4.37114e-08 1 1 4.37114e-08 123.062 0.506836)" fill="url(#paint4_linear_1_22960)"/>
<circle cx="2.93005" cy="2.93005" r="2.93005" transform="matrix(-4.37114e-08 1 1 4.37114e-08 17.5801 18.0871)" fill="url(#paint5_linear_1_22960)"/>
<circle cx="2.93005" cy="2.93005" r="2.93005" transform="matrix(-4.37114e-08 1 1 4.37114e-08 35.1611 18.0871)" fill="url(#paint6_linear_1_22960)"/>
<circle cx="2.93005" cy="2.93005" r="2.93005" transform="matrix(-4.37114e-08 1 1 4.37114e-08 35.1611 4.02362)" fill="url(#paint7_linear_1_22960)"/>
<circle cx="2.93005" cy="2.93005" r="2.93005" transform="matrix(-4.37114e-08 1 1 4.37114e-08 52.7412 18.0872)" fill="url(#paint8_linear_1_22960)"/>
<circle cx="2.93005" cy="2.93005" r="2.93005" transform="matrix(-4.37114e-08 1 1 4.37114e-08 70.3213 18.0872)" fill="url(#paint9_linear_1_22960)"/>
<circle cx="2.93005" cy="2.93005" r="2.93005" transform="matrix(-4.37114e-08 1 1 4.37114e-08 87.9014 18.0871)" fill="url(#paint10_linear_1_22960)"/>
<circle cx="2.93005" cy="2.93005" r="2.93005" transform="matrix(-4.37114e-08 1 1 4.37114e-08 105.482 18.0871)" fill="url(#paint11_linear_1_22960)"/>
<circle cx="2.93005" cy="2.93005" r="2.93005" transform="matrix(-4.37114e-08 1 1 4.37114e-08 123.062 18.0872)" fill="url(#paint12_linear_1_22960)"/>
<circle cx="2.93005" cy="2.93005" r="2.93005" transform="matrix(-4.37114e-08 1 1 4.37114e-08 140.643 18.0872)" fill="url(#paint13_linear_1_22960)"/>
<circle cx="2.93005" cy="2.93005" r="2.93005" transform="matrix(-4.37114e-08 1 1 4.37114e-08 17.5801 35.6701)" fill="url(#paint14_linear_1_22960)"/>
<circle cx="2.93005" cy="2.93005" r="2.93005" transform="matrix(-4.37114e-08 1 1 4.37114e-08 5.86035 35.6701)" fill="url(#paint15_linear_1_22960)"/>
<circle cx="2.93005" cy="2.93005" r="2.93005" transform="matrix(-4.37114e-08 1 1 4.37114e-08 35.1611 35.6701)" fill="url(#paint16_linear_1_22960)"/>
<circle cx="2.93005" cy="2.93005" r="2.93005" transform="matrix(-4.37114e-08 1 1 4.37114e-08 52.7412 35.6701)" fill="url(#paint17_linear_1_22960)"/>
<circle cx="2.93005" cy="2.93005" r="2.93005" transform="matrix(-4.37114e-08 1 1 4.37114e-08 70.3213 35.6701)" fill="url(#paint18_linear_1_22960)"/>
<circle cx="2.93005" cy="2.93005" r="2.93005" transform="matrix(-4.37114e-08 1 1 4.37114e-08 87.9014 35.6701)" fill="url(#paint19_linear_1_22960)"/>
<circle cx="2.93005" cy="2.93005" r="2.93005" transform="matrix(-4.37114e-08 1 1 4.37114e-08 105.482 35.6701)" fill="url(#paint20_linear_1_22960)"/>
<circle cx="2.93005" cy="2.93005" r="2.93005" transform="matrix(-4.37114e-08 1 1 4.37114e-08 123.062 35.6701)" fill="url(#paint21_linear_1_22960)"/>
<circle cx="2.93005" cy="2.93005" r="2.93005" transform="matrix(-4.37114e-08 1 1 4.37114e-08 140.643 35.6701)" fill="url(#paint22_linear_1_22960)"/>
<circle cx="2.93005" cy="2.93005" r="2.93005" transform="matrix(-4.37114e-08 1 1 4.37114e-08 158.223 35.6691)" fill="url(#paint23_linear_1_22960)"/>
<circle cx="2.93005" cy="2.93005" r="2.93005" transform="matrix(-4.37114e-08 1 1 4.37114e-08 0 53.2492)" fill="url(#paint24_linear_1_22960)"/>
<circle cx="2.93005" cy="2.93005" r="2.93005" transform="matrix(-4.37114e-08 1 1 4.37114e-08 17.5801 53.2492)" fill="url(#paint25_linear_1_22960)"/>
<circle cx="2.93005" cy="2.93005" r="2.93005" transform="matrix(-4.37114e-08 1 1 4.37114e-08 35.1611 53.2492)" fill="url(#paint26_linear_1_22960)"/>
<circle cx="2.93005" cy="2.93005" r="2.93005" transform="matrix(-4.37114e-08 1 1 4.37114e-08 52.7412 53.2492)" fill="url(#paint27_linear_1_22960)"/>
<circle cx="2.93005" cy="2.93005" r="2.93005" transform="matrix(-4.37114e-08 1 1 4.37114e-08 70.3213 53.2492)" fill="url(#paint28_linear_1_22960)"/>
<circle cx="2.93005" cy="2.93005" r="2.93005" transform="matrix(-4.37114e-08 1 1 4.37114e-08 87.9014 53.2492)" fill="url(#paint29_linear_1_22960)"/>
<circle cx="2.93005" cy="2.93005" r="2.93005" transform="matrix(-4.37114e-08 1 1 4.37114e-08 105.482 53.2492)" fill="url(#paint30_linear_1_22960)"/>
<circle cx="2.93005" cy="2.93005" r="2.93005" transform="matrix(-4.37114e-08 1 1 4.37114e-08 123.062 53.2492)" fill="url(#paint31_linear_1_22960)"/>
<circle cx="2.93005" cy="2.93005" r="2.93005" transform="matrix(-4.37114e-08 1 1 4.37114e-08 140.643 53.2492)" fill="url(#paint32_linear_1_22960)"/>
<circle cx="2.93005" cy="2.93005" r="2.93005" transform="matrix(-4.37114e-08 1 1 4.37114e-08 158.223 53.2482)" fill="url(#paint33_linear_1_22960)"/>
<circle cx="2.93005" cy="2.93005" r="2.93005" transform="matrix(-4.37114e-08 1 1 4.37114e-08 0 70.8264)" fill="url(#paint34_linear_1_22960)"/>
<circle cx="2.93005" cy="2.93005" r="2.93005" transform="matrix(-4.37114e-08 1 1 4.37114e-08 17.5801 70.8264)" fill="url(#paint35_linear_1_22960)"/>
<circle cx="2.93005" cy="2.93005" r="2.93005" transform="matrix(-4.37114e-08 1 1 4.37114e-08 35.1611 70.8264)" fill="url(#paint36_linear_1_22960)"/>
<circle cx="2.93005" cy="2.93005" r="2.93005" transform="matrix(-4.37114e-08 1 1 4.37114e-08 52.7412 70.8264)" fill="url(#paint37_linear_1_22960)"/>
<circle cx="2.93005" cy="2.93005" r="2.93005" transform="matrix(-4.37114e-08 1 1 4.37114e-08 70.3213 70.8264)" fill="url(#paint38_linear_1_22960)"/>
<circle cx="2.93005" cy="2.93005" r="2.93005" transform="matrix(-4.37114e-08 1 1 4.37114e-08 87.9014 70.8254)" fill="url(#paint39_linear_1_22960)"/>
<circle cx="2.93005" cy="2.93005" r="2.93005" transform="matrix(-4.37114e-08 1 1 4.37114e-08 105.482 70.8254)" fill="url(#paint40_linear_1_22960)"/>
<circle cx="2.93005" cy="2.93005" r="2.93005" transform="matrix(-4.37114e-08 1 1 4.37114e-08 123.062 70.8264)" fill="url(#paint41_linear_1_22960)"/>
<circle cx="2.93005" cy="2.93005" r="2.93005" transform="matrix(-4.37114e-08 1 1 4.37114e-08 140.643 70.8264)" fill="url(#paint42_linear_1_22960)"/>
<circle cx="2.93005" cy="2.93005" r="2.93005" transform="matrix(-4.37114e-08 1 1 4.37114e-08 158.223 70.8254)" fill="url(#paint43_linear_1_22960)"/>
<circle cx="2.93005" cy="2.93005" r="2.93005" transform="matrix(-4.37114e-08 1 1 4.37114e-08 0 88.4053)" fill="url(#paint44_linear_1_22960)"/>
<circle cx="2.93005" cy="2.93005" r="2.93005" transform="matrix(-4.37114e-08 1 1 4.37114e-08 17.5801 88.4055)" fill="url(#paint45_linear_1_22960)"/>
<circle cx="2.93005" cy="2.93005" r="2.93005" transform="matrix(-4.37114e-08 1 1 4.37114e-08 35.1611 88.4055)" fill="url(#paint46_linear_1_22960)"/>
<circle cx="2.93005" cy="2.93005" r="2.93005" transform="matrix(-4.37114e-08 1 1 4.37114e-08 52.7412 88.4053)" fill="url(#paint47_linear_1_22960)"/>
<circle cx="2.93005" cy="2.93005" r="2.93005" transform="matrix(-4.37114e-08 1 1 4.37114e-08 70.3213 88.4053)" fill="url(#paint48_linear_1_22960)"/>
<circle cx="2.93005" cy="2.93005" r="2.93005" transform="matrix(-4.37114e-08 1 1 4.37114e-08 87.9014 88.4055)" fill="url(#paint49_linear_1_22960)"/>
<circle cx="2.93005" cy="2.93005" r="2.93005" transform="matrix(-4.37114e-08 1 1 4.37114e-08 105.482 88.4055)" fill="url(#paint50_linear_1_22960)"/>
<circle cx="2.93005" cy="2.93005" r="2.93005" transform="matrix(-4.37114e-08 1 1 4.37114e-08 123.062 88.4053)" fill="url(#paint51_linear_1_22960)"/>
<circle cx="2.93005" cy="2.93005" r="2.93005" transform="matrix(-4.37114e-08 1 1 4.37114e-08 140.643 88.4053)" fill="url(#paint52_linear_1_22960)"/>
<circle cx="2.93005" cy="2.93005" r="2.93005" transform="matrix(-4.37114e-08 1 1 4.37114e-08 158.223 88.4055)" fill="url(#paint53_linear_1_22960)"/>
<circle cx="2.93005" cy="2.93005" r="2.93005" transform="matrix(-4.37114e-08 1 1 4.37114e-08 0 105.988)" fill="url(#paint54_linear_1_22960)"/>
<circle cx="2.93005" cy="2.93005" r="2.93005" transform="matrix(-4.37114e-08 1 1 4.37114e-08 17.5801 105.988)" fill="url(#paint55_linear_1_22960)"/>
<circle cx="2.93005" cy="2.93005" r="2.93005" transform="matrix(-4.37114e-08 1 1 4.37114e-08 35.1611 105.987)" fill="url(#paint56_linear_1_22960)"/>
<circle cx="2.93005" cy="2.93005" r="2.93005" transform="matrix(-4.37114e-08 1 1 4.37114e-08 52.7412 105.988)" fill="url(#paint57_linear_1_22960)"/>
<circle cx="2.93005" cy="2.93005" r="2.93005" transform="matrix(-4.37114e-08 1 1 4.37114e-08 70.3213 105.988)" fill="url(#paint58_linear_1_22960)"/>
<circle cx="2.93005" cy="2.93005" r="2.93005" transform="matrix(-4.37114e-08 1 1 4.37114e-08 87.9014 105.987)" fill="url(#paint59_linear_1_22960)"/>
<circle cx="2.93005" cy="2.93005" r="2.93005" transform="matrix(-4.37114e-08 1 1 4.37114e-08 105.482 105.987)" fill="url(#paint60_linear_1_22960)"/>
<circle cx="2.93005" cy="2.93005" r="2.93005" transform="matrix(-4.37114e-08 1 1 4.37114e-08 123.062 105.987)" fill="url(#paint61_linear_1_22960)"/>
<circle cx="2.93005" cy="2.93005" r="2.93005" transform="matrix(-4.37114e-08 1 1 4.37114e-08 140.643 105.987)" fill="url(#paint62_linear_1_22960)"/>
<circle cx="2.93005" cy="2.93005" r="2.93005" transform="matrix(-4.37114e-08 1 1 4.37114e-08 158.223 105.987)" fill="url(#paint63_linear_1_22960)"/>
<circle cx="2.93005" cy="2.93005" r="2.93005" transform="matrix(-4.37114e-08 1 1 4.37114e-08 0 105.988)" fill="url(#paint64_linear_1_22960)"/>
<circle cx="2.93005" cy="2.93005" r="2.93005" transform="matrix(-4.37114e-08 1 1 4.37114e-08 17.5801 105.988)" fill="url(#paint65_linear_1_22960)"/>
<circle cx="2.93005" cy="2.93005" r="2.93005" transform="matrix(-4.37114e-08 1 1 4.37114e-08 35.1611 105.987)" fill="url(#paint66_linear_1_22960)"/>
<circle cx="2.93005" cy="2.93005" r="2.93005" transform="matrix(-4.37114e-08 1 1 4.37114e-08 52.7412 105.988)" fill="url(#paint67_linear_1_22960)"/>
<circle cx="2.93005" cy="2.93005" r="2.93005" transform="matrix(-4.37114e-08 1 1 4.37114e-08 70.3213 105.988)" fill="url(#paint68_linear_1_22960)"/>
<circle cx="2.93005" cy="2.93005" r="2.93005" transform="matrix(-4.37114e-08 1 1 4.37114e-08 87.9014 105.987)" fill="url(#paint69_linear_1_22960)"/>
<circle cx="2.93005" cy="2.93005" r="2.93005" transform="matrix(-4.37114e-08 1 1 4.37114e-08 105.482 105.987)" fill="url(#paint70_linear_1_22960)"/>
<circle cx="2.93005" cy="2.93005" r="2.93005" transform="matrix(-4.37114e-08 1 1 4.37114e-08 123.062 105.987)" fill="url(#paint71_linear_1_22960)"/>
<circle cx="2.93005" cy="2.93005" r="2.93005" transform="matrix(-4.37114e-08 1 1 4.37114e-08 140.643 105.987)" fill="url(#paint72_linear_1_22960)"/>
<circle cx="2.93005" cy="2.93005" r="2.93005" transform="matrix(-4.37114e-08 1 1 4.37114e-08 158.223 105.987)" fill="url(#paint73_linear_1_22960)"/>
<circle cx="2.93005" cy="2.93005" r="2.93005" transform="matrix(-4.37114e-08 1 1 4.37114e-08 17.5801 123.568)" fill="url(#paint74_linear_1_22960)"/>
<circle cx="2.93005" cy="2.93005" r="2.93005" transform="matrix(-4.37114e-08 1 1 4.37114e-08 35.1611 123.569)" fill="url(#paint75_linear_1_22960)"/>
<circle cx="2.93005" cy="2.93005" r="2.93005" transform="matrix(-4.37114e-08 1 1 4.37114e-08 52.7412 123.569)" fill="url(#paint76_linear_1_22960)"/>
<circle cx="2.93005" cy="2.93005" r="2.93005" transform="matrix(-4.37114e-08 1 1 4.37114e-08 70.3213 123.569)" fill="url(#paint77_linear_1_22960)"/>
<circle cx="2.93005" cy="2.93005" r="2.93005" transform="matrix(-4.37114e-08 1 1 4.37114e-08 87.9014 123.568)" fill="url(#paint78_linear_1_22960)"/>
<circle cx="2.93005" cy="2.93005" r="2.93005" transform="matrix(-4.37114e-08 1 1 4.37114e-08 105.482 123.568)" fill="url(#paint79_linear_1_22960)"/>
<circle cx="2.93005" cy="2.93005" r="2.93005" transform="matrix(-4.37114e-08 1 1 4.37114e-08 123.062 123.568)" fill="url(#paint80_linear_1_22960)"/>
<circle cx="2.93005" cy="2.93005" r="2.93005" transform="matrix(-4.37114e-08 1 1 4.37114e-08 140.643 123.568)" fill="url(#paint81_linear_1_22960)"/>
<circle cx="2.93005" cy="2.93005" r="2.93005" transform="matrix(-4.37114e-08 1 1 4.37114e-08 158.223 123.568)" fill="url(#paint82_linear_1_22960)"/>
<circle cx="2.93005" cy="2.93005" r="2.93005" transform="matrix(-4.37114e-08 1 1 4.37114e-08 35.1611 141.151)" fill="url(#paint83_linear_1_22960)"/>
<circle cx="2.93005" cy="2.93005" r="2.93005" transform="matrix(-4.37114e-08 1 1 4.37114e-08 52.7412 141.151)" fill="url(#paint84_linear_1_22960)"/>
<circle cx="2.93005" cy="2.93005" r="2.93005" transform="matrix(-4.37114e-08 1 1 4.37114e-08 70.3213 141.151)" fill="url(#paint85_linear_1_22960)"/>
<circle cx="2.93005" cy="2.93005" r="2.93005" transform="matrix(-4.37114e-08 1 1 4.37114e-08 87.9014 141.151)" fill="url(#paint86_linear_1_22960)"/>
<circle cx="2.93005" cy="2.93005" r="2.93005" transform="matrix(-4.37114e-08 1 1 4.37114e-08 105.482 141.151)" fill="url(#paint87_linear_1_22960)"/>
<circle cx="2.93005" cy="2.93005" r="2.93005" transform="matrix(-4.37114e-08 1 1 4.37114e-08 123.062 141.151)" fill="url(#paint88_linear_1_22960)"/>
<circle cx="2.93005" cy="2.93005" r="2.93005" transform="matrix(-4.37114e-08 1 1 4.37114e-08 140.643 141.151)" fill="url(#paint89_linear_1_22960)"/>
<circle cx="2.93005" cy="2.93005" r="2.93005" transform="matrix(-4.37114e-08 1 1 4.37114e-08 52.7412 158.731)" fill="url(#paint90_linear_1_22960)"/>
<circle cx="2.93005" cy="2.93005" r="2.93005" transform="matrix(-4.37114e-08 1 1 4.37114e-08 70.3213 158.731)" fill="url(#paint91_linear_1_22960)"/>
<circle cx="2.93005" cy="2.93005" r="2.93005" transform="matrix(-4.37114e-08 1 1 4.37114e-08 87.9014 158.731)" fill="url(#paint92_linear_1_22960)"/>
<circle cx="2.93005" cy="2.93005" r="2.93005" transform="matrix(-4.37114e-08 1 1 4.37114e-08 105.482 158.731)" fill="url(#paint93_linear_1_22960)"/>
</g>
<defs>
<linearGradient id="paint0_linear_1_22960" x1="2.93005" y1="-3.26491" x2="2.93005" y2="6.90654" gradientUnits="userSpaceOnUse">
<stop stop-color="#AC46D0"/>
<stop offset="1" stop-color="white" stop-opacity="0"/>
</linearGradient>
<linearGradient id="paint1_linear_1_22960" x1="2.93005" y1="-3.26491" x2="2.93005" y2="6.90654" gradientUnits="userSpaceOnUse">
<stop stop-color="#AC46D0"/>
<stop offset="1" stop-color="white" stop-opacity="0"/>
</linearGradient>
<linearGradient id="paint2_linear_1_22960" x1="2.93005" y1="-3.26491" x2="2.93005" y2="6.90654" gradientUnits="userSpaceOnUse">
<stop stop-color="#AC46D0"/>
<stop offset="1" stop-color="white" stop-opacity="0"/>
</linearGradient>
<linearGradient id="paint3_linear_1_22960" x1="2.93005" y1="-3.26491" x2="2.93005" y2="6.90654" gradientUnits="userSpaceOnUse">
<stop stop-color="#AC46D0"/>
<stop offset="1" stop-color="white" stop-opacity="0"/>
</linearGradient>
<linearGradient id="paint4_linear_1_22960" x1="2.93005" y1="-3.26491" x2="2.93005" y2="6.90654" gradientUnits="userSpaceOnUse">
<stop stop-color="#AC46D0"/>
<stop offset="1" stop-color="white" stop-opacity="0"/>
</linearGradient>
<linearGradient id="paint5_linear_1_22960" x1="2.93005" y1="-3.26491" x2="2.93005" y2="6.90654" gradientUnits="userSpaceOnUse">
<stop stop-color="#AC46D0"/>
<stop offset="1" stop-color="white" stop-opacity="0"/>
</linearGradient>
<linearGradient id="paint6_linear_1_22960" x1="2.93005" y1="-3.26491" x2="2.93005" y2="6.90654" gradientUnits="userSpaceOnUse">
<stop stop-color="#AC46D0"/>
<stop offset="1" stop-color="white" stop-opacity="0"/>
</linearGradient>
<linearGradient id="paint7_linear_1_22960" x1="2.93005" y1="-3.26491" x2="2.93005" y2="6.90654" gradientUnits="userSpaceOnUse">
<stop stop-color="#AC46D0"/>
<stop offset="1" stop-color="white" stop-opacity="0"/>
</linearGradient>
<linearGradient id="paint8_linear_1_22960" x1="2.93005" y1="-3.26491" x2="2.93005" y2="6.90654" gradientUnits="userSpaceOnUse">
<stop stop-color="#AC46D0"/>
<stop offset="1" stop-color="white" stop-opacity="0"/>
</linearGradient>
<linearGradient id="paint9_linear_1_22960" x1="2.93005" y1="-3.26491" x2="2.93005" y2="6.90654" gradientUnits="userSpaceOnUse">
<stop stop-color="#AC46D0"/>
<stop offset="1" stop-color="white" stop-opacity="0"/>
</linearGradient>
<linearGradient id="paint10_linear_1_22960" x1="2.93005" y1="-3.26491" x2="2.93005" y2="6.90654" gradientUnits="userSpaceOnUse">
<stop stop-color="#AC46D0"/>
<stop offset="1" stop-color="white" stop-opacity="0"/>
</linearGradient>
<linearGradient id="paint11_linear_1_22960" x1="2.93005" y1="-3.26491" x2="2.93005" y2="6.90654" gradientUnits="userSpaceOnUse">
<stop stop-color="#AC46D0"/>
<stop offset="1" stop-color="white" stop-opacity="0"/>
</linearGradient>
<linearGradient id="paint12_linear_1_22960" x1="2.93005" y1="-3.26491" x2="2.93005" y2="6.90654" gradientUnits="userSpaceOnUse">
<stop stop-color="#AC46D0"/>
<stop offset="1" stop-color="white" stop-opacity="0"/>
</linearGradient>
<linearGradient id="paint13_linear_1_22960" x1="2.93005" y1="-3.26491" x2="2.93005" y2="6.90654" gradientUnits="userSpaceOnUse">
<stop stop-color="#AC46D0"/>
<stop offset="1" stop-color="white" stop-opacity="0"/>
</linearGradient>
<linearGradient id="paint14_linear_1_22960" x1="2.93005" y1="-3.26491" x2="2.93005" y2="6.90654" gradientUnits="userSpaceOnUse">
<stop stop-color="#AC46D0"/>
<stop offset="1" stop-color="white" stop-opacity="0"/>
</linearGradient>
<linearGradient id="paint15_linear_1_22960" x1="2.93005" y1="-3.26491" x2="2.93005" y2="6.90654" gradientUnits="userSpaceOnUse">
<stop stop-color="#AC46D0"/>
<stop offset="1" stop-color="white" stop-opacity="0"/>
</linearGradient>
<linearGradient id="paint16_linear_1_22960" x1="2.93005" y1="-3.26491" x2="2.93005" y2="6.90654" gradientUnits="userSpaceOnUse">
<stop stop-color="#AC46D0"/>
<stop offset="1" stop-color="white" stop-opacity="0"/>
</linearGradient>
<linearGradient id="paint17_linear_1_22960" x1="2.93005" y1="-3.26491" x2="2.93005" y2="6.90654" gradientUnits="userSpaceOnUse">
<stop stop-color="#AC46D0"/>
<stop offset="1" stop-color="white" stop-opacity="0"/>
</linearGradient>
<linearGradient id="paint18_linear_1_22960" x1="2.93005" y1="-3.26491" x2="2.93005" y2="6.90654" gradientUnits="userSpaceOnUse">
<stop stop-color="#AC46D0"/>
<stop offset="1" stop-color="white" stop-opacity="0"/>
</linearGradient>
<linearGradient id="paint19_linear_1_22960" x1="2.93005" y1="-3.26491" x2="2.93005" y2="6.90654" gradientUnits="userSpaceOnUse">
<stop stop-color="#AC46D0"/>
<stop offset="1" stop-color="white" stop-opacity="0"/>
</linearGradient>
<linearGradient id="paint20_linear_1_22960" x1="2.93005" y1="-3.26491" x2="2.93005" y2="6.90654" gradientUnits="userSpaceOnUse">
<stop stop-color="#AC46D0"/>
<stop offset="1" stop-color="white" stop-opacity="0"/>
</linearGradient>
<linearGradient id="paint21_linear_1_22960" x1="2.93005" y1="-3.26491" x2="2.93005" y2="6.90654" gradientUnits="userSpaceOnUse">
<stop stop-color="#AC46D0"/>
<stop offset="1" stop-color="white" stop-opacity="0"/>
</linearGradient>
<linearGradient id="paint22_linear_1_22960" x1="2.93005" y1="-3.26491" x2="2.93005" y2="6.90654" gradientUnits="userSpaceOnUse">
<stop stop-color="#AC46D0"/>
<stop offset="1" stop-color="white" stop-opacity="0"/>
</linearGradient>
<linearGradient id="paint23_linear_1_22960" x1="2.93005" y1="-3.26491" x2="2.93005" y2="6.90654" gradientUnits="userSpaceOnUse">
<stop stop-color="#AC46D0"/>
<stop offset="1" stop-color="white" stop-opacity="0"/>
</linearGradient>
<linearGradient id="paint24_linear_1_22960" x1="2.93005" y1="-3.26491" x2="2.93005" y2="6.90654" gradientUnits="userSpaceOnUse">
<stop stop-color="#AC46D0"/>
<stop offset="1" stop-color="white" stop-opacity="0"/>
</linearGradient>
<linearGradient id="paint25_linear_1_22960" x1="2.93005" y1="-3.26491" x2="2.93005" y2="6.90654" gradientUnits="userSpaceOnUse">
<stop stop-color="#AC46D0"/>
<stop offset="1" stop-color="white" stop-opacity="0"/>
</linearGradient>
<linearGradient id="paint26_linear_1_22960" x1="2.93005" y1="-3.26491" x2="2.93005" y2="6.90654" gradientUnits="userSpaceOnUse">
<stop stop-color="#AC46D0"/>
<stop offset="1" stop-color="white" stop-opacity="0"/>
</linearGradient>
<linearGradient id="paint27_linear_1_22960" x1="2.93005" y1="-3.26491" x2="2.93005" y2="6.90654" gradientUnits="userSpaceOnUse">
<stop stop-color="#AC46D0"/>
<stop offset="1" stop-color="white" stop-opacity="0"/>
</linearGradient>
<linearGradient id="paint28_linear_1_22960" x1="2.93005" y1="-3.26491" x2="2.93005" y2="6.90654" gradientUnits="userSpaceOnUse">
<stop stop-color="#AC46D0"/>
<stop offset="1" stop-color="white" stop-opacity="0"/>
</linearGradient>
<linearGradient id="paint29_linear_1_22960" x1="2.93005" y1="-3.26491" x2="2.93005" y2="6.90654" gradientUnits="userSpaceOnUse">
<stop stop-color="#AC46D0"/>
<stop offset="1" stop-color="white" stop-opacity="0"/>
</linearGradient>
<linearGradient id="paint30_linear_1_22960" x1="2.93005" y1="-3.26491" x2="2.93005" y2="6.90654" gradientUnits="userSpaceOnUse">
<stop stop-color="#AC46D0"/>
<stop offset="1" stop-color="white" stop-opacity="0"/>
</linearGradient>
<linearGradient id="paint31_linear_1_22960" x1="2.93005" y1="-3.26491" x2="2.93005" y2="6.90654" gradientUnits="userSpaceOnUse">
<stop stop-color="#AC46D0"/>
<stop offset="1" stop-color="white" stop-opacity="0"/>
</linearGradient>
<linearGradient id="paint32_linear_1_22960" x1="2.93005" y1="-3.26491" x2="2.93005" y2="6.90654" gradientUnits="userSpaceOnUse">
<stop stop-color="#AC46D0"/>
<stop offset="1" stop-color="white" stop-opacity="0"/>
</linearGradient>
<linearGradient id="paint33_linear_1_22960" x1="2.93005" y1="-3.26491" x2="2.93005" y2="6.90654" gradientUnits="userSpaceOnUse">
<stop stop-color="#AC46D0"/>
<stop offset="1" stop-color="white" stop-opacity="0"/>
</linearGradient>
<linearGradient id="paint34_linear_1_22960" x1="2.93005" y1="-3.26491" x2="2.93005" y2="6.90654" gradientUnits="userSpaceOnUse">
<stop stop-color="#AC46D0"/>
<stop offset="1" stop-color="white" stop-opacity="0"/>
</linearGradient>
<linearGradient id="paint35_linear_1_22960" x1="2.93005" y1="-3.26491" x2="2.93005" y2="6.90654" gradientUnits="userSpaceOnUse">
<stop stop-color="#AC46D0"/>
<stop offset="1" stop-color="white" stop-opacity="0"/>
</linearGradient>
<linearGradient id="paint36_linear_1_22960" x1="2.93005" y1="-3.26491" x2="2.93005" y2="6.90654" gradientUnits="userSpaceOnUse">
<stop stop-color="#AC46D0"/>
<stop offset="1" stop-color="white" stop-opacity="0"/>
</linearGradient>
<linearGradient id="paint37_linear_1_22960" x1="2.93005" y1="-3.26491" x2="2.93005" y2="6.90654" gradientUnits="userSpaceOnUse">
<stop stop-color="#AC46D0"/>
<stop offset="1" stop-color="white" stop-opacity="0"/>
</linearGradient>
<linearGradient id="paint38_linear_1_22960" x1="2.93005" y1="-3.26491" x2="2.93005" y2="6.90654" gradientUnits="userSpaceOnUse">
<stop stop-color="#AC46D0"/>
<stop offset="1" stop-color="white" stop-opacity="0"/>
</linearGradient>
<linearGradient id="paint39_linear_1_22960" x1="2.93005" y1="-3.26491" x2="2.93005" y2="6.90654" gradientUnits="userSpaceOnUse">
<stop stop-color="#AC46D0"/>
<stop offset="1" stop-color="white" stop-opacity="0"/>
</linearGradient>
<linearGradient id="paint40_linear_1_22960" x1="2.93005" y1="-3.26491" x2="2.93005" y2="6.90654" gradientUnits="userSpaceOnUse">
<stop stop-color="#AC46D0"/>
<stop offset="1" stop-color="white" stop-opacity="0"/>
</linearGradient>
<linearGradient id="paint41_linear_1_22960" x1="2.93005" y1="-3.26491" x2="2.93005" y2="6.90654" gradientUnits="userSpaceOnUse">
<stop stop-color="#AC46D0"/>
<stop offset="1" stop-color="white" stop-opacity="0"/>
</linearGradient>
<linearGradient id="paint42_linear_1_22960" x1="2.93005" y1="-3.26491" x2="2.93005" y2="6.90654" gradientUnits="userSpaceOnUse">
<stop stop-color="#AC46D0"/>
<stop offset="1" stop-color="white" stop-opacity="0"/>
</linearGradient>
<linearGradient id="paint43_linear_1_22960" x1="2.93005" y1="-3.26491" x2="2.93005" y2="6.90654" gradientUnits="userSpaceOnUse">
<stop stop-color="#AC46D0"/>
<stop offset="1" stop-color="white" stop-opacity="0"/>
</linearGradient>
<linearGradient id="paint44_linear_1_22960" x1="2.93005" y1="-3.26491" x2="2.93005" y2="6.90654" gradientUnits="userSpaceOnUse">
<stop stop-color="#AC46D0"/>
<stop offset="1" stop-color="white" stop-opacity="0"/>
</linearGradient>
<linearGradient id="paint45_linear_1_22960" x1="2.93005" y1="-3.26491" x2="2.93005" y2="6.90654" gradientUnits="userSpaceOnUse">
<stop stop-color="#AC46D0"/>
<stop offset="1" stop-color="white" stop-opacity="0"/>
</linearGradient>
<linearGradient id="paint46_linear_1_22960" x1="2.93005" y1="-3.26491" x2="2.93005" y2="6.90654" gradientUnits="userSpaceOnUse">
<stop stop-color="#AC46D0"/>
<stop offset="1" stop-color="white" stop-opacity="0"/>
</linearGradient>
<linearGradient id="paint47_linear_1_22960" x1="2.93005" y1="-3.26491" x2="2.93005" y2="6.90654" gradientUnits="userSpaceOnUse">
<stop stop-color="#AC46D0"/>
<stop offset="1" stop-color="white" stop-opacity="0"/>
</linearGradient>
<linearGradient id="paint48_linear_1_22960" x1="2.93005" y1="-3.26491" x2="2.93005" y2="6.90654" gradientUnits="userSpaceOnUse">
<stop stop-color="#AC46D0"/>
<stop offset="1" stop-color="white" stop-opacity="0"/>
</linearGradient>
<linearGradient id="paint49_linear_1_22960" x1="2.93005" y1="-3.26491" x2="2.93005" y2="6.90654" gradientUnits="userSpaceOnUse">
<stop stop-color="#AC46D0"/>
<stop offset="1" stop-color="white" stop-opacity="0"/>
</linearGradient>
<linearGradient id="paint50_linear_1_22960" x1="2.93005" y1="-3.26491" x2="2.93005" y2="6.90654" gradientUnits="userSpaceOnUse">
<stop stop-color="#AC46D0"/>
<stop offset="1" stop-color="white" stop-opacity="0"/>
</linearGradient>
<linearGradient id="paint51_linear_1_22960" x1="2.93005" y1="-3.26491" x2="2.93005" y2="6.90654" gradientUnits="userSpaceOnUse">
<stop stop-color="#AC46D0"/>
<stop offset="1" stop-color="white" stop-opacity="0"/>
</linearGradient>
<linearGradient id="paint52_linear_1_22960" x1="2.93005" y1="-3.26491" x2="2.93005" y2="6.90654" gradientUnits="userSpaceOnUse">
<stop stop-color="#AC46D0"/>
<stop offset="1" stop-color="white" stop-opacity="0"/>
</linearGradient>
<linearGradient id="paint53_linear_1_22960" x1="2.93005" y1="-3.26491" x2="2.93005" y2="6.90654" gradientUnits="userSpaceOnUse">
<stop stop-color="#AC46D0"/>
<stop offset="1" stop-color="white" stop-opacity="0"/>
</linearGradient>
<linearGradient id="paint54_linear_1_22960" x1="2.93005" y1="-3.26491" x2="2.93005" y2="6.90654" gradientUnits="userSpaceOnUse">
<stop stop-color="#AC46D0"/>
<stop offset="1" stop-color="white" stop-opacity="0"/>
</linearGradient>
<linearGradient id="paint55_linear_1_22960" x1="2.93005" y1="-3.26491" x2="2.93005" y2="6.90654" gradientUnits="userSpaceOnUse">
<stop stop-color="#AC46D0"/>
<stop offset="1" stop-color="white" stop-opacity="0"/>
</linearGradient>
<linearGradient id="paint56_linear_1_22960" x1="2.93005" y1="-3.26491" x2="2.93005" y2="6.90654" gradientUnits="userSpaceOnUse">
<stop stop-color="#AC46D0"/>
<stop offset="1" stop-color="white" stop-opacity="0"/>
</linearGradient>
<linearGradient id="paint57_linear_1_22960" x1="2.93005" y1="-3.26491" x2="2.93005" y2="6.90654" gradientUnits="userSpaceOnUse">
<stop stop-color="#AC46D0"/>
<stop offset="1" stop-color="white" stop-opacity="0"/>
</linearGradient>
<linearGradient id="paint58_linear_1_22960" x1="2.93005" y1="-3.26491" x2="2.93005" y2="6.90654" gradientUnits="userSpaceOnUse">
<stop stop-color="#AC46D0"/>
<stop offset="1" stop-color="white" stop-opacity="0"/>
</linearGradient>
<linearGradient id="paint59_linear_1_22960" x1="2.93005" y1="-3.26491" x2="2.93005" y2="6.90654" gradientUnits="userSpaceOnUse">
<stop stop-color="#AC46D0"/>
<stop offset="1" stop-color="white" stop-opacity="0"/>
</linearGradient>
<linearGradient id="paint60_linear_1_22960" x1="2.93005" y1="-3.26491" x2="2.93005" y2="6.90654" gradientUnits="userSpaceOnUse">
<stop stop-color="#AC46D0"/>
<stop offset="1" stop-color="white" stop-opacity="0"/>
</linearGradient>
<linearGradient id="paint61_linear_1_22960" x1="2.93005" y1="-3.26491" x2="2.93005" y2="6.90654" gradientUnits="userSpaceOnUse">
<stop stop-color="#AC46D0"/>
<stop offset="1" stop-color="white" stop-opacity="0"/>
</linearGradient>
<linearGradient id="paint62_linear_1_22960" x1="2.93005" y1="-3.26491" x2="2.93005" y2="6.90654" gradientUnits="userSpaceOnUse">
<stop stop-color="#AC46D0"/>
<stop offset="1" stop-color="white" stop-opacity="0"/>
</linearGradient>
<linearGradient id="paint63_linear_1_22960" x1="2.93005" y1="-3.26491" x2="2.93005" y2="6.90654" gradientUnits="userSpaceOnUse">
<stop stop-color="#AC46D0"/>
<stop offset="1" stop-color="white" stop-opacity="0"/>
</linearGradient>
<linearGradient id="paint64_linear_1_22960" x1="2.93005" y1="-3.26491" x2="2.93005" y2="6.90654" gradientUnits="userSpaceOnUse">
<stop stop-color="#AC46D0"/>
<stop offset="1" stop-color="white" stop-opacity="0"/>
</linearGradient>
<linearGradient id="paint65_linear_1_22960" x1="2.93005" y1="-3.26491" x2="2.93005" y2="6.90654" gradientUnits="userSpaceOnUse">
<stop stop-color="#AC46D0"/>
<stop offset="1" stop-color="white" stop-opacity="0"/>
</linearGradient>
<linearGradient id="paint66_linear_1_22960" x1="2.93005" y1="-3.26491" x2="2.93005" y2="6.90654" gradientUnits="userSpaceOnUse">
<stop stop-color="#AC46D0"/>
<stop offset="1" stop-color="white" stop-opacity="0"/>
</linearGradient>
<linearGradient id="paint67_linear_1_22960" x1="2.93005" y1="-3.26491" x2="2.93005" y2="6.90654" gradientUnits="userSpaceOnUse">
<stop stop-color="#AC46D0"/>
<stop offset="1" stop-color="white" stop-opacity="0"/>
</linearGradient>
<linearGradient id="paint68_linear_1_22960" x1="2.93005" y1="-3.26491" x2="2.93005" y2="6.90654" gradientUnits="userSpaceOnUse">
<stop stop-color="#AC46D0"/>
<stop offset="1" stop-color="white" stop-opacity="0"/>
</linearGradient>
<linearGradient id="paint69_linear_1_22960" x1="2.93005" y1="-3.26491" x2="2.93005" y2="6.90654" gradientUnits="userSpaceOnUse">
<stop stop-color="#AC46D0"/>
<stop offset="1" stop-color="white" stop-opacity="0"/>
</linearGradient>
<linearGradient id="paint70_linear_1_22960" x1="2.93005" y1="-3.26491" x2="2.93005" y2="6.90654" gradientUnits="userSpaceOnUse">
<stop stop-color="#AC46D0"/>
<stop offset="1" stop-color="white" stop-opacity="0"/>
</linearGradient>
<linearGradient id="paint71_linear_1_22960" x1="2.93005" y1="-3.26491" x2="2.93005" y2="6.90654" gradientUnits="userSpaceOnUse">
<stop stop-color="#AC46D0"/>
<stop offset="1" stop-color="white" stop-opacity="0"/>
</linearGradient>
<linearGradient id="paint72_linear_1_22960" x1="2.93005" y1="-3.26491" x2="2.93005" y2="6.90654" gradientUnits="userSpaceOnUse">
<stop stop-color="#AC46D0"/>
<stop offset="1" stop-color="white" stop-opacity="0"/>
</linearGradient>
<linearGradient id="paint73_linear_1_22960" x1="2.93005" y1="-3.26491" x2="2.93005" y2="6.90654" gradientUnits="userSpaceOnUse">
<stop stop-color="#AC46D0"/>
<stop offset="1" stop-color="white" stop-opacity="0"/>
</linearGradient>
<linearGradient id="paint74_linear_1_22960" x1="2.93005" y1="-3.26491" x2="2.93005" y2="6.90654" gradientUnits="userSpaceOnUse">
<stop stop-color="#AC46D0"/>
<stop offset="1" stop-color="white" stop-opacity="0"/>
</linearGradient>
<linearGradient id="paint75_linear_1_22960" x1="2.93005" y1="-3.26491" x2="2.93005" y2="6.90654" gradientUnits="userSpaceOnUse">
<stop stop-color="#AC46D0"/>
<stop offset="1" stop-color="white" stop-opacity="0"/>
</linearGradient>
<linearGradient id="paint76_linear_1_22960" x1="2.93005" y1="-3.26491" x2="2.93005" y2="6.90654" gradientUnits="userSpaceOnUse">
<stop stop-color="#AC46D0"/>
<stop offset="1" stop-color="white" stop-opacity="0"/>
</linearGradient>
<linearGradient id="paint77_linear_1_22960" x1="2.93005" y1="-3.26491" x2="2.93005" y2="6.90654" gradientUnits="userSpaceOnUse">
<stop stop-color="#AC46D0"/>
<stop offset="1" stop-color="white" stop-opacity="0"/>
</linearGradient>
<linearGradient id="paint78_linear_1_22960" x1="2.93005" y1="-3.26491" x2="2.93005" y2="6.90654" gradientUnits="userSpaceOnUse">
<stop stop-color="#AC46D0"/>
<stop offset="1" stop-color="white" stop-opacity="0"/>
</linearGradient>
<linearGradient id="paint79_linear_1_22960" x1="2.93005" y1="-3.26491" x2="2.93005" y2="6.90654" gradientUnits="userSpaceOnUse">
<stop stop-color="#AC46D0"/>
<stop offset="1" stop-color="white" stop-opacity="0"/>
</linearGradient>
<linearGradient id="paint80_linear_1_22960" x1="2.93005" y1="-3.26491" x2="2.93005" y2="6.90654" gradientUnits="userSpaceOnUse">
<stop stop-color="#AC46D0"/>
<stop offset="1" stop-color="white" stop-opacity="0"/>
</linearGradient>
<linearGradient id="paint81_linear_1_22960" x1="2.93005" y1="-3.26491" x2="2.93005" y2="6.90654" gradientUnits="userSpaceOnUse">
<stop stop-color="#AC46D0"/>
<stop offset="1" stop-color="white" stop-opacity="0"/>
</linearGradient>
<linearGradient id="paint82_linear_1_22960" x1="2.93005" y1="-3.26491" x2="2.93005" y2="6.90654" gradientUnits="userSpaceOnUse">
<stop stop-color="#AC46D0"/>
<stop offset="1" stop-color="white" stop-opacity="0"/>
</linearGradient>
<linearGradient id="paint83_linear_1_22960" x1="2.93005" y1="-3.26491" x2="2.93005" y2="6.90654" gradientUnits="userSpaceOnUse">
<stop stop-color="#AC46D0"/>
<stop offset="1" stop-color="white" stop-opacity="0"/>
</linearGradient>
<linearGradient id="paint84_linear_1_22960" x1="2.93005" y1="-3.26491" x2="2.93005" y2="6.90654" gradientUnits="userSpaceOnUse">
<stop stop-color="#AC46D0"/>
<stop offset="1" stop-color="white" stop-opacity="0"/>
</linearGradient>
<linearGradient id="paint85_linear_1_22960" x1="2.93005" y1="-3.26491" x2="2.93005" y2="6.90654" gradientUnits="userSpaceOnUse">
<stop stop-color="#AC46D0"/>
<stop offset="1" stop-color="white" stop-opacity="0"/>
</linearGradient>
<linearGradient id="paint86_linear_1_22960" x1="2.93005" y1="-3.26491" x2="2.93005" y2="6.90654" gradientUnits="userSpaceOnUse">
<stop stop-color="#AC46D0"/>
<stop offset="1" stop-color="white" stop-opacity="0"/>
</linearGradient>
<linearGradient id="paint87_linear_1_22960" x1="2.93005" y1="-3.26491" x2="2.93005" y2="6.90654" gradientUnits="userSpaceOnUse">
<stop stop-color="#AC46D0"/>
<stop offset="1" stop-color="white" stop-opacity="0"/>
</linearGradient>
<linearGradient id="paint88_linear_1_22960" x1="2.93005" y1="-3.26491" x2="2.93005" y2="6.90654" gradientUnits="userSpaceOnUse">
<stop stop-color="#AC46D0"/>
<stop offset="1" stop-color="white" stop-opacity="0"/>
</linearGradient>
<linearGradient id="paint89_linear_1_22960" x1="2.93005" y1="-3.26491" x2="2.93005" y2="6.90654" gradientUnits="userSpaceOnUse">
<stop stop-color="#AC46D0"/>
<stop offset="1" stop-color="white" stop-opacity="0"/>
</linearGradient>
<linearGradient id="paint90_linear_1_22960" x1="2.93005" y1="-3.26491" x2="2.93005" y2="6.90654" gradientUnits="userSpaceOnUse">
<stop stop-color="#AC46D0"/>
<stop offset="1" stop-color="white" stop-opacity="0"/>
</linearGradient>
<linearGradient id="paint91_linear_1_22960" x1="2.93005" y1="-3.26491" x2="2.93005" y2="6.90654" gradientUnits="userSpaceOnUse">
<stop stop-color="#AC46D0"/>
<stop offset="1" stop-color="white" stop-opacity="0"/>
</linearGradient>
<linearGradient id="paint92_linear_1_22960" x1="2.93005" y1="-3.26491" x2="2.93005" y2="6.90654" gradientUnits="userSpaceOnUse">
<stop stop-color="#AC46D0"/>
<stop offset="1" stop-color="white" stop-opacity="0"/>
</linearGradient>
<linearGradient id="paint93_linear_1_22960" x1="2.93005" y1="-3.26491" x2="2.93005" y2="6.90654" gradientUnits="userSpaceOnUse">
<stop stop-color="#AC46D0"/>
<stop offset="1" stop-color="white" stop-opacity="0"/>
</linearGradient>
</defs>
</svg>
