<svg width="45" height="94" viewBox="0 0 45 94" fill="none" xmlns="http://www.w3.org/2000/svg">
<g opacity="0.3">
<circle cx="42.3866" cy="91.847" r="1.66716" transform="rotate(-180 42.3866 91.847)" fill="white"/>
<circle cx="42.3875" cy="81.8442" r="1.66716" transform="rotate(-180 42.3875 81.8442)" fill="white"/>
<circle cx="42.3875" cy="71.8403" r="1.66716" transform="rotate(-180 42.3875 71.8403)" fill="white"/>
<circle cx="42.3866" cy="61.8384" r="1.66716" transform="rotate(-180 42.3866 61.8384)" fill="white"/>
<circle cx="42.3866" cy="51.8353" r="1.66716" transform="rotate(-180 42.3866 51.8353)" fill="white"/>
<circle cx="42.3875" cy="41.8325" r="1.66716" transform="rotate(-180 42.3875 41.8325)" fill="white"/>
<circle cx="42.3875" cy="31.8286" r="1.66716" transform="rotate(-180 42.3875 31.8286)" fill="white"/>
<circle cx="42.3866" cy="21.8267" r="1.66716" transform="rotate(-180 42.3866 21.8267)" fill="white"/>
<circle cx="42.3866" cy="11.8236" r="1.66716" transform="rotate(-180 42.3866 11.8236)" fill="white"/>
<circle cx="42.3866" cy="1.82042" r="1.66716" transform="rotate(-180 42.3866 1.82042)" fill="white"/>
<circle cx="32.3826" cy="91.847" r="1.66716" transform="rotate(-180 32.3826 91.847)" fill="white"/>
<circle cx="32.3836" cy="81.8442" r="1.66716" transform="rotate(-180 32.3836 81.8442)" fill="white"/>
<circle cx="32.3836" cy="71.8403" r="1.66716" transform="rotate(-180 32.3836 71.8403)" fill="white"/>
<circle cx="32.3826" cy="61.8384" r="1.66716" transform="rotate(-180 32.3826 61.8384)" fill="white"/>
<circle cx="32.3826" cy="51.8353" r="1.66716" transform="rotate(-180 32.3826 51.8353)" fill="white"/>
<circle cx="32.3836" cy="41.8325" r="1.66716" transform="rotate(-180 32.3836 41.8325)" fill="white"/>
<circle cx="32.3836" cy="31.8286" r="1.66716" transform="rotate(-180 32.3836 31.8286)" fill="white"/>
<circle cx="32.3826" cy="21.8267" r="1.66716" transform="rotate(-180 32.3826 21.8267)" fill="white"/>
<circle cx="32.3826" cy="11.8236" r="1.66716" transform="rotate(-180 32.3826 11.8236)" fill="white"/>
<circle cx="32.3826" cy="1.82042" r="1.66716" transform="rotate(-180 32.3826 1.82042)" fill="white"/>
<circle cx="32.3826" cy="91.847" r="1.66716" transform="rotate(-180 32.3826 91.847)" fill="white"/>
<circle cx="32.3836" cy="81.8442" r="1.66716" transform="rotate(-180 32.3836 81.8442)" fill="white"/>
<circle cx="32.3836" cy="71.8403" r="1.66716" transform="rotate(-180 32.3836 71.8403)" fill="white"/>
<circle cx="32.3826" cy="61.8384" r="1.66716" transform="rotate(-180 32.3826 61.8384)" fill="white"/>
<circle cx="32.3826" cy="51.8353" r="1.66716" transform="rotate(-180 32.3826 51.8353)" fill="white"/>
<circle cx="32.3836" cy="41.8325" r="1.66716" transform="rotate(-180 32.3836 41.8325)" fill="white"/>
<circle cx="32.3836" cy="31.8286" r="1.66716" transform="rotate(-180 32.3836 31.8286)" fill="white"/>
<circle cx="32.3826" cy="21.8267" r="1.66716" transform="rotate(-180 32.3826 21.8267)" fill="white"/>
<circle cx="32.3826" cy="11.8236" r="1.66716" transform="rotate(-180 32.3826 11.8236)" fill="white"/>
<circle cx="32.3826" cy="1.82042" r="1.66716" transform="rotate(-180 32.3826 1.82042)" fill="white"/>
<circle cx="22.3797" cy="81.8442" r="1.66716" transform="rotate(-180 22.3797 81.8442)" fill="white"/>
<circle cx="22.3797" cy="71.8403" r="1.66716" transform="rotate(-180 22.3797 71.8403)" fill="white"/>
<circle cx="22.3797" cy="61.8384" r="1.66716" transform="rotate(-180 22.3797 61.8384)" fill="white"/>
<circle cx="22.3797" cy="51.8353" r="1.66716" transform="rotate(-180 22.3797 51.8353)" fill="white"/>
<circle cx="22.3797" cy="41.8325" r="1.66716" transform="rotate(-180 22.3797 41.8325)" fill="white"/>
<circle cx="22.3797" cy="31.8286" r="1.66716" transform="rotate(-180 22.3797 31.8286)" fill="white"/>
<circle cx="22.3797" cy="21.8267" r="1.66716" transform="rotate(-180 22.3797 21.8267)" fill="white"/>
<circle cx="22.3797" cy="11.8236" r="1.66716" transform="rotate(-180 22.3797 11.8236)" fill="white"/>
<circle cx="22.3797" cy="1.82042" r="1.66716" transform="rotate(-180 22.3797 1.82042)" fill="white"/>
<circle cx="12.3758" cy="71.8403" r="1.66716" transform="rotate(-180 12.3758 71.8403)" fill="white"/>
<circle cx="12.3758" cy="61.8384" r="1.66716" transform="rotate(-180 12.3758 61.8384)" fill="white"/>
<circle cx="12.3758" cy="51.8353" r="1.66716" transform="rotate(-180 12.3758 51.8353)" fill="white"/>
<circle cx="12.3758" cy="41.8325" r="1.66716" transform="rotate(-180 12.3758 41.8325)" fill="white"/>
<circle cx="12.3758" cy="31.8286" r="1.66716" transform="rotate(-180 12.3758 31.8286)" fill="white"/>
<circle cx="12.3758" cy="21.8267" r="1.66716" transform="rotate(-180 12.3758 21.8267)" fill="white"/>
<circle cx="12.3758" cy="11.8236" r="1.66716" transform="rotate(-180 12.3758 11.8236)" fill="white"/>
<circle cx="2.37288" cy="61.8384" r="1.66716" transform="rotate(-180 2.37288 61.8384)" fill="white"/>
<circle cx="2.37288" cy="51.8353" r="1.66716" transform="rotate(-180 2.37288 51.8353)" fill="white"/>
<circle cx="2.37288" cy="41.8325" r="1.66716" transform="rotate(-180 2.37288 41.8325)" fill="white"/>
<circle cx="2.37288" cy="31.8286" r="1.66716" transform="rotate(-180 2.37288 31.8286)" fill="white"/>
</g>
</svg>
