<svg width="95" height="94" viewBox="0 0 95 94" fill="none" xmlns="http://www.w3.org/2000/svg">
<g opacity="0.3">
<circle cx="92.4002" cy="61.8383" r="1.66716" transform="rotate(-180 92.4002 61.8383)" fill="white"/>
<circle cx="92.4002" cy="51.8352" r="1.66716" transform="rotate(-180 92.4002 51.8352)" fill="white"/>
<circle cx="92.4002" cy="41.8324" r="1.66716" transform="rotate(-180 92.4002 41.8324)" fill="white"/>
<circle cx="92.4002" cy="31.8285" r="1.66716" transform="rotate(-180 92.4002 31.8285)" fill="white"/>
<circle cx="92.4002" cy="21.8266" r="1.66716" transform="rotate(-180 92.4002 21.8266)" fill="white"/>
<circle cx="82.3973" cy="81.8441" r="1.66716" transform="rotate(-180 82.3973 81.8441)" fill="white"/>
<circle cx="82.3973" cy="71.8402" r="1.66716" transform="rotate(-180 82.3973 71.8402)" fill="white"/>
<circle cx="90.3993" cy="71.8402" r="1.66716" transform="rotate(-180 90.3993 71.8402)" fill="white"/>
<circle cx="82.3973" cy="61.8383" r="1.66716" transform="rotate(-180 82.3973 61.8383)" fill="white"/>
<circle cx="82.3973" cy="51.8352" r="1.66716" transform="rotate(-180 82.3973 51.8352)" fill="white"/>
<circle cx="82.3973" cy="41.8324" r="1.66716" transform="rotate(-180 82.3973 41.8324)" fill="white"/>
<circle cx="82.3973" cy="31.8285" r="1.66716" transform="rotate(-180 82.3973 31.8285)" fill="white"/>
<circle cx="82.3973" cy="21.8266" r="1.66716" transform="rotate(-180 82.3973 21.8266)" fill="white"/>
<circle cx="82.3973" cy="11.8234" r="1.66716" transform="rotate(-180 82.3973 11.8234)" fill="white"/>
<circle cx="72.3934" cy="81.8441" r="1.66716" transform="rotate(-180 72.3934 81.8441)" fill="white"/>
<circle cx="72.3934" cy="88.5131" r="1.66716" transform="rotate(-180 72.3934 88.5131)" fill="white"/>
<circle cx="72.3934" cy="71.8402" r="1.66716" transform="rotate(-180 72.3934 71.8402)" fill="white"/>
<circle cx="72.3934" cy="61.8383" r="1.66716" transform="rotate(-180 72.3934 61.8383)" fill="white"/>
<circle cx="72.3934" cy="51.8352" r="1.66716" transform="rotate(-180 72.3934 51.8352)" fill="white"/>
<circle cx="72.3934" cy="41.8324" r="1.66716" transform="rotate(-180 72.3934 41.8324)" fill="white"/>
<circle cx="72.3934" cy="31.8285" r="1.66716" transform="rotate(-180 72.3934 31.8285)" fill="white"/>
<circle cx="72.3934" cy="21.8266" r="1.66716" transform="rotate(-180 72.3934 21.8266)" fill="white"/>
<circle cx="72.3934" cy="11.8234" r="1.66716" transform="rotate(-180 72.3934 11.8234)" fill="white"/>
<circle cx="72.3934" cy="1.82033" r="1.66716" transform="rotate(-180 72.3934 1.82033)" fill="white"/>
<circle cx="62.3905" cy="91.8469" r="1.66716" transform="rotate(-180 62.3905 91.8469)" fill="white"/>
<circle cx="62.3914" cy="81.8441" r="1.66716" transform="rotate(-180 62.3914 81.8441)" fill="white"/>
<circle cx="62.3905" cy="71.8402" r="1.66716" transform="rotate(-180 62.3905 71.8402)" fill="white"/>
<circle cx="62.3905" cy="61.8383" r="1.66716" transform="rotate(-180 62.3905 61.8383)" fill="white"/>
<circle cx="62.3905" cy="51.8352" r="1.66716" transform="rotate(-180 62.3905 51.8352)" fill="white"/>
<circle cx="62.3914" cy="41.8324" r="1.66716" transform="rotate(-180 62.3914 41.8324)" fill="white"/>
<circle cx="62.3905" cy="31.8285" r="1.66716" transform="rotate(-180 62.3905 31.8285)" fill="white"/>
<circle cx="62.3905" cy="21.8266" r="1.66716" transform="rotate(-180 62.3905 21.8266)" fill="white"/>
<circle cx="62.3905" cy="11.8234" r="1.66716" transform="rotate(-180 62.3905 11.8234)" fill="white"/>
<circle cx="62.3905" cy="1.82033" r="1.66716" transform="rotate(-180 62.3905 1.82033)" fill="white"/>
<circle cx="52.3895" cy="91.8469" r="1.66716" transform="rotate(-180 52.3895 91.8469)" fill="white"/>
<circle cx="52.3895" cy="81.8441" r="1.66716" transform="rotate(-180 52.3895 81.8441)" fill="white"/>
<circle cx="52.3895" cy="71.8402" r="1.66716" transform="rotate(-180 52.3895 71.8402)" fill="white"/>
<circle cx="52.3895" cy="61.8383" r="1.66716" transform="rotate(-180 52.3895 61.8383)" fill="white"/>
<circle cx="52.3895" cy="51.8352" r="1.66716" transform="rotate(-180 52.3895 51.8352)" fill="white"/>
<circle cx="52.3895" cy="41.8324" r="1.66716" transform="rotate(-180 52.3895 41.8324)" fill="white"/>
<circle cx="52.3895" cy="31.8285" r="1.66716" transform="rotate(-180 52.3895 31.8285)" fill="white"/>
<circle cx="52.3895" cy="21.8266" r="1.66716" transform="rotate(-180 52.3895 21.8266)" fill="white"/>
<circle cx="52.3895" cy="11.8234" r="1.66716" transform="rotate(-180 52.3895 11.8234)" fill="white"/>
<circle cx="52.3895" cy="1.82033" r="1.66716" transform="rotate(-180 52.3895 1.82033)" fill="white"/>
<circle cx="42.3866" cy="91.8469" r="1.66716" transform="rotate(-180 42.3866 91.8469)" fill="white"/>
<circle cx="42.3875" cy="81.8441" r="1.66716" transform="rotate(-180 42.3875 81.8441)" fill="white"/>
<circle cx="42.3875" cy="71.8402" r="1.66716" transform="rotate(-180 42.3875 71.8402)" fill="white"/>
<circle cx="42.3866" cy="61.8383" r="1.66716" transform="rotate(-180 42.3866 61.8383)" fill="white"/>
<circle cx="42.3866" cy="51.8352" r="1.66716" transform="rotate(-180 42.3866 51.8352)" fill="white"/>
<circle cx="42.3875" cy="41.8324" r="1.66716" transform="rotate(-180 42.3875 41.8324)" fill="white"/>
<circle cx="42.3875" cy="31.8285" r="1.66716" transform="rotate(-180 42.3875 31.8285)" fill="white"/>
<circle cx="42.3866" cy="21.8266" r="1.66716" transform="rotate(-180 42.3866 21.8266)" fill="white"/>
<circle cx="42.3866" cy="11.8234" r="1.66716" transform="rotate(-180 42.3866 11.8234)" fill="white"/>
<circle cx="42.3866" cy="1.82033" r="1.66716" transform="rotate(-180 42.3866 1.82033)" fill="white"/>
<circle cx="32.3826" cy="91.8469" r="1.66716" transform="rotate(-180 32.3826 91.8469)" fill="white"/>
<circle cx="32.3836" cy="81.8441" r="1.66716" transform="rotate(-180 32.3836 81.8441)" fill="white"/>
<circle cx="32.3836" cy="71.8402" r="1.66716" transform="rotate(-180 32.3836 71.8402)" fill="white"/>
<circle cx="32.3826" cy="61.8383" r="1.66716" transform="rotate(-180 32.3826 61.8383)" fill="white"/>
<circle cx="32.3826" cy="51.8352" r="1.66716" transform="rotate(-180 32.3826 51.8352)" fill="white"/>
<circle cx="32.3836" cy="41.8324" r="1.66716" transform="rotate(-180 32.3836 41.8324)" fill="white"/>
<circle cx="32.3836" cy="31.8285" r="1.66716" transform="rotate(-180 32.3836 31.8285)" fill="white"/>
<circle cx="32.3826" cy="21.8266" r="1.66716" transform="rotate(-180 32.3826 21.8266)" fill="white"/>
<circle cx="32.3826" cy="11.8234" r="1.66716" transform="rotate(-180 32.3826 11.8234)" fill="white"/>
<circle cx="32.3826" cy="1.82033" r="1.66716" transform="rotate(-180 32.3826 1.82033)" fill="white"/>
<circle cx="32.3826" cy="91.8469" r="1.66716" transform="rotate(-180 32.3826 91.8469)" fill="white"/>
<circle cx="32.3836" cy="81.8441" r="1.66716" transform="rotate(-180 32.3836 81.8441)" fill="white"/>
<circle cx="32.3836" cy="71.8402" r="1.66716" transform="rotate(-180 32.3836 71.8402)" fill="white"/>
<circle cx="32.3826" cy="61.8383" r="1.66716" transform="rotate(-180 32.3826 61.8383)" fill="white"/>
<circle cx="32.3826" cy="51.8352" r="1.66716" transform="rotate(-180 32.3826 51.8352)" fill="white"/>
<circle cx="32.3836" cy="41.8324" r="1.66716" transform="rotate(-180 32.3836 41.8324)" fill="white"/>
<circle cx="32.3836" cy="31.8285" r="1.66716" transform="rotate(-180 32.3836 31.8285)" fill="white"/>
<circle cx="32.3826" cy="21.8266" r="1.66716" transform="rotate(-180 32.3826 21.8266)" fill="white"/>
<circle cx="32.3826" cy="11.8234" r="1.66716" transform="rotate(-180 32.3826 11.8234)" fill="white"/>
<circle cx="32.3826" cy="1.82033" r="1.66716" transform="rotate(-180 32.3826 1.82033)" fill="white"/>
<circle cx="22.3797" cy="81.8441" r="1.66716" transform="rotate(-180 22.3797 81.8441)" fill="white"/>
<circle cx="22.3797" cy="71.8402" r="1.66716" transform="rotate(-180 22.3797 71.8402)" fill="white"/>
<circle cx="22.3797" cy="61.8383" r="1.66716" transform="rotate(-180 22.3797 61.8383)" fill="white"/>
<circle cx="22.3797" cy="51.8352" r="1.66716" transform="rotate(-180 22.3797 51.8352)" fill="white"/>
<circle cx="22.3797" cy="41.8324" r="1.66716" transform="rotate(-180 22.3797 41.8324)" fill="white"/>
<circle cx="22.3797" cy="31.8285" r="1.66716" transform="rotate(-180 22.3797 31.8285)" fill="white"/>
<circle cx="22.3797" cy="21.8266" r="1.66716" transform="rotate(-180 22.3797 21.8266)" fill="white"/>
<circle cx="22.3797" cy="11.8234" r="1.66716" transform="rotate(-180 22.3797 11.8234)" fill="white"/>
<circle cx="22.3797" cy="1.82033" r="1.66716" transform="rotate(-180 22.3797 1.82033)" fill="white"/>
<circle cx="12.3758" cy="71.8402" r="1.66716" transform="rotate(-180 12.3758 71.8402)" fill="white"/>
<circle cx="12.3758" cy="61.8383" r="1.66716" transform="rotate(-180 12.3758 61.8383)" fill="white"/>
<circle cx="12.3758" cy="51.8352" r="1.66716" transform="rotate(-180 12.3758 51.8352)" fill="white"/>
<circle cx="12.3758" cy="41.8324" r="1.66716" transform="rotate(-180 12.3758 41.8324)" fill="white"/>
<circle cx="12.3758" cy="31.8285" r="1.66716" transform="rotate(-180 12.3758 31.8285)" fill="white"/>
<circle cx="12.3758" cy="21.8266" r="1.66716" transform="rotate(-180 12.3758 21.8266)" fill="white"/>
<circle cx="12.3758" cy="11.8234" r="1.66716" transform="rotate(-180 12.3758 11.8234)" fill="white"/>
<circle cx="2.37288" cy="61.8383" r="1.66716" transform="rotate(-180 2.37288 61.8383)" fill="white"/>
<circle cx="2.37288" cy="51.8352" r="1.66716" transform="rotate(-180 2.37288 51.8352)" fill="white"/>
<circle cx="2.37288" cy="41.8324" r="1.66716" transform="rotate(-180 2.37288 41.8324)" fill="white"/>
<circle cx="2.37288" cy="31.8285" r="1.66716" transform="rotate(-180 2.37288 31.8285)" fill="white"/>
</g>
</svg>
