<svg width="95" height="94" viewBox="0 0 95 94" fill="none" xmlns="http://www.w3.org/2000/svg">
<g opacity="0.3">
<circle cx="92.4012" cy="61.8387" r="1.66716" transform="rotate(-180 92.4012 61.8387)" fill="white"/>
<circle cx="92.4012" cy="51.8358" r="1.66716" transform="rotate(-180 92.4012 51.8358)" fill="white"/>
<circle cx="92.4012" cy="41.8328" r="1.66716" transform="rotate(-180 92.4012 41.8328)" fill="white"/>
<circle cx="92.4012" cy="31.8289" r="1.66716" transform="rotate(-180 92.4012 31.8289)" fill="white"/>
<circle cx="92.4012" cy="21.827" r="1.66716" transform="rotate(-180 92.4012 21.827)" fill="white"/>
<circle cx="82.3983" cy="81.8446" r="1.66716" transform="rotate(-180 82.3983 81.8446)" fill="white"/>
<circle cx="82.3983" cy="71.8407" r="1.66716" transform="rotate(-180 82.3983 71.8407)" fill="white"/>
<circle cx="90.4002" cy="71.8407" r="1.66716" transform="rotate(-180 90.4002 71.8407)" fill="white"/>
<circle cx="82.3983" cy="61.8387" r="1.66716" transform="rotate(-180 82.3983 61.8387)" fill="white"/>
<circle cx="82.3983" cy="51.8358" r="1.66716" transform="rotate(-180 82.3983 51.8358)" fill="white"/>
<circle cx="82.3983" cy="41.8328" r="1.66716" transform="rotate(-180 82.3983 41.8328)" fill="white"/>
<circle cx="82.3983" cy="31.8289" r="1.66716" transform="rotate(-180 82.3983 31.8289)" fill="white"/>
<circle cx="82.3983" cy="21.827" r="1.66716" transform="rotate(-180 82.3983 21.827)" fill="white"/>
<circle cx="82.3983" cy="11.8241" r="1.66716" transform="rotate(-180 82.3983 11.8241)" fill="white"/>
<circle cx="72.3944" cy="81.8446" r="1.66716" transform="rotate(-180 72.3944 81.8446)" fill="white"/>
<circle cx="72.3944" cy="88.5135" r="1.66716" transform="rotate(-180 72.3944 88.5135)" fill="white"/>
<circle cx="72.3944" cy="71.8407" r="1.66716" transform="rotate(-180 72.3944 71.8407)" fill="white"/>
<circle cx="72.3944" cy="61.8387" r="1.66716" transform="rotate(-180 72.3944 61.8387)" fill="white"/>
<circle cx="72.3944" cy="51.8358" r="1.66716" transform="rotate(-180 72.3944 51.8358)" fill="white"/>
<circle cx="72.3944" cy="41.8328" r="1.66716" transform="rotate(-180 72.3944 41.8328)" fill="white"/>
<circle cx="72.3944" cy="31.8289" r="1.66716" transform="rotate(-180 72.3944 31.8289)" fill="white"/>
<circle cx="72.3944" cy="21.827" r="1.66716" transform="rotate(-180 72.3944 21.827)" fill="white"/>
<circle cx="72.3944" cy="11.8241" r="1.66716" transform="rotate(-180 72.3944 11.8241)" fill="white"/>
<circle cx="72.3944" cy="1.82113" r="1.66716" transform="rotate(-180 72.3944 1.82113)" fill="white"/>
<circle cx="62.3914" cy="91.8475" r="1.66716" transform="rotate(-180 62.3914 91.8475)" fill="white"/>
<circle cx="62.3924" cy="81.8446" r="1.66716" transform="rotate(-180 62.3924 81.8446)" fill="white"/>
<circle cx="62.3914" cy="71.8407" r="1.66716" transform="rotate(-180 62.3914 71.8407)" fill="white"/>
<circle cx="62.3914" cy="61.8387" r="1.66716" transform="rotate(-180 62.3914 61.8387)" fill="white"/>
<circle cx="62.3914" cy="51.8358" r="1.66716" transform="rotate(-180 62.3914 51.8358)" fill="white"/>
<circle cx="62.3924" cy="41.8328" r="1.66716" transform="rotate(-180 62.3924 41.8328)" fill="white"/>
<circle cx="62.3914" cy="31.8289" r="1.66716" transform="rotate(-180 62.3914 31.8289)" fill="white"/>
<circle cx="62.3914" cy="21.827" r="1.66716" transform="rotate(-180 62.3914 21.827)" fill="white"/>
<circle cx="62.3914" cy="11.8241" r="1.66716" transform="rotate(-180 62.3914 11.8241)" fill="white"/>
<circle cx="62.3914" cy="1.82113" r="1.66716" transform="rotate(-180 62.3914 1.82113)" fill="white"/>
<circle cx="52.3905" cy="91.8475" r="1.66716" transform="rotate(-180 52.3905 91.8475)" fill="white"/>
<circle cx="52.3905" cy="81.8446" r="1.66716" transform="rotate(-180 52.3905 81.8446)" fill="white"/>
<circle cx="52.3905" cy="71.8407" r="1.66716" transform="rotate(-180 52.3905 71.8407)" fill="white"/>
<circle cx="52.3905" cy="61.8387" r="1.66716" transform="rotate(-180 52.3905 61.8387)" fill="white"/>
<circle cx="52.3905" cy="51.8358" r="1.66716" transform="rotate(-180 52.3905 51.8358)" fill="white"/>
<circle cx="52.3905" cy="41.8328" r="1.66716" transform="rotate(-180 52.3905 41.8328)" fill="white"/>
<circle cx="52.3905" cy="31.8289" r="1.66716" transform="rotate(-180 52.3905 31.8289)" fill="white"/>
<circle cx="52.3905" cy="21.827" r="1.66716" transform="rotate(-180 52.3905 21.827)" fill="white"/>
<circle cx="52.3905" cy="11.8241" r="1.66716" transform="rotate(-180 52.3905 11.8241)" fill="white"/>
<circle cx="52.3905" cy="1.82113" r="1.66716" transform="rotate(-180 52.3905 1.82113)" fill="white"/>
<circle cx="42.3875" cy="91.8475" r="1.66716" transform="rotate(-180 42.3875 91.8475)" fill="white"/>
<circle cx="42.3885" cy="81.8446" r="1.66716" transform="rotate(-180 42.3885 81.8446)" fill="white"/>
<circle cx="42.3885" cy="71.8407" r="1.66716" transform="rotate(-180 42.3885 71.8407)" fill="white"/>
<circle cx="42.3875" cy="61.8387" r="1.66716" transform="rotate(-180 42.3875 61.8387)" fill="white"/>
<circle cx="42.3875" cy="51.8358" r="1.66716" transform="rotate(-180 42.3875 51.8358)" fill="white"/>
<circle cx="42.3885" cy="41.8328" r="1.66716" transform="rotate(-180 42.3885 41.8328)" fill="white"/>
<circle cx="42.3885" cy="31.8289" r="1.66716" transform="rotate(-180 42.3885 31.8289)" fill="white"/>
<circle cx="42.3875" cy="21.827" r="1.66716" transform="rotate(-180 42.3875 21.827)" fill="white"/>
<circle cx="42.3875" cy="11.8241" r="1.66716" transform="rotate(-180 42.3875 11.8241)" fill="white"/>
<circle cx="42.3875" cy="1.82113" r="1.66716" transform="rotate(-180 42.3875 1.82113)" fill="white"/>
<circle cx="32.3836" cy="91.8475" r="1.66716" transform="rotate(-180 32.3836 91.8475)" fill="white"/>
<circle cx="32.3846" cy="81.8446" r="1.66716" transform="rotate(-180 32.3846 81.8446)" fill="white"/>
<circle cx="32.3846" cy="71.8407" r="1.66716" transform="rotate(-180 32.3846 71.8407)" fill="white"/>
<circle cx="32.3836" cy="61.8387" r="1.66716" transform="rotate(-180 32.3836 61.8387)" fill="white"/>
<circle cx="32.3836" cy="51.8358" r="1.66716" transform="rotate(-180 32.3836 51.8358)" fill="white"/>
<circle cx="32.3846" cy="41.8328" r="1.66716" transform="rotate(-180 32.3846 41.8328)" fill="white"/>
<circle cx="32.3846" cy="31.8289" r="1.66716" transform="rotate(-180 32.3846 31.8289)" fill="white"/>
<circle cx="32.3836" cy="21.827" r="1.66716" transform="rotate(-180 32.3836 21.827)" fill="white"/>
<circle cx="32.3836" cy="11.8241" r="1.66716" transform="rotate(-180 32.3836 11.8241)" fill="white"/>
<circle cx="32.3836" cy="1.82113" r="1.66716" transform="rotate(-180 32.3836 1.82113)" fill="white"/>
<circle cx="32.3836" cy="91.8475" r="1.66716" transform="rotate(-180 32.3836 91.8475)" fill="white"/>
<circle cx="32.3846" cy="81.8446" r="1.66716" transform="rotate(-180 32.3846 81.8446)" fill="white"/>
<circle cx="32.3846" cy="71.8407" r="1.66716" transform="rotate(-180 32.3846 71.8407)" fill="white"/>
<circle cx="32.3836" cy="61.8387" r="1.66716" transform="rotate(-180 32.3836 61.8387)" fill="white"/>
<circle cx="32.3836" cy="51.8358" r="1.66716" transform="rotate(-180 32.3836 51.8358)" fill="white"/>
<circle cx="32.3846" cy="41.8328" r="1.66716" transform="rotate(-180 32.3846 41.8328)" fill="white"/>
<circle cx="32.3846" cy="31.8289" r="1.66716" transform="rotate(-180 32.3846 31.8289)" fill="white"/>
<circle cx="32.3836" cy="21.827" r="1.66716" transform="rotate(-180 32.3836 21.827)" fill="white"/>
<circle cx="32.3836" cy="11.8241" r="1.66716" transform="rotate(-180 32.3836 11.8241)" fill="white"/>
<circle cx="32.3836" cy="1.82113" r="1.66716" transform="rotate(-180 32.3836 1.82113)" fill="white"/>
<circle cx="22.3807" cy="81.8446" r="1.66716" transform="rotate(-180 22.3807 81.8446)" fill="white"/>
<circle cx="22.3807" cy="71.8407" r="1.66716" transform="rotate(-180 22.3807 71.8407)" fill="white"/>
<circle cx="22.3807" cy="61.8387" r="1.66716" transform="rotate(-180 22.3807 61.8387)" fill="white"/>
<circle cx="22.3807" cy="51.8358" r="1.66716" transform="rotate(-180 22.3807 51.8358)" fill="white"/>
<circle cx="22.3807" cy="41.8328" r="1.66716" transform="rotate(-180 22.3807 41.8328)" fill="white"/>
<circle cx="22.3807" cy="31.8289" r="1.66716" transform="rotate(-180 22.3807 31.8289)" fill="white"/>
<circle cx="22.3807" cy="21.827" r="1.66716" transform="rotate(-180 22.3807 21.827)" fill="white"/>
<circle cx="22.3807" cy="11.8241" r="1.66716" transform="rotate(-180 22.3807 11.8241)" fill="white"/>
<circle cx="22.3807" cy="1.82113" r="1.66716" transform="rotate(-180 22.3807 1.82113)" fill="white"/>
<circle cx="12.3768" cy="71.8407" r="1.66716" transform="rotate(-180 12.3768 71.8407)" fill="white"/>
<circle cx="12.3768" cy="61.8387" r="1.66716" transform="rotate(-180 12.3768 61.8387)" fill="white"/>
<circle cx="12.3768" cy="51.8358" r="1.66716" transform="rotate(-180 12.3768 51.8358)" fill="white"/>
<circle cx="12.3768" cy="41.8328" r="1.66716" transform="rotate(-180 12.3768 41.8328)" fill="white"/>
<circle cx="12.3768" cy="31.8289" r="1.66716" transform="rotate(-180 12.3768 31.8289)" fill="white"/>
<circle cx="12.3768" cy="21.827" r="1.66716" transform="rotate(-180 12.3768 21.827)" fill="white"/>
<circle cx="12.3768" cy="11.8241" r="1.66716" transform="rotate(-180 12.3768 11.8241)" fill="white"/>
<circle cx="2.37386" cy="61.8387" r="1.66716" transform="rotate(-180 2.37386 61.8387)" fill="white"/>
<circle cx="2.37386" cy="51.8358" r="1.66716" transform="rotate(-180 2.37386 51.8358)" fill="white"/>
<circle cx="2.37386" cy="41.8328" r="1.66716" transform="rotate(-180 2.37386 41.8328)" fill="white"/>
<circle cx="2.37386" cy="31.8289" r="1.66716" transform="rotate(-180 2.37386 31.8289)" fill="white"/>
</g>
</svg>
