<svg width="356" height="457" viewBox="0 0 356 457" fill="none" xmlns="http://www.w3.org/2000/svg">
<g opacity="0.6">
<path opacity="0.4" d="M244.562 162.348L390.186 307.972L390.186 385.94L244.562 240.315V162.348Z" fill="url(#paint0_linear_325_24215)"/>
<path opacity="0.4" d="M244.562 191.279L390.186 336.904L390.186 414.871L244.562 269.247V191.279Z" fill="url(#paint1_linear_325_24215)"/>
<path opacity="0.4" d="M240.935 116.328L296.42 171.814L296.42 201.521L240.935 146.035V116.328Z" fill="#D9D9D9"/>
<path opacity="0.4" d="M293.514 297.804L384.069 388.359L384.069 436.842L293.514 346.287V297.804Z" fill="url(#paint2_linear_325_24215)"/>
<path opacity="0.4" d="M222.691 258.713L322.508 358.529L322.508 411.971L222.691 312.155V258.713Z" fill="url(#paint3_linear_325_24215)"/>
<path opacity="0.4" d="M311.387 189.685L390.064 268.362L390.064 310.485L311.387 231.808L311.387 189.685Z" fill="url(#paint4_linear_325_24215)"/>
<path d="M56.5869 165.992L311.056 420.461" stroke="url(#paint5_linear_325_24215)" stroke-linecap="round"/>
<path d="M124.02 201.531L378.489 456" stroke="url(#paint6_linear_325_24215)" stroke-linecap="round"/>
<path d="M1 16.0898L255.469 270.559" stroke="url(#paint7_linear_325_24215)" stroke-linecap="round"/>
<path d="M110.807 90.3574L365.276 344.826" stroke="url(#paint8_linear_325_24215)" stroke-linecap="round"/>
<path d="M43.8291 -39.9531L298.298 214.516" stroke="url(#paint9_linear_325_24215)" stroke-linecap="round"/>
<path d="M128.121 23.8359L382.59 278.305" stroke="url(#paint10_linear_325_24215)" stroke-linecap="round"/>
<path d="M72.5332 -60L327.002 194.469" stroke="url(#paint11_linear_325_24215)" stroke-linecap="round"/>
</g>
<defs>
<linearGradient id="paint0_linear_325_24215" x1="348.884" y1="242.634" x2="298.551" y2="292.967" gradientUnits="userSpaceOnUse">
<stop stop-color="white"/>
<stop offset="1" stop-color="white" stop-opacity="0"/>
</linearGradient>
<linearGradient id="paint1_linear_325_24215" x1="348.884" y1="271.565" x2="298.551" y2="321.898" gradientUnits="userSpaceOnUse">
<stop stop-color="white"/>
<stop offset="1" stop-color="white" stop-opacity="0"/>
</linearGradient>
<linearGradient id="paint2_linear_325_24215" x1="358.385" y1="347.729" x2="327.086" y2="379.028" gradientUnits="userSpaceOnUse">
<stop stop-color="white"/>
<stop offset="1" stop-color="white" stop-opacity="0"/>
</linearGradient>
<linearGradient id="paint3_linear_325_24215" x1="294.198" y1="313.744" x2="259.698" y2="348.244" gradientUnits="userSpaceOnUse">
<stop stop-color="white"/>
<stop offset="1" stop-color="white" stop-opacity="0"/>
</linearGradient>
<linearGradient id="paint4_linear_325_24215" x1="367.749" y1="233.061" x2="340.556" y2="260.255" gradientUnits="userSpaceOnUse">
<stop stop-color="white"/>
<stop offset="1" stop-color="white" stop-opacity="0"/>
</linearGradient>
<linearGradient id="paint5_linear_325_24215" x1="56.5869" y1="293.226" x2="311.056" y2="293.226" gradientUnits="userSpaceOnUse">
<stop stop-color="#20D9A1"/>
<stop offset="1" stop-color="#5F39FF"/>
</linearGradient>
<linearGradient id="paint6_linear_325_24215" x1="124.02" y1="328.766" x2="378.489" y2="328.766" gradientUnits="userSpaceOnUse">
<stop stop-color="#20D9A1"/>
<stop offset="1" stop-color="#5F39FF"/>
</linearGradient>
<linearGradient id="paint7_linear_325_24215" x1="1" y1="143.324" x2="255.469" y2="143.324" gradientUnits="userSpaceOnUse">
<stop stop-color="#20D9A1"/>
<stop offset="1" stop-color="#5F39FF"/>
</linearGradient>
<linearGradient id="paint8_linear_325_24215" x1="110.807" y1="217.592" x2="365.276" y2="217.592" gradientUnits="userSpaceOnUse">
<stop stop-color="#20D9A1"/>
<stop offset="1" stop-color="#5F39FF"/>
</linearGradient>
<linearGradient id="paint9_linear_325_24215" x1="43.8291" y1="87.2812" x2="298.298" y2="87.2812" gradientUnits="userSpaceOnUse">
<stop stop-color="#20D9A1"/>
<stop offset="1" stop-color="#5F39FF"/>
</linearGradient>
<linearGradient id="paint10_linear_325_24215" x1="128.121" y1="151.07" x2="382.59" y2="151.07" gradientUnits="userSpaceOnUse">
<stop stop-color="#20D9A1"/>
<stop offset="1" stop-color="#5F39FF"/>
</linearGradient>
<linearGradient id="paint11_linear_325_24215" x1="72.5332" y1="67.2343" x2="327.002" y2="67.2343" gradientUnits="userSpaceOnUse">
<stop stop-color="#20D9A1"/>
<stop offset="1" stop-color="#5F39FF"/>
</linearGradient>
</defs>
</svg>
