<svg width="333" height="402" viewBox="0 0 333 402" fill="none" xmlns="http://www.w3.org/2000/svg">
<g opacity="0.3">
<g opacity="0.6">
<path opacity="0.18" d="M189.812 173.363L302.7 286.251L302.7 346.691L189.813 233.803L189.812 173.363Z" fill="url(#paint0_linear_325_22811)"/>
<path opacity="0.18" d="M189.812 195.791L302.7 308.679L302.7 369.118L189.813 256.231L189.812 195.791Z" fill="url(#paint1_linear_325_22811)"/>
<path opacity="0.18" d="M187 137.689L230.012 180.702L230.012 203.73L187 160.718L187 137.689Z" fill="url(#paint2_linear_325_22811)"/>
<path opacity="0.18" d="M227.756 278.367L297.954 348.565L297.954 386.149L227.756 315.951L227.756 278.367Z" fill="url(#paint3_linear_325_22811)"/>
<path opacity="0.18" d="M172.855 248.064L250.233 325.442L250.233 366.869L172.855 289.492L172.855 248.064Z" fill="url(#paint4_linear_325_22811)"/>
<path opacity="0.18" d="M241.608 194.555L302.599 255.545L302.599 288.199L241.608 227.209L241.608 194.555Z" fill="url(#paint5_linear_325_22811)"/>
<path d="M44.0938 176.188L241.357 373.45" stroke="url(#paint6_linear_325_22811)" stroke-linecap="round"/>
<path d="M96.373 203.736L293.636 400.999" stroke="url(#paint7_linear_325_22811)" stroke-linecap="round"/>
<path d="M1 59.9844L198.263 257.247" stroke="url(#paint8_linear_325_22811)" stroke-linecap="round"/>
<path d="M86.1221 117.557L283.385 314.82" stroke="url(#paint9_linear_325_22811)" stroke-linecap="round"/>
<path d="M34.2002 16.5391L231.463 213.802" stroke="url(#paint10_linear_325_22811)" stroke-linecap="round"/>
<path d="M99.542 65.9883L296.805 263.251" stroke="url(#paint11_linear_325_22811)" stroke-linecap="round"/>
<path d="M56.4463 1L253.709 198.263" stroke="url(#paint12_linear_325_22811)" stroke-linecap="round"/>
</g>
</g>
<defs>
<linearGradient id="paint0_linear_325_22811" x1="225.527" y1="251.762" x2="281.553" y2="227.81" gradientUnits="userSpaceOnUse">
<stop stop-color="#705FFF"/>
<stop offset="1" stop-color="#705FFF" stop-opacity="0"/>
</linearGradient>
<linearGradient id="paint1_linear_325_22811" x1="225.527" y1="274.19" x2="281.553" y2="250.238" gradientUnits="userSpaceOnUse">
<stop stop-color="#705FFF"/>
<stop offset="1" stop-color="#705FFF" stop-opacity="0"/>
</linearGradient>
<linearGradient id="paint2_linear_325_22811" x1="200.608" y1="167.561" x2="221.955" y2="158.435" gradientUnits="userSpaceOnUse">
<stop stop-color="#705FFF"/>
<stop offset="1" stop-color="#705FFF" stop-opacity="0"/>
</linearGradient>
<linearGradient id="paint3_linear_325_22811" x1="249.964" y1="327.119" x2="284.804" y2="312.224" gradientUnits="userSpaceOnUse">
<stop stop-color="#705FFF"/>
<stop offset="1" stop-color="#705FFF" stop-opacity="0"/>
</linearGradient>
<linearGradient id="paint4_linear_325_22811" x1="197.335" y1="301.802" x2="235.738" y2="285.384" gradientUnits="userSpaceOnUse">
<stop stop-color="#705FFF"/>
<stop offset="1" stop-color="#705FFF" stop-opacity="0"/>
</linearGradient>
<linearGradient id="paint5_linear_325_22811" x1="260.904" y1="236.911" x2="291.174" y2="223.971" gradientUnits="userSpaceOnUse">
<stop stop-color="#705FFF"/>
<stop offset="1" stop-color="#705FFF" stop-opacity="0"/>
</linearGradient>
<linearGradient id="paint6_linear_325_22811" x1="44.0938" y1="274.819" x2="241.357" y2="274.819" gradientUnits="userSpaceOnUse">
<stop stop-color="#20D9A1"/>
<stop offset="1" stop-color="#5F39FF"/>
</linearGradient>
<linearGradient id="paint7_linear_325_22811" x1="96.3731" y1="302.368" x2="293.636" y2="302.368" gradientUnits="userSpaceOnUse">
<stop stop-color="#20D9A1"/>
<stop offset="1" stop-color="#5F39FF"/>
</linearGradient>
<linearGradient id="paint8_linear_325_22811" x1="1" y1="158.616" x2="198.263" y2="158.616" gradientUnits="userSpaceOnUse">
<stop stop-color="#20D9A1"/>
<stop offset="1" stop-color="#5F39FF"/>
</linearGradient>
<linearGradient id="paint9_linear_325_22811" x1="86.1221" y1="216.188" x2="283.385" y2="216.188" gradientUnits="userSpaceOnUse">
<stop stop-color="#20D9A1"/>
<stop offset="1" stop-color="#5F39FF"/>
</linearGradient>
<linearGradient id="paint10_linear_325_22811" x1="34.2002" y1="115.17" x2="231.463" y2="115.17" gradientUnits="userSpaceOnUse">
<stop stop-color="#20D9A1"/>
<stop offset="1" stop-color="#5F39FF"/>
</linearGradient>
<linearGradient id="paint11_linear_325_22811" x1="99.542" y1="164.62" x2="296.805" y2="164.62" gradientUnits="userSpaceOnUse">
<stop stop-color="#20D9A1"/>
<stop offset="1" stop-color="#5F39FF"/>
</linearGradient>
<linearGradient id="paint12_linear_325_22811" x1="56.4463" y1="99.6313" x2="253.709" y2="99.6313" gradientUnits="userSpaceOnUse">
<stop stop-color="#20D9A1"/>
<stop offset="1" stop-color="#5F39FF"/>
</linearGradient>
</defs>
</svg>
