<svg width="200" height="181" viewBox="0 0 200 181" fill="none" xmlns="http://www.w3.org/2000/svg">
<g opacity="0.3">
<path d="M52.8552 49.7115C57.9756 24.3042 75.2379 15.6535 83.229 14.5042C111.926 9.16687 148.498 44.8075 164.336 64.4726C180.174 84.1377 187.759 111.275 163.826 127.221C139.893 143.167 123.75 166.885 89.748 170.304C55.7456 173.723 28.7298 147.168 24.3427 122.215C19.9556 97.2624 46.4546 81.4706 52.8552 49.7115Z" stroke="url(#paint0_linear_1_5069)"/>
<path d="M51.6132 43.7856C60.9522 17.3521 82.496 9.82756 92.1005 9.36947C126.748 6.44274 165.424 47.6828 181.627 70.0248C197.83 92.3667 203.302 121.841 172.923 136.461C142.545 151.081 120.38 174.677 79.7027 175.067C39.0253 175.456 10.4844 144.752 8.51409 117.896C6.54377 91.0401 39.9395 76.8274 51.6132 43.7856Z" stroke="url(#paint1_linear_1_5069)"/>
<path d="M62.394 54.3417C69.6522 33.7977 86.396 27.9497 93.8606 27.5937C120.788 25.319 150.847 57.3706 163.44 74.7346C176.033 92.0987 180.286 115.006 156.676 126.369C133.066 137.731 115.839 156.07 84.2251 156.373C52.6108 156.675 30.429 132.812 28.8976 111.94C27.3663 91.0677 53.3213 80.0216 62.394 54.3417Z" stroke="url(#paint2_linear_1_5069)"/>
<path d="M67.2605 59.1069C73.5794 41.2216 88.1563 36.1304 94.6549 35.8204C118.098 33.8401 144.267 61.7439 155.23 76.8608C166.193 91.9778 169.896 111.921 149.341 121.813C128.786 131.705 113.789 147.671 86.2664 147.934C58.7433 148.198 39.4321 127.422 38.0989 109.251C36.7658 91.0802 59.3619 81.4636 67.2605 59.1069Z" stroke="url(#paint3_linear_1_5069)"/>
<path d="M71.989 63.737C77.3953 48.4347 89.867 44.0787 95.427 43.8136C115.484 42.1193 137.874 65.9931 147.254 78.9269C156.634 91.8606 159.802 108.923 142.215 117.387C124.629 125.85 111.798 139.51 88.25 139.736C64.7018 139.961 48.1795 122.186 47.0389 106.639C45.8983 91.0927 65.2311 82.8649 71.989 63.737Z" stroke="url(#paint4_linear_1_5069)"/>
<path d="M78.6805 70.2895C82.7953 58.6428 92.2875 55.3275 96.5193 55.1257C111.785 53.8362 128.826 72.0066 135.965 81.8505C143.104 91.6943 145.515 104.681 132.13 111.122C118.745 117.564 108.979 127.96 91.0568 128.132C73.1343 128.304 60.5591 114.775 59.691 102.943C58.8229 91.1099 73.5371 84.8477 78.6805 70.2895Z" stroke="url(#paint5_linear_1_5069)"/>
<path d="M82.8432 74.3649C86.1546 64.9923 93.7935 62.3243 97.199 62.1618C109.484 61.1241 123.198 75.7468 128.943 83.6687C134.688 91.5906 136.628 102.041 125.857 107.225C115.085 112.409 107.226 120.776 92.803 120.914C78.3799 121.052 68.26 110.165 67.5614 100.643C66.8627 91.1202 78.704 86.0807 82.8432 74.3649Z" stroke="url(#paint6_linear_1_5069)"/>
<path d="M86.26 77.7108C88.9119 70.2049 95.0293 68.0683 97.7566 67.9382C107.595 67.1072 118.577 78.8174 123.178 85.1615C127.779 91.5056 129.333 99.8749 120.707 104.026C112.08 108.178 105.787 114.878 94.2362 114.989C82.6856 115.099 74.5813 106.381 74.0219 98.7547C73.4624 91.1289 82.9452 87.0932 86.26 77.7108Z" stroke="url(#paint7_linear_1_5069)"/>
</g>
<defs>
<linearGradient id="paint0_linear_1_5069" x1="21.0828" y1="104.699" x2="175.277" y2="76.0214" gradientUnits="userSpaceOnUse">
<stop stop-color="#20D9A1"/>
<stop offset="1" stop-color="#5F39FF"/>
</linearGradient>
<linearGradient id="paint1_linear_1_5069" x1="6.91767" y1="99.0271" x2="193.082" y2="83.3014" gradientUnits="userSpaceOnUse">
<stop stop-color="#20D9A1"/>
<stop offset="1" stop-color="#5F39FF"/>
</linearGradient>
<linearGradient id="paint2_linear_1_5069" x1="27.6569" y1="97.2751" x2="172.343" y2="85.0532" gradientUnits="userSpaceOnUse">
<stop stop-color="#20D9A1"/>
<stop offset="1" stop-color="#5F39FF"/>
</linearGradient>
<linearGradient id="paint3_linear_1_5069" x1="37.0187" y1="96.4844" x2="162.981" y2="85.8441" gradientUnits="userSpaceOnUse">
<stop stop-color="#20D9A1"/>
<stop offset="1" stop-color="#5F39FF"/>
</linearGradient>
<linearGradient id="paint4_linear_1_5069" x1="46.1147" y1="95.7163" x2="153.885" y2="86.6127" gradientUnits="userSpaceOnUse">
<stop stop-color="#20D9A1"/>
<stop offset="1" stop-color="#5F39FF"/>
</linearGradient>
<linearGradient id="paint5_linear_1_5069" x1="58.9876" y1="94.6289" x2="141.012" y2="87.7002" gradientUnits="userSpaceOnUse">
<stop stop-color="#20D9A1"/>
<stop offset="1" stop-color="#5F39FF"/>
</linearGradient>
<linearGradient id="paint6_linear_1_5069" x1="66.9953" y1="93.9522" x2="133.005" y2="88.3762" gradientUnits="userSpaceOnUse">
<stop stop-color="#20D9A1"/>
<stop offset="1" stop-color="#5F39FF"/>
</linearGradient>
<linearGradient id="paint7_linear_1_5069" x1="73.5685" y1="93.3969" x2="126.431" y2="88.9315" gradientUnits="userSpaceOnUse">
<stop stop-color="#20D9A1"/>
<stop offset="1" stop-color="#5F39FF"/>
</linearGradient>
</defs>
</svg>
