<svg width="100" height="101" viewBox="0 0 100 101" fill="none" xmlns="http://www.w3.org/2000/svg">
<g opacity="0.6">
<circle cx="1.77312" cy="1.77312" r="1.77312" transform="matrix(-4.37114e-08 1 1 4.37114e-08 31.916 0.774658)" fill="url(#paint0_linear_1_19781)"/>
<circle cx="1.77312" cy="1.77312" r="1.77312" transform="matrix(-4.37114e-08 1 1 4.37114e-08 42.5557 0.774658)" fill="url(#paint1_linear_1_19781)"/>
<circle cx="1.77312" cy="1.77312" r="1.77312" transform="matrix(-4.37114e-08 1 1 4.37114e-08 53.1934 0.774414)" fill="url(#paint2_linear_1_19781)"/>
<circle cx="1.77312" cy="1.77312" r="1.77312" transform="matrix(-4.37114e-08 1 1 4.37114e-08 63.833 0.774414)" fill="url(#paint3_linear_1_19781)"/>
<circle cx="1.77312" cy="1.77312" r="1.77312" transform="matrix(-4.37114e-08 1 1 4.37114e-08 74.4707 0.774658)" fill="url(#paint4_linear_1_19781)"/>
<circle cx="1.77312" cy="1.77312" r="1.77312" transform="matrix(-4.37114e-08 1 1 4.37114e-08 10.6387 11.4133)" fill="url(#paint5_linear_1_19781)"/>
<circle cx="1.77312" cy="1.77312" r="1.77312" transform="matrix(-4.37114e-08 1 1 4.37114e-08 21.2773 11.4133)" fill="url(#paint6_linear_1_19781)"/>
<circle cx="1.77312" cy="1.77312" r="1.77312" transform="matrix(-4.37114e-08 1 1 4.37114e-08 21.2773 2.90259)" fill="url(#paint7_linear_1_19781)"/>
<circle cx="1.77312" cy="1.77312" r="1.77312" transform="matrix(-4.37114e-08 1 1 4.37114e-08 31.916 11.4133)" fill="url(#paint8_linear_1_19781)"/>
<circle cx="1.77312" cy="1.77312" r="1.77312" transform="matrix(-4.37114e-08 1 1 4.37114e-08 42.5557 11.4133)" fill="url(#paint9_linear_1_19781)"/>
<circle cx="1.77312" cy="1.77312" r="1.77312" transform="matrix(-4.37114e-08 1 1 4.37114e-08 53.1934 11.4133)" fill="url(#paint10_linear_1_19781)"/>
<circle cx="1.77312" cy="1.77312" r="1.77312" transform="matrix(-4.37114e-08 1 1 4.37114e-08 63.833 11.4133)" fill="url(#paint11_linear_1_19781)"/>
<circle cx="1.77312" cy="1.77312" r="1.77312" transform="matrix(-4.37114e-08 1 1 4.37114e-08 74.4707 11.4133)" fill="url(#paint12_linear_1_19781)"/>
<circle cx="1.77312" cy="1.77312" r="1.77312" transform="matrix(-4.37114e-08 1 1 4.37114e-08 85.1094 11.4133)" fill="url(#paint13_linear_1_19781)"/>
<circle cx="1.77312" cy="1.77312" r="1.77312" transform="matrix(-4.37114e-08 1 1 4.37114e-08 10.6387 22.053)" fill="url(#paint14_linear_1_19781)"/>
<circle cx="1.77312" cy="1.77312" r="1.77312" transform="matrix(-4.37114e-08 1 1 4.37114e-08 3.5459 22.053)" fill="url(#paint15_linear_1_19781)"/>
<circle cx="1.77312" cy="1.77312" r="1.77312" transform="matrix(-4.37114e-08 1 1 4.37114e-08 21.2773 22.053)" fill="url(#paint16_linear_1_19781)"/>
<circle cx="1.77312" cy="1.77312" r="1.77312" transform="matrix(-4.37114e-08 1 1 4.37114e-08 31.916 22.053)" fill="url(#paint17_linear_1_19781)"/>
<circle cx="1.77312" cy="1.77312" r="1.77312" transform="matrix(-4.37114e-08 1 1 4.37114e-08 42.5557 22.053)" fill="url(#paint18_linear_1_19781)"/>
<circle cx="1.77312" cy="1.77312" r="1.77312" transform="matrix(-4.37114e-08 1 1 4.37114e-08 53.1934 22.053)" fill="url(#paint19_linear_1_19781)"/>
<circle cx="1.77312" cy="1.77312" r="1.77312" transform="matrix(-4.37114e-08 1 1 4.37114e-08 63.833 22.053)" fill="url(#paint20_linear_1_19781)"/>
<circle cx="1.77312" cy="1.77312" r="1.77312" transform="matrix(-4.37114e-08 1 1 4.37114e-08 74.4707 22.053)" fill="url(#paint21_linear_1_19781)"/>
<circle cx="1.77312" cy="1.77312" r="1.77312" transform="matrix(-4.37114e-08 1 1 4.37114e-08 85.1094 22.053)" fill="url(#paint22_linear_1_19781)"/>
<circle cx="1.77312" cy="1.77312" r="1.77312" transform="matrix(-4.37114e-08 1 1 4.37114e-08 95.749 22.053)" fill="url(#paint23_linear_1_19781)"/>
<circle cx="1.77312" cy="1.77312" r="1.77312" transform="matrix(-4.37114e-08 1 1 4.37114e-08 0 32.6914)" fill="url(#paint24_linear_1_19781)"/>
<circle cx="1.77312" cy="1.77312" r="1.77312" transform="matrix(-4.37114e-08 1 1 4.37114e-08 10.6387 32.6914)" fill="url(#paint25_linear_1_19781)"/>
<circle cx="1.77312" cy="1.77312" r="1.77312" transform="matrix(-4.37114e-08 1 1 4.37114e-08 21.2773 32.6917)" fill="url(#paint26_linear_1_19781)"/>
<circle cx="1.77312" cy="1.77312" r="1.77312" transform="matrix(-4.37114e-08 1 1 4.37114e-08 31.916 32.6917)" fill="url(#paint27_linear_1_19781)"/>
<circle cx="1.77312" cy="1.77312" r="1.77312" transform="matrix(-4.37114e-08 1 1 4.37114e-08 42.5557 32.6917)" fill="url(#paint28_linear_1_19781)"/>
<circle cx="1.77312" cy="1.77312" r="1.77312" transform="matrix(-4.37114e-08 1 1 4.37114e-08 53.1934 32.6914)" fill="url(#paint29_linear_1_19781)"/>
<circle cx="1.77312" cy="1.77312" r="1.77312" transform="matrix(-4.37114e-08 1 1 4.37114e-08 63.833 32.6914)" fill="url(#paint30_linear_1_19781)"/>
<circle cx="1.77312" cy="1.77312" r="1.77312" transform="matrix(-4.37114e-08 1 1 4.37114e-08 74.4707 32.6917)" fill="url(#paint31_linear_1_19781)"/>
<circle cx="1.77312" cy="1.77312" r="1.77312" transform="matrix(-4.37114e-08 1 1 4.37114e-08 85.1094 32.6917)" fill="url(#paint32_linear_1_19781)"/>
<circle cx="1.77312" cy="1.77312" r="1.77312" transform="matrix(-4.37114e-08 1 1 4.37114e-08 95.749 32.6907)" fill="url(#paint33_linear_1_19781)"/>
<circle cx="1.77312" cy="1.77312" r="1.77312" transform="matrix(-4.37114e-08 1 1 4.37114e-08 0 43.3284)" fill="url(#paint34_linear_1_19781)"/>
<circle cx="1.77312" cy="1.77312" r="1.77312" transform="matrix(-4.37114e-08 1 1 4.37114e-08 10.6387 43.3284)" fill="url(#paint35_linear_1_19781)"/>
<circle cx="1.77312" cy="1.77312" r="1.77312" transform="matrix(-4.37114e-08 1 1 4.37114e-08 21.2773 43.3284)" fill="url(#paint36_linear_1_19781)"/>
<circle cx="1.77312" cy="1.77312" r="1.77312" transform="matrix(-4.37114e-08 1 1 4.37114e-08 31.916 43.3284)" fill="url(#paint37_linear_1_19781)"/>
<circle cx="1.77312" cy="1.77312" r="1.77312" transform="matrix(-4.37114e-08 1 1 4.37114e-08 42.5557 43.3284)" fill="url(#paint38_linear_1_19781)"/>
<circle cx="1.77312" cy="1.77312" r="1.77312" transform="matrix(-4.37114e-08 1 1 4.37114e-08 53.1934 43.3274)" fill="url(#paint39_linear_1_19781)"/>
<circle cx="1.77312" cy="1.77312" r="1.77312" transform="matrix(-4.37114e-08 1 1 4.37114e-08 63.833 43.3274)" fill="url(#paint40_linear_1_19781)"/>
<circle cx="1.77312" cy="1.77312" r="1.77312" transform="matrix(-4.37114e-08 1 1 4.37114e-08 74.4707 43.3284)" fill="url(#paint41_linear_1_19781)"/>
<circle cx="1.77312" cy="1.77312" r="1.77312" transform="matrix(-4.37114e-08 1 1 4.37114e-08 85.1094 43.3284)" fill="url(#paint42_linear_1_19781)"/>
<circle cx="1.77312" cy="1.77312" r="1.77312" transform="matrix(-4.37114e-08 1 1 4.37114e-08 95.749 43.3274)" fill="url(#paint43_linear_1_19781)"/>
<circle cx="1.77312" cy="1.77312" r="1.77312" transform="matrix(-4.37114e-08 1 1 4.37114e-08 0 53.9661)" fill="url(#paint44_linear_1_19781)"/>
<circle cx="1.77312" cy="1.77312" r="1.77312" transform="matrix(-4.37114e-08 1 1 4.37114e-08 10.6387 53.9661)" fill="url(#paint45_linear_1_19781)"/>
<circle cx="1.77312" cy="1.77312" r="1.77312" transform="matrix(-4.37114e-08 1 1 4.37114e-08 21.2773 53.9661)" fill="url(#paint46_linear_1_19781)"/>
<circle cx="1.77312" cy="1.77312" r="1.77312" transform="matrix(-4.37114e-08 1 1 4.37114e-08 31.916 53.9661)" fill="url(#paint47_linear_1_19781)"/>
<circle cx="1.77312" cy="1.77312" r="1.77312" transform="matrix(-4.37114e-08 1 1 4.37114e-08 42.5557 53.9661)" fill="url(#paint48_linear_1_19781)"/>
<circle cx="1.77312" cy="1.77312" r="1.77312" transform="matrix(-4.37114e-08 1 1 4.37114e-08 53.1934 53.9661)" fill="url(#paint49_linear_1_19781)"/>
<circle cx="1.77312" cy="1.77312" r="1.77312" transform="matrix(-4.37114e-08 1 1 4.37114e-08 63.833 53.9661)" fill="url(#paint50_linear_1_19781)"/>
<circle cx="1.77312" cy="1.77312" r="1.77312" transform="matrix(-4.37114e-08 1 1 4.37114e-08 74.4707 53.9661)" fill="url(#paint51_linear_1_19781)"/>
<circle cx="1.77312" cy="1.77312" r="1.77312" transform="matrix(-4.37114e-08 1 1 4.37114e-08 85.1094 53.9661)" fill="url(#paint52_linear_1_19781)"/>
<circle cx="1.77312" cy="1.77312" r="1.77312" transform="matrix(-4.37114e-08 1 1 4.37114e-08 95.749 53.9661)" fill="url(#paint53_linear_1_19781)"/>
<circle cx="1.77312" cy="1.77312" r="1.77312" transform="matrix(-4.37114e-08 1 1 4.37114e-08 0 64.6057)" fill="url(#paint54_linear_1_19781)"/>
<circle cx="1.77312" cy="1.77312" r="1.77312" transform="matrix(-4.37114e-08 1 1 4.37114e-08 10.6387 64.6057)" fill="url(#paint55_linear_1_19781)"/>
<circle cx="1.77312" cy="1.77312" r="1.77312" transform="matrix(-4.37114e-08 1 1 4.37114e-08 21.2773 64.6057)" fill="url(#paint56_linear_1_19781)"/>
<circle cx="1.77312" cy="1.77312" r="1.77312" transform="matrix(-4.37114e-08 1 1 4.37114e-08 31.916 64.6057)" fill="url(#paint57_linear_1_19781)"/>
<circle cx="1.77312" cy="1.77312" r="1.77312" transform="matrix(-4.37114e-08 1 1 4.37114e-08 42.5557 64.6057)" fill="url(#paint58_linear_1_19781)"/>
<circle cx="1.77312" cy="1.77312" r="1.77312" transform="matrix(-4.37114e-08 1 1 4.37114e-08 53.1934 64.6057)" fill="url(#paint59_linear_1_19781)"/>
<circle cx="1.77312" cy="1.77312" r="1.77312" transform="matrix(-4.37114e-08 1 1 4.37114e-08 63.833 64.6057)" fill="url(#paint60_linear_1_19781)"/>
<circle cx="1.77312" cy="1.77312" r="1.77312" transform="matrix(-4.37114e-08 1 1 4.37114e-08 74.4707 64.6057)" fill="url(#paint61_linear_1_19781)"/>
<circle cx="1.77312" cy="1.77312" r="1.77312" transform="matrix(-4.37114e-08 1 1 4.37114e-08 85.1094 64.6057)" fill="url(#paint62_linear_1_19781)"/>
<circle cx="1.77312" cy="1.77312" r="1.77312" transform="matrix(-4.37114e-08 1 1 4.37114e-08 95.749 64.6057)" fill="url(#paint63_linear_1_19781)"/>
<circle cx="1.77312" cy="1.77312" r="1.77312" transform="matrix(-4.37114e-08 1 1 4.37114e-08 0 64.6057)" fill="url(#paint64_linear_1_19781)"/>
<circle cx="1.77312" cy="1.77312" r="1.77312" transform="matrix(-4.37114e-08 1 1 4.37114e-08 10.6387 64.6057)" fill="url(#paint65_linear_1_19781)"/>
<circle cx="1.77312" cy="1.77312" r="1.77312" transform="matrix(-4.37114e-08 1 1 4.37114e-08 21.2773 64.6057)" fill="url(#paint66_linear_1_19781)"/>
<circle cx="1.77312" cy="1.77312" r="1.77312" transform="matrix(-4.37114e-08 1 1 4.37114e-08 31.916 64.6057)" fill="url(#paint67_linear_1_19781)"/>
<circle cx="1.77312" cy="1.77312" r="1.77312" transform="matrix(-4.37114e-08 1 1 4.37114e-08 42.5557 64.6057)" fill="url(#paint68_linear_1_19781)"/>
<circle cx="1.77312" cy="1.77312" r="1.77312" transform="matrix(-4.37114e-08 1 1 4.37114e-08 53.1934 64.6057)" fill="url(#paint69_linear_1_19781)"/>
<circle cx="1.77312" cy="1.77312" r="1.77312" transform="matrix(-4.37114e-08 1 1 4.37114e-08 63.833 64.6057)" fill="url(#paint70_linear_1_19781)"/>
<circle cx="1.77312" cy="1.77312" r="1.77312" transform="matrix(-4.37114e-08 1 1 4.37114e-08 74.4707 64.6057)" fill="url(#paint71_linear_1_19781)"/>
<circle cx="1.77312" cy="1.77312" r="1.77312" transform="matrix(-4.37114e-08 1 1 4.37114e-08 85.1094 64.6057)" fill="url(#paint72_linear_1_19781)"/>
<circle cx="1.77312" cy="1.77312" r="1.77312" transform="matrix(-4.37114e-08 1 1 4.37114e-08 95.749 64.6057)" fill="url(#paint73_linear_1_19781)"/>
<circle cx="1.77312" cy="1.77312" r="1.77312" transform="matrix(-4.37114e-08 1 1 4.37114e-08 10.6387 75.2454)" fill="url(#paint74_linear_1_19781)"/>
<circle cx="1.77312" cy="1.77312" r="1.77312" transform="matrix(-4.37114e-08 1 1 4.37114e-08 21.2773 75.2454)" fill="url(#paint75_linear_1_19781)"/>
<circle cx="1.77312" cy="1.77312" r="1.77312" transform="matrix(-4.37114e-08 1 1 4.37114e-08 31.916 75.2454)" fill="url(#paint76_linear_1_19781)"/>
<circle cx="1.77312" cy="1.77312" r="1.77312" transform="matrix(-4.37114e-08 1 1 4.37114e-08 42.5557 75.2444)" fill="url(#paint77_linear_1_19781)"/>
<circle cx="1.77312" cy="1.77312" r="1.77312" transform="matrix(-4.37114e-08 1 1 4.37114e-08 53.1934 75.2444)" fill="url(#paint78_linear_1_19781)"/>
<circle cx="1.77312" cy="1.77312" r="1.77312" transform="matrix(-4.37114e-08 1 1 4.37114e-08 63.833 75.2444)" fill="url(#paint79_linear_1_19781)"/>
<circle cx="1.77312" cy="1.77312" r="1.77312" transform="matrix(-4.37114e-08 1 1 4.37114e-08 74.4707 75.2444)" fill="url(#paint80_linear_1_19781)"/>
<circle cx="1.77312" cy="1.77312" r="1.77312" transform="matrix(-4.37114e-08 1 1 4.37114e-08 85.1094 75.2444)" fill="url(#paint81_linear_1_19781)"/>
<circle cx="1.77312" cy="1.77312" r="1.77312" transform="matrix(-4.37114e-08 1 1 4.37114e-08 95.749 75.2444)" fill="url(#paint82_linear_1_19781)"/>
<circle cx="1.77312" cy="1.77312" r="1.77312" transform="matrix(-4.37114e-08 1 1 4.37114e-08 21.2773 85.885)" fill="url(#paint83_linear_1_19781)"/>
<circle cx="1.77312" cy="1.77312" r="1.77312" transform="matrix(-4.37114e-08 1 1 4.37114e-08 31.916 85.885)" fill="url(#paint84_linear_1_19781)"/>
<circle cx="1.77312" cy="1.77312" r="1.77312" transform="matrix(-4.37114e-08 1 1 4.37114e-08 42.5557 85.885)" fill="url(#paint85_linear_1_19781)"/>
<circle cx="1.77312" cy="1.77312" r="1.77312" transform="matrix(-4.37114e-08 1 1 4.37114e-08 53.1934 85.885)" fill="url(#paint86_linear_1_19781)"/>
<circle cx="1.77312" cy="1.77312" r="1.77312" transform="matrix(-4.37114e-08 1 1 4.37114e-08 63.833 85.885)" fill="url(#paint87_linear_1_19781)"/>
<circle cx="1.77312" cy="1.77312" r="1.77312" transform="matrix(-4.37114e-08 1 1 4.37114e-08 74.4707 85.885)" fill="url(#paint88_linear_1_19781)"/>
<circle cx="1.77312" cy="1.77312" r="1.77312" transform="matrix(-4.37114e-08 1 1 4.37114e-08 85.1094 85.885)" fill="url(#paint89_linear_1_19781)"/>
<circle cx="1.77312" cy="1.77312" r="1.77312" transform="matrix(-4.37114e-08 1 1 4.37114e-08 31.916 96.5237)" fill="url(#paint90_linear_1_19781)"/>
<circle cx="1.77312" cy="1.77312" r="1.77312" transform="matrix(-4.37114e-08 1 1 4.37114e-08 42.5557 96.5237)" fill="url(#paint91_linear_1_19781)"/>
<circle cx="1.77312" cy="1.77312" r="1.77312" transform="matrix(-4.37114e-08 1 1 4.37114e-08 53.1934 96.5237)" fill="url(#paint92_linear_1_19781)"/>
<circle cx="1.77312" cy="1.77312" r="1.77312" transform="matrix(-4.37114e-08 1 1 4.37114e-08 63.833 96.5237)" fill="url(#paint93_linear_1_19781)"/>
</g>
<defs>
<linearGradient id="paint0_linear_1_19781" x1="1.77312" y1="-1.97576" x2="1.77312" y2="4.17949" gradientUnits="userSpaceOnUse">
<stop stop-color="#AC46D0"/>
<stop offset="1" stop-color="white" stop-opacity="0"/>
</linearGradient>
<linearGradient id="paint1_linear_1_19781" x1="1.77312" y1="-1.97576" x2="1.77312" y2="4.17949" gradientUnits="userSpaceOnUse">
<stop stop-color="#AC46D0"/>
<stop offset="1" stop-color="white" stop-opacity="0"/>
</linearGradient>
<linearGradient id="paint2_linear_1_19781" x1="1.77312" y1="-1.97576" x2="1.77312" y2="4.17949" gradientUnits="userSpaceOnUse">
<stop stop-color="#AC46D0"/>
<stop offset="1" stop-color="white" stop-opacity="0"/>
</linearGradient>
<linearGradient id="paint3_linear_1_19781" x1="1.77312" y1="-1.97576" x2="1.77312" y2="4.17949" gradientUnits="userSpaceOnUse">
<stop stop-color="#AC46D0"/>
<stop offset="1" stop-color="white" stop-opacity="0"/>
</linearGradient>
<linearGradient id="paint4_linear_1_19781" x1="1.77312" y1="-1.97576" x2="1.77312" y2="4.17949" gradientUnits="userSpaceOnUse">
<stop stop-color="#AC46D0"/>
<stop offset="1" stop-color="white" stop-opacity="0"/>
</linearGradient>
<linearGradient id="paint5_linear_1_19781" x1="1.77312" y1="-1.97576" x2="1.77312" y2="4.17949" gradientUnits="userSpaceOnUse">
<stop stop-color="#AC46D0"/>
<stop offset="1" stop-color="white" stop-opacity="0"/>
</linearGradient>
<linearGradient id="paint6_linear_1_19781" x1="1.77312" y1="-1.97576" x2="1.77312" y2="4.17949" gradientUnits="userSpaceOnUse">
<stop stop-color="#AC46D0"/>
<stop offset="1" stop-color="white" stop-opacity="0"/>
</linearGradient>
<linearGradient id="paint7_linear_1_19781" x1="1.77312" y1="-1.97576" x2="1.77312" y2="4.17949" gradientUnits="userSpaceOnUse">
<stop stop-color="#AC46D0"/>
<stop offset="1" stop-color="white" stop-opacity="0"/>
</linearGradient>
<linearGradient id="paint8_linear_1_19781" x1="1.77312" y1="-1.97576" x2="1.77312" y2="4.17949" gradientUnits="userSpaceOnUse">
<stop stop-color="#AC46D0"/>
<stop offset="1" stop-color="white" stop-opacity="0"/>
</linearGradient>
<linearGradient id="paint9_linear_1_19781" x1="1.77312" y1="-1.97576" x2="1.77312" y2="4.17949" gradientUnits="userSpaceOnUse">
<stop stop-color="#AC46D0"/>
<stop offset="1" stop-color="white" stop-opacity="0"/>
</linearGradient>
<linearGradient id="paint10_linear_1_19781" x1="1.77312" y1="-1.97576" x2="1.77312" y2="4.17949" gradientUnits="userSpaceOnUse">
<stop stop-color="#AC46D0"/>
<stop offset="1" stop-color="white" stop-opacity="0"/>
</linearGradient>
<linearGradient id="paint11_linear_1_19781" x1="1.77312" y1="-1.97576" x2="1.77312" y2="4.17949" gradientUnits="userSpaceOnUse">
<stop stop-color="#AC46D0"/>
<stop offset="1" stop-color="white" stop-opacity="0"/>
</linearGradient>
<linearGradient id="paint12_linear_1_19781" x1="1.77312" y1="-1.97576" x2="1.77312" y2="4.17949" gradientUnits="userSpaceOnUse">
<stop stop-color="#AC46D0"/>
<stop offset="1" stop-color="white" stop-opacity="0"/>
</linearGradient>
<linearGradient id="paint13_linear_1_19781" x1="1.77312" y1="-1.97576" x2="1.77312" y2="4.17949" gradientUnits="userSpaceOnUse">
<stop stop-color="#AC46D0"/>
<stop offset="1" stop-color="white" stop-opacity="0"/>
</linearGradient>
<linearGradient id="paint14_linear_1_19781" x1="1.77312" y1="-1.97576" x2="1.77312" y2="4.17949" gradientUnits="userSpaceOnUse">
<stop stop-color="#AC46D0"/>
<stop offset="1" stop-color="white" stop-opacity="0"/>
</linearGradient>
<linearGradient id="paint15_linear_1_19781" x1="1.77312" y1="-1.97576" x2="1.77312" y2="4.17949" gradientUnits="userSpaceOnUse">
<stop stop-color="#AC46D0"/>
<stop offset="1" stop-color="white" stop-opacity="0"/>
</linearGradient>
<linearGradient id="paint16_linear_1_19781" x1="1.77312" y1="-1.97576" x2="1.77312" y2="4.17949" gradientUnits="userSpaceOnUse">
<stop stop-color="#AC46D0"/>
<stop offset="1" stop-color="white" stop-opacity="0"/>
</linearGradient>
<linearGradient id="paint17_linear_1_19781" x1="1.77312" y1="-1.97576" x2="1.77312" y2="4.17949" gradientUnits="userSpaceOnUse">
<stop stop-color="#AC46D0"/>
<stop offset="1" stop-color="white" stop-opacity="0"/>
</linearGradient>
<linearGradient id="paint18_linear_1_19781" x1="1.77312" y1="-1.97576" x2="1.77312" y2="4.17949" gradientUnits="userSpaceOnUse">
<stop stop-color="#AC46D0"/>
<stop offset="1" stop-color="white" stop-opacity="0"/>
</linearGradient>
<linearGradient id="paint19_linear_1_19781" x1="1.77312" y1="-1.97576" x2="1.77312" y2="4.17949" gradientUnits="userSpaceOnUse">
<stop stop-color="#AC46D0"/>
<stop offset="1" stop-color="white" stop-opacity="0"/>
</linearGradient>
<linearGradient id="paint20_linear_1_19781" x1="1.77312" y1="-1.97576" x2="1.77312" y2="4.17949" gradientUnits="userSpaceOnUse">
<stop stop-color="#AC46D0"/>
<stop offset="1" stop-color="white" stop-opacity="0"/>
</linearGradient>
<linearGradient id="paint21_linear_1_19781" x1="1.77312" y1="-1.97576" x2="1.77312" y2="4.17949" gradientUnits="userSpaceOnUse">
<stop stop-color="#AC46D0"/>
<stop offset="1" stop-color="white" stop-opacity="0"/>
</linearGradient>
<linearGradient id="paint22_linear_1_19781" x1="1.77312" y1="-1.97576" x2="1.77312" y2="4.17949" gradientUnits="userSpaceOnUse">
<stop stop-color="#AC46D0"/>
<stop offset="1" stop-color="white" stop-opacity="0"/>
</linearGradient>
<linearGradient id="paint23_linear_1_19781" x1="1.77312" y1="-1.97576" x2="1.77312" y2="4.17949" gradientUnits="userSpaceOnUse">
<stop stop-color="#AC46D0"/>
<stop offset="1" stop-color="white" stop-opacity="0"/>
</linearGradient>
<linearGradient id="paint24_linear_1_19781" x1="1.77312" y1="-1.97576" x2="1.77312" y2="4.17949" gradientUnits="userSpaceOnUse">
<stop stop-color="#AC46D0"/>
<stop offset="1" stop-color="white" stop-opacity="0"/>
</linearGradient>
<linearGradient id="paint25_linear_1_19781" x1="1.77312" y1="-1.97576" x2="1.77312" y2="4.17949" gradientUnits="userSpaceOnUse">
<stop stop-color="#AC46D0"/>
<stop offset="1" stop-color="white" stop-opacity="0"/>
</linearGradient>
<linearGradient id="paint26_linear_1_19781" x1="1.77312" y1="-1.97576" x2="1.77312" y2="4.17949" gradientUnits="userSpaceOnUse">
<stop stop-color="#AC46D0"/>
<stop offset="1" stop-color="white" stop-opacity="0"/>
</linearGradient>
<linearGradient id="paint27_linear_1_19781" x1="1.77312" y1="-1.97576" x2="1.77312" y2="4.17949" gradientUnits="userSpaceOnUse">
<stop stop-color="#AC46D0"/>
<stop offset="1" stop-color="white" stop-opacity="0"/>
</linearGradient>
<linearGradient id="paint28_linear_1_19781" x1="1.77312" y1="-1.97576" x2="1.77312" y2="4.17949" gradientUnits="userSpaceOnUse">
<stop stop-color="#AC46D0"/>
<stop offset="1" stop-color="white" stop-opacity="0"/>
</linearGradient>
<linearGradient id="paint29_linear_1_19781" x1="1.77312" y1="-1.97576" x2="1.77312" y2="4.17949" gradientUnits="userSpaceOnUse">
<stop stop-color="#AC46D0"/>
<stop offset="1" stop-color="white" stop-opacity="0"/>
</linearGradient>
<linearGradient id="paint30_linear_1_19781" x1="1.77312" y1="-1.97576" x2="1.77312" y2="4.17949" gradientUnits="userSpaceOnUse">
<stop stop-color="#AC46D0"/>
<stop offset="1" stop-color="white" stop-opacity="0"/>
</linearGradient>
<linearGradient id="paint31_linear_1_19781" x1="1.77312" y1="-1.97576" x2="1.77312" y2="4.17949" gradientUnits="userSpaceOnUse">
<stop stop-color="#AC46D0"/>
<stop offset="1" stop-color="white" stop-opacity="0"/>
</linearGradient>
<linearGradient id="paint32_linear_1_19781" x1="1.77312" y1="-1.97576" x2="1.77312" y2="4.17949" gradientUnits="userSpaceOnUse">
<stop stop-color="#AC46D0"/>
<stop offset="1" stop-color="white" stop-opacity="0"/>
</linearGradient>
<linearGradient id="paint33_linear_1_19781" x1="1.77312" y1="-1.97576" x2="1.77312" y2="4.17949" gradientUnits="userSpaceOnUse">
<stop stop-color="#AC46D0"/>
<stop offset="1" stop-color="white" stop-opacity="0"/>
</linearGradient>
<linearGradient id="paint34_linear_1_19781" x1="1.77312" y1="-1.97576" x2="1.77312" y2="4.17949" gradientUnits="userSpaceOnUse">
<stop stop-color="#AC46D0"/>
<stop offset="1" stop-color="white" stop-opacity="0"/>
</linearGradient>
<linearGradient id="paint35_linear_1_19781" x1="1.77312" y1="-1.97576" x2="1.77312" y2="4.17949" gradientUnits="userSpaceOnUse">
<stop stop-color="#AC46D0"/>
<stop offset="1" stop-color="white" stop-opacity="0"/>
</linearGradient>
<linearGradient id="paint36_linear_1_19781" x1="1.77312" y1="-1.97576" x2="1.77312" y2="4.17949" gradientUnits="userSpaceOnUse">
<stop stop-color="#AC46D0"/>
<stop offset="1" stop-color="white" stop-opacity="0"/>
</linearGradient>
<linearGradient id="paint37_linear_1_19781" x1="1.77312" y1="-1.97576" x2="1.77312" y2="4.17949" gradientUnits="userSpaceOnUse">
<stop stop-color="#AC46D0"/>
<stop offset="1" stop-color="white" stop-opacity="0"/>
</linearGradient>
<linearGradient id="paint38_linear_1_19781" x1="1.77312" y1="-1.97576" x2="1.77312" y2="4.17949" gradientUnits="userSpaceOnUse">
<stop stop-color="#AC46D0"/>
<stop offset="1" stop-color="white" stop-opacity="0"/>
</linearGradient>
<linearGradient id="paint39_linear_1_19781" x1="1.77312" y1="-1.97576" x2="1.77312" y2="4.17949" gradientUnits="userSpaceOnUse">
<stop stop-color="#AC46D0"/>
<stop offset="1" stop-color="white" stop-opacity="0"/>
</linearGradient>
<linearGradient id="paint40_linear_1_19781" x1="1.77312" y1="-1.97576" x2="1.77312" y2="4.17949" gradientUnits="userSpaceOnUse">
<stop stop-color="#AC46D0"/>
<stop offset="1" stop-color="white" stop-opacity="0"/>
</linearGradient>
<linearGradient id="paint41_linear_1_19781" x1="1.77312" y1="-1.97576" x2="1.77312" y2="4.17949" gradientUnits="userSpaceOnUse">
<stop stop-color="#AC46D0"/>
<stop offset="1" stop-color="white" stop-opacity="0"/>
</linearGradient>
<linearGradient id="paint42_linear_1_19781" x1="1.77312" y1="-1.97576" x2="1.77312" y2="4.17949" gradientUnits="userSpaceOnUse">
<stop stop-color="#AC46D0"/>
<stop offset="1" stop-color="white" stop-opacity="0"/>
</linearGradient>
<linearGradient id="paint43_linear_1_19781" x1="1.77312" y1="-1.97576" x2="1.77312" y2="4.17949" gradientUnits="userSpaceOnUse">
<stop stop-color="#AC46D0"/>
<stop offset="1" stop-color="white" stop-opacity="0"/>
</linearGradient>
<linearGradient id="paint44_linear_1_19781" x1="1.77312" y1="-1.97576" x2="1.77312" y2="4.17949" gradientUnits="userSpaceOnUse">
<stop stop-color="#AC46D0"/>
<stop offset="1" stop-color="white" stop-opacity="0"/>
</linearGradient>
<linearGradient id="paint45_linear_1_19781" x1="1.77312" y1="-1.97576" x2="1.77312" y2="4.17949" gradientUnits="userSpaceOnUse">
<stop stop-color="#AC46D0"/>
<stop offset="1" stop-color="white" stop-opacity="0"/>
</linearGradient>
<linearGradient id="paint46_linear_1_19781" x1="1.77312" y1="-1.97576" x2="1.77312" y2="4.17949" gradientUnits="userSpaceOnUse">
<stop stop-color="#AC46D0"/>
<stop offset="1" stop-color="white" stop-opacity="0"/>
</linearGradient>
<linearGradient id="paint47_linear_1_19781" x1="1.77312" y1="-1.97576" x2="1.77312" y2="4.17949" gradientUnits="userSpaceOnUse">
<stop stop-color="#AC46D0"/>
<stop offset="1" stop-color="white" stop-opacity="0"/>
</linearGradient>
<linearGradient id="paint48_linear_1_19781" x1="1.77312" y1="-1.97576" x2="1.77312" y2="4.17949" gradientUnits="userSpaceOnUse">
<stop stop-color="#AC46D0"/>
<stop offset="1" stop-color="white" stop-opacity="0"/>
</linearGradient>
<linearGradient id="paint49_linear_1_19781" x1="1.77312" y1="-1.97576" x2="1.77312" y2="4.17949" gradientUnits="userSpaceOnUse">
<stop stop-color="#AC46D0"/>
<stop offset="1" stop-color="white" stop-opacity="0"/>
</linearGradient>
<linearGradient id="paint50_linear_1_19781" x1="1.77312" y1="-1.97576" x2="1.77312" y2="4.17949" gradientUnits="userSpaceOnUse">
<stop stop-color="#AC46D0"/>
<stop offset="1" stop-color="white" stop-opacity="0"/>
</linearGradient>
<linearGradient id="paint51_linear_1_19781" x1="1.77312" y1="-1.97576" x2="1.77312" y2="4.17949" gradientUnits="userSpaceOnUse">
<stop stop-color="#AC46D0"/>
<stop offset="1" stop-color="white" stop-opacity="0"/>
</linearGradient>
<linearGradient id="paint52_linear_1_19781" x1="1.77312" y1="-1.97576" x2="1.77312" y2="4.17949" gradientUnits="userSpaceOnUse">
<stop stop-color="#AC46D0"/>
<stop offset="1" stop-color="white" stop-opacity="0"/>
</linearGradient>
<linearGradient id="paint53_linear_1_19781" x1="1.77312" y1="-1.97576" x2="1.77312" y2="4.17949" gradientUnits="userSpaceOnUse">
<stop stop-color="#AC46D0"/>
<stop offset="1" stop-color="white" stop-opacity="0"/>
</linearGradient>
<linearGradient id="paint54_linear_1_19781" x1="1.77312" y1="-1.97576" x2="1.77312" y2="4.17949" gradientUnits="userSpaceOnUse">
<stop stop-color="#AC46D0"/>
<stop offset="1" stop-color="white" stop-opacity="0"/>
</linearGradient>
<linearGradient id="paint55_linear_1_19781" x1="1.77312" y1="-1.97576" x2="1.77312" y2="4.17949" gradientUnits="userSpaceOnUse">
<stop stop-color="#AC46D0"/>
<stop offset="1" stop-color="white" stop-opacity="0"/>
</linearGradient>
<linearGradient id="paint56_linear_1_19781" x1="1.77312" y1="-1.97576" x2="1.77312" y2="4.17949" gradientUnits="userSpaceOnUse">
<stop stop-color="#AC46D0"/>
<stop offset="1" stop-color="white" stop-opacity="0"/>
</linearGradient>
<linearGradient id="paint57_linear_1_19781" x1="1.77312" y1="-1.97576" x2="1.77312" y2="4.17949" gradientUnits="userSpaceOnUse">
<stop stop-color="#AC46D0"/>
<stop offset="1" stop-color="white" stop-opacity="0"/>
</linearGradient>
<linearGradient id="paint58_linear_1_19781" x1="1.77312" y1="-1.97576" x2="1.77312" y2="4.17949" gradientUnits="userSpaceOnUse">
<stop stop-color="#AC46D0"/>
<stop offset="1" stop-color="white" stop-opacity="0"/>
</linearGradient>
<linearGradient id="paint59_linear_1_19781" x1="1.77312" y1="-1.97576" x2="1.77312" y2="4.17949" gradientUnits="userSpaceOnUse">
<stop stop-color="#AC46D0"/>
<stop offset="1" stop-color="white" stop-opacity="0"/>
</linearGradient>
<linearGradient id="paint60_linear_1_19781" x1="1.77312" y1="-1.97576" x2="1.77312" y2="4.17949" gradientUnits="userSpaceOnUse">
<stop stop-color="#AC46D0"/>
<stop offset="1" stop-color="white" stop-opacity="0"/>
</linearGradient>
<linearGradient id="paint61_linear_1_19781" x1="1.77312" y1="-1.97576" x2="1.77312" y2="4.17949" gradientUnits="userSpaceOnUse">
<stop stop-color="#AC46D0"/>
<stop offset="1" stop-color="white" stop-opacity="0"/>
</linearGradient>
<linearGradient id="paint62_linear_1_19781" x1="1.77312" y1="-1.97576" x2="1.77312" y2="4.17949" gradientUnits="userSpaceOnUse">
<stop stop-color="#AC46D0"/>
<stop offset="1" stop-color="white" stop-opacity="0"/>
</linearGradient>
<linearGradient id="paint63_linear_1_19781" x1="1.77312" y1="-1.97576" x2="1.77312" y2="4.17949" gradientUnits="userSpaceOnUse">
<stop stop-color="#AC46D0"/>
<stop offset="1" stop-color="white" stop-opacity="0"/>
</linearGradient>
<linearGradient id="paint64_linear_1_19781" x1="1.77312" y1="-1.97576" x2="1.77312" y2="4.17949" gradientUnits="userSpaceOnUse">
<stop stop-color="#AC46D0"/>
<stop offset="1" stop-color="white" stop-opacity="0"/>
</linearGradient>
<linearGradient id="paint65_linear_1_19781" x1="1.77312" y1="-1.97576" x2="1.77312" y2="4.17949" gradientUnits="userSpaceOnUse">
<stop stop-color="#AC46D0"/>
<stop offset="1" stop-color="white" stop-opacity="0"/>
</linearGradient>
<linearGradient id="paint66_linear_1_19781" x1="1.77312" y1="-1.97576" x2="1.77312" y2="4.17949" gradientUnits="userSpaceOnUse">
<stop stop-color="#AC46D0"/>
<stop offset="1" stop-color="white" stop-opacity="0"/>
</linearGradient>
<linearGradient id="paint67_linear_1_19781" x1="1.77312" y1="-1.97576" x2="1.77312" y2="4.17949" gradientUnits="userSpaceOnUse">
<stop stop-color="#AC46D0"/>
<stop offset="1" stop-color="white" stop-opacity="0"/>
</linearGradient>
<linearGradient id="paint68_linear_1_19781" x1="1.77312" y1="-1.97576" x2="1.77312" y2="4.17949" gradientUnits="userSpaceOnUse">
<stop stop-color="#AC46D0"/>
<stop offset="1" stop-color="white" stop-opacity="0"/>
</linearGradient>
<linearGradient id="paint69_linear_1_19781" x1="1.77312" y1="-1.97576" x2="1.77312" y2="4.17949" gradientUnits="userSpaceOnUse">
<stop stop-color="#AC46D0"/>
<stop offset="1" stop-color="white" stop-opacity="0"/>
</linearGradient>
<linearGradient id="paint70_linear_1_19781" x1="1.77312" y1="-1.97576" x2="1.77312" y2="4.17949" gradientUnits="userSpaceOnUse">
<stop stop-color="#AC46D0"/>
<stop offset="1" stop-color="white" stop-opacity="0"/>
</linearGradient>
<linearGradient id="paint71_linear_1_19781" x1="1.77312" y1="-1.97576" x2="1.77312" y2="4.17949" gradientUnits="userSpaceOnUse">
<stop stop-color="#AC46D0"/>
<stop offset="1" stop-color="white" stop-opacity="0"/>
</linearGradient>
<linearGradient id="paint72_linear_1_19781" x1="1.77312" y1="-1.97576" x2="1.77312" y2="4.17949" gradientUnits="userSpaceOnUse">
<stop stop-color="#AC46D0"/>
<stop offset="1" stop-color="white" stop-opacity="0"/>
</linearGradient>
<linearGradient id="paint73_linear_1_19781" x1="1.77312" y1="-1.97576" x2="1.77312" y2="4.17949" gradientUnits="userSpaceOnUse">
<stop stop-color="#AC46D0"/>
<stop offset="1" stop-color="white" stop-opacity="0"/>
</linearGradient>
<linearGradient id="paint74_linear_1_19781" x1="1.77312" y1="-1.97576" x2="1.77312" y2="4.17949" gradientUnits="userSpaceOnUse">
<stop stop-color="#AC46D0"/>
<stop offset="1" stop-color="white" stop-opacity="0"/>
</linearGradient>
<linearGradient id="paint75_linear_1_19781" x1="1.77312" y1="-1.97576" x2="1.77312" y2="4.17949" gradientUnits="userSpaceOnUse">
<stop stop-color="#AC46D0"/>
<stop offset="1" stop-color="white" stop-opacity="0"/>
</linearGradient>
<linearGradient id="paint76_linear_1_19781" x1="1.77312" y1="-1.97576" x2="1.77312" y2="4.17949" gradientUnits="userSpaceOnUse">
<stop stop-color="#AC46D0"/>
<stop offset="1" stop-color="white" stop-opacity="0"/>
</linearGradient>
<linearGradient id="paint77_linear_1_19781" x1="1.77312" y1="-1.97576" x2="1.77312" y2="4.17949" gradientUnits="userSpaceOnUse">
<stop stop-color="#AC46D0"/>
<stop offset="1" stop-color="white" stop-opacity="0"/>
</linearGradient>
<linearGradient id="paint78_linear_1_19781" x1="1.77312" y1="-1.97576" x2="1.77312" y2="4.17949" gradientUnits="userSpaceOnUse">
<stop stop-color="#AC46D0"/>
<stop offset="1" stop-color="white" stop-opacity="0"/>
</linearGradient>
<linearGradient id="paint79_linear_1_19781" x1="1.77312" y1="-1.97576" x2="1.77312" y2="4.17949" gradientUnits="userSpaceOnUse">
<stop stop-color="#AC46D0"/>
<stop offset="1" stop-color="white" stop-opacity="0"/>
</linearGradient>
<linearGradient id="paint80_linear_1_19781" x1="1.77312" y1="-1.97576" x2="1.77312" y2="4.17949" gradientUnits="userSpaceOnUse">
<stop stop-color="#AC46D0"/>
<stop offset="1" stop-color="white" stop-opacity="0"/>
</linearGradient>
<linearGradient id="paint81_linear_1_19781" x1="1.77312" y1="-1.97576" x2="1.77312" y2="4.17949" gradientUnits="userSpaceOnUse">
<stop stop-color="#AC46D0"/>
<stop offset="1" stop-color="white" stop-opacity="0"/>
</linearGradient>
<linearGradient id="paint82_linear_1_19781" x1="1.77312" y1="-1.97576" x2="1.77312" y2="4.17949" gradientUnits="userSpaceOnUse">
<stop stop-color="#AC46D0"/>
<stop offset="1" stop-color="white" stop-opacity="0"/>
</linearGradient>
<linearGradient id="paint83_linear_1_19781" x1="1.77312" y1="-1.97576" x2="1.77312" y2="4.17949" gradientUnits="userSpaceOnUse">
<stop stop-color="#AC46D0"/>
<stop offset="1" stop-color="white" stop-opacity="0"/>
</linearGradient>
<linearGradient id="paint84_linear_1_19781" x1="1.77312" y1="-1.97576" x2="1.77312" y2="4.17949" gradientUnits="userSpaceOnUse">
<stop stop-color="#AC46D0"/>
<stop offset="1" stop-color="white" stop-opacity="0"/>
</linearGradient>
<linearGradient id="paint85_linear_1_19781" x1="1.77312" y1="-1.97576" x2="1.77312" y2="4.17949" gradientUnits="userSpaceOnUse">
<stop stop-color="#AC46D0"/>
<stop offset="1" stop-color="white" stop-opacity="0"/>
</linearGradient>
<linearGradient id="paint86_linear_1_19781" x1="1.77312" y1="-1.97576" x2="1.77312" y2="4.17949" gradientUnits="userSpaceOnUse">
<stop stop-color="#AC46D0"/>
<stop offset="1" stop-color="white" stop-opacity="0"/>
</linearGradient>
<linearGradient id="paint87_linear_1_19781" x1="1.77312" y1="-1.97576" x2="1.77312" y2="4.17949" gradientUnits="userSpaceOnUse">
<stop stop-color="#AC46D0"/>
<stop offset="1" stop-color="white" stop-opacity="0"/>
</linearGradient>
<linearGradient id="paint88_linear_1_19781" x1="1.77312" y1="-1.97576" x2="1.77312" y2="4.17949" gradientUnits="userSpaceOnUse">
<stop stop-color="#AC46D0"/>
<stop offset="1" stop-color="white" stop-opacity="0"/>
</linearGradient>
<linearGradient id="paint89_linear_1_19781" x1="1.77312" y1="-1.97576" x2="1.77312" y2="4.17949" gradientUnits="userSpaceOnUse">
<stop stop-color="#AC46D0"/>
<stop offset="1" stop-color="white" stop-opacity="0"/>
</linearGradient>
<linearGradient id="paint90_linear_1_19781" x1="1.77312" y1="-1.97576" x2="1.77312" y2="4.17949" gradientUnits="userSpaceOnUse">
<stop stop-color="#AC46D0"/>
<stop offset="1" stop-color="white" stop-opacity="0"/>
</linearGradient>
<linearGradient id="paint91_linear_1_19781" x1="1.77312" y1="-1.97576" x2="1.77312" y2="4.17949" gradientUnits="userSpaceOnUse">
<stop stop-color="#AC46D0"/>
<stop offset="1" stop-color="white" stop-opacity="0"/>
</linearGradient>
<linearGradient id="paint92_linear_1_19781" x1="1.77312" y1="-1.97576" x2="1.77312" y2="4.17949" gradientUnits="userSpaceOnUse">
<stop stop-color="#AC46D0"/>
<stop offset="1" stop-color="white" stop-opacity="0"/>
</linearGradient>
<linearGradient id="paint93_linear_1_19781" x1="1.77312" y1="-1.97576" x2="1.77312" y2="4.17949" gradientUnits="userSpaceOnUse">
<stop stop-color="#AC46D0"/>
<stop offset="1" stop-color="white" stop-opacity="0"/>
</linearGradient>
</defs>
</svg>
