<svg width="933" height="712" viewBox="0 0 933 712" fill="none" xmlns="http://www.w3.org/2000/svg">
<g opacity="0.7">
<g opacity="0.6">
<path opacity="0.4" d="M-237.439 -139L82.1728 180.612V351.732L-237.439 32.1198V-139Z" fill="url(#paint0_linear_478_791)"/>
<path opacity="0.4" d="M-237.439 -75.5L82.1728 244.112V415.232L-237.439 95.6198V-75.5Z" fill="url(#paint1_linear_478_791)"/>
<path opacity="0.4" d="M-130 158.295L68.7476 357.043L68.7476 463.452L-130 264.704V158.295Z" fill="url(#paint2_linear_478_791)"/>
<path opacity="0.4" d="M-90.7744 -79L81.9036 93.678V186.13L-90.7744 13.4515L-90.7744 -79Z" fill="url(#paint3_linear_478_791)"/>
<path d="M-502 -53L56.5 505.5" stroke="url(#paint4_linear_478_791)" stroke-linecap="round"/>
<path d="M-531 -297L27.5 261.5" stroke="url(#paint5_linear_478_791)" stroke-linecap="round"/>
<path d="M-493 -443L65.5 115.5" stroke="url(#paint6_linear_478_791)" stroke-linecap="round"/>
</g>
<g opacity="0.6">
<path opacity="0.4" d="M399.679 -138.799L81.2448 179.635L81.2448 350.124L399.679 31.6901L399.679 -138.799Z" fill="url(#paint7_linear_478_791)"/>
<path opacity="0.4" d="M399.679 -75.5332L81.2448 242.901L81.2448 413.39L399.679 94.9558L399.679 -75.5332Z" fill="url(#paint8_linear_478_791)"/>
<path opacity="0.4" d="M292.635 157.4L94.6199 355.415V461.432L292.635 263.417L292.635 157.4Z" fill="url(#paint9_linear_478_791)"/>
<path opacity="0.4" d="M447.501 71.9209L229.235 290.187L229.235 407.047L447.501 188.78L447.501 71.9209Z" fill="url(#paint10_linear_478_791)"/>
<path opacity="0.4" d="M253.554 -79.0205L81.5122 93.021L81.5123 185.132L253.554 13.0902L253.554 -79.0205Z" fill="url(#paint11_linear_478_791)"/>
<path d="M810.718 -130.828L254.277 425.613" stroke="url(#paint12_linear_478_791)" stroke-linecap="round"/>
<path d="M663.263 -53.1162L106.822 503.325" stroke="url(#paint13_linear_478_791)" stroke-linecap="round"/>
<path d="M932.268 -458.615L375.827 97.8257" stroke="url(#paint14_linear_478_791)" stroke-linecap="round"/>
<path d="M692.156 -296.217L135.715 260.224" stroke="url(#paint15_linear_478_791)" stroke-linecap="round"/>
<path d="M654.296 -441.678L97.8549 114.763" stroke="url(#paint16_linear_478_791)" stroke-linecap="round"/>
</g>
</g>
<g opacity="0.6">
<path opacity="0.4" d="M-64.4385 417.348L81.1863 562.972L81.1863 640.94L-64.4385 495.315V417.348Z" fill="url(#paint17_linear_478_791)"/>
<path opacity="0.4" d="M-64.4385 446.279L81.1863 591.904L81.1863 669.871L-64.4385 524.247V446.279Z" fill="url(#paint18_linear_478_791)"/>
<path opacity="0.4" d="M-68.0654 371.328L-12.5797 426.814L-12.5797 456.521L-68.0654 401.035V371.328Z" fill="#D9D9D9"/>
<path opacity="0.4" d="M-15.4863 552.804L75.0689 643.359L75.0689 691.842L-15.4863 601.287V552.804Z" fill="url(#paint19_linear_478_791)"/>
<path opacity="0.4" d="M-86.3086 513.713L13.508 613.529L13.508 666.971L-86.3086 567.155V513.713Z" fill="url(#paint20_linear_478_791)"/>
<path opacity="0.4" d="M2.38672 444.685L81.0639 523.362L81.0639 565.485L2.38672 486.808L2.38672 444.685Z" fill="url(#paint21_linear_478_791)"/>
<path d="M-252.413 420.992L2.05594 675.461" stroke="url(#paint22_linear_478_791)" stroke-linecap="round"/>
<path d="M-184.98 456.53L69.4886 710.999" stroke="url(#paint23_linear_478_791)" stroke-linecap="round"/>
<path d="M-198.193 345.357L56.2757 599.826" stroke="url(#paint24_linear_478_791)" stroke-linecap="round"/>
<path d="M-180.879 278.836L73.5901 533.305" stroke="url(#paint25_linear_478_791)" stroke-linecap="round"/>
<path d="M-236.467 195L18.0022 449.469" stroke="url(#paint26_linear_478_791)" stroke-linecap="round"/>
</g>
<g opacity="0.6">
<path opacity="0.4" d="M225.852 417.438L80.7637 562.526L80.7637 640.206L225.852 495.118L225.852 417.438Z" fill="url(#paint27_linear_478_791)"/>
<path opacity="0.4" d="M225.852 446.264L80.7637 591.352L80.7637 669.031L225.852 523.943L225.852 446.264Z" fill="url(#paint28_linear_478_791)"/>
<path opacity="0.4" d="M229.466 371.59L174.185 426.871L174.185 456.468L229.466 401.187L229.466 371.59Z" fill="#D9D9D9"/>
<path opacity="0.4" d="M177.08 552.396L86.8587 642.617L86.8587 690.921L177.08 600.7V552.396Z" fill="url(#paint29_linear_478_791)"/>
<path opacity="0.4" d="M247.641 513.449L148.192 612.898L148.192 666.142L247.641 566.694L247.641 513.449Z" fill="url(#paint30_linear_478_791)"/>
<path opacity="0.4" d="M159.272 444.675L80.8853 523.062L80.8853 565.03L159.272 486.643L159.272 444.675Z" fill="url(#paint31_linear_478_791)"/>
<path d="M413.134 421.07L159.603 674.601" stroke="url(#paint32_linear_478_791)" stroke-linecap="round"/>
<path d="M345.947 456.478L92.4164 710.008" stroke="url(#paint33_linear_478_791)" stroke-linecap="round"/>
<path d="M468.515 271.721L214.984 525.252" stroke="url(#paint34_linear_478_791)" stroke-linecap="round"/>
<path d="M359.112 345.715L105.581 599.246" stroke="url(#paint35_linear_478_791)" stroke-linecap="round"/>
<path d="M425.843 215.885L172.312 469.416" stroke="url(#paint36_linear_478_791)" stroke-linecap="round"/>
<path d="M341.863 279.438L88.3324 532.968" stroke="url(#paint37_linear_478_791)" stroke-linecap="round"/>
<path d="M397.244 195.911L143.713 449.442" stroke="url(#paint38_linear_478_791)" stroke-linecap="round"/>
</g>
<defs>
<linearGradient id="paint0_linear_478_791" x1="-8.47615" y1="37.2089" x2="-118.946" y2="147.678" gradientUnits="userSpaceOnUse">
<stop stop-color="white"/>
<stop offset="1" stop-color="white" stop-opacity="0"/>
</linearGradient>
<linearGradient id="paint1_linear_478_791" x1="-8.47615" y1="100.709" x2="-118.946" y2="211.178" gradientUnits="userSpaceOnUse">
<stop stop-color="white"/>
<stop offset="1" stop-color="white" stop-opacity="0"/>
</linearGradient>
<linearGradient id="paint2_linear_478_791" x1="12.3785" y1="267.869" x2="-56.3159" y2="336.563" gradientUnits="userSpaceOnUse">
<stop stop-color="white"/>
<stop offset="1" stop-color="white" stop-opacity="0"/>
</linearGradient>
<linearGradient id="paint3_linear_478_791" x1="32.9284" y1="16.201" x2="-26.7554" y2="75.8848" gradientUnits="userSpaceOnUse">
<stop stop-color="white"/>
<stop offset="1" stop-color="white" stop-opacity="0"/>
</linearGradient>
<linearGradient id="paint4_linear_478_791" x1="-502" y1="226.25" x2="56.5" y2="226.25" gradientUnits="userSpaceOnUse">
<stop stop-color="#20D9A1"/>
<stop offset="1" stop-color="#5F39FF"/>
</linearGradient>
<linearGradient id="paint5_linear_478_791" x1="-531" y1="-17.7505" x2="27.5" y2="-17.7505" gradientUnits="userSpaceOnUse">
<stop stop-color="#20D9A1"/>
<stop offset="1" stop-color="#5F39FF"/>
</linearGradient>
<linearGradient id="paint6_linear_478_791" x1="-493" y1="-163.75" x2="65.5" y2="-163.75" gradientUnits="userSpaceOnUse">
<stop stop-color="#20D9A1"/>
<stop offset="1" stop-color="#5F39FF"/>
</linearGradient>
<linearGradient id="paint7_linear_478_791" x1="171.56" y1="36.7604" x2="281.622" y2="146.823" gradientUnits="userSpaceOnUse">
<stop stop-color="white"/>
<stop offset="1" stop-color="white" stop-opacity="0"/>
</linearGradient>
<linearGradient id="paint8_linear_478_791" x1="171.56" y1="100.026" x2="281.622" y2="210.088" gradientUnits="userSpaceOnUse">
<stop stop-color="white"/>
<stop offset="1" stop-color="white" stop-opacity="0"/>
</linearGradient>
<linearGradient id="paint9_linear_478_791" x1="150.781" y1="266.57" x2="219.222" y2="335.011" gradientUnits="userSpaceOnUse">
<stop stop-color="white"/>
<stop offset="1" stop-color="white" stop-opacity="0"/>
</linearGradient>
<linearGradient id="paint10_linear_478_791" x1="291.14" y1="192.256" x2="366.58" y2="267.696" gradientUnits="userSpaceOnUse">
<stop stop-color="white"/>
<stop offset="1" stop-color="white" stop-opacity="0"/>
</linearGradient>
<linearGradient id="paint11_linear_478_791" x1="130.307" y1="15.8295" x2="189.771" y2="75.2933" gradientUnits="userSpaceOnUse">
<stop stop-color="white"/>
<stop offset="1" stop-color="white" stop-opacity="0"/>
</linearGradient>
<linearGradient id="paint12_linear_478_791" x1="810.718" y1="147.392" x2="254.277" y2="147.392" gradientUnits="userSpaceOnUse">
<stop stop-color="#20D9A1"/>
<stop offset="1" stop-color="#5F39FF"/>
</linearGradient>
<linearGradient id="paint13_linear_478_791" x1="663.263" y1="225.104" x2="106.822" y2="225.104" gradientUnits="userSpaceOnUse">
<stop stop-color="#20D9A1"/>
<stop offset="1" stop-color="#5F39FF"/>
</linearGradient>
<linearGradient id="paint14_linear_478_791" x1="932.268" y1="-180.395" x2="375.827" y2="-180.395" gradientUnits="userSpaceOnUse">
<stop stop-color="#20D9A1"/>
<stop offset="1" stop-color="#5F39FF"/>
</linearGradient>
<linearGradient id="paint15_linear_478_791" x1="692.156" y1="-17.9968" x2="135.715" y2="-17.9968" gradientUnits="userSpaceOnUse">
<stop stop-color="#20D9A1"/>
<stop offset="1" stop-color="#5F39FF"/>
</linearGradient>
<linearGradient id="paint16_linear_478_791" x1="654.296" y1="-163.458" x2="97.8549" y2="-163.458" gradientUnits="userSpaceOnUse">
<stop stop-color="#20D9A1"/>
<stop offset="1" stop-color="#5F39FF"/>
</linearGradient>
<linearGradient id="paint17_linear_478_791" x1="39.8839" y1="497.634" x2="-10.4492" y2="547.967" gradientUnits="userSpaceOnUse">
<stop stop-color="white"/>
<stop offset="1" stop-color="white" stop-opacity="0"/>
</linearGradient>
<linearGradient id="paint18_linear_478_791" x1="39.8839" y1="526.565" x2="-10.4492" y2="576.898" gradientUnits="userSpaceOnUse">
<stop stop-color="white"/>
<stop offset="1" stop-color="white" stop-opacity="0"/>
</linearGradient>
<linearGradient id="paint19_linear_478_791" x1="49.3855" y1="602.729" x2="18.0863" y2="634.028" gradientUnits="userSpaceOnUse">
<stop stop-color="white"/>
<stop offset="1" stop-color="white" stop-opacity="0"/>
</linearGradient>
<linearGradient id="paint20_linear_478_791" x1="-14.8021" y1="568.744" x2="-49.3024" y2="603.244" gradientUnits="userSpaceOnUse">
<stop stop-color="white"/>
<stop offset="1" stop-color="white" stop-opacity="0"/>
</linearGradient>
<linearGradient id="paint21_linear_478_791" x1="58.7494" y1="488.061" x2="31.5557" y2="515.255" gradientUnits="userSpaceOnUse">
<stop stop-color="white"/>
<stop offset="1" stop-color="white" stop-opacity="0"/>
</linearGradient>
<linearGradient id="paint22_linear_478_791" x1="-252.413" y1="548.226" x2="2.05594" y2="548.226" gradientUnits="userSpaceOnUse">
<stop stop-color="#20D9A1"/>
<stop offset="1" stop-color="#5F39FF"/>
</linearGradient>
<linearGradient id="paint23_linear_478_791" x1="-184.98" y1="583.765" x2="69.4886" y2="583.765" gradientUnits="userSpaceOnUse">
<stop stop-color="#20D9A1"/>
<stop offset="1" stop-color="#5F39FF"/>
</linearGradient>
<linearGradient id="paint24_linear_478_791" x1="-198.193" y1="472.592" x2="56.2757" y2="472.592" gradientUnits="userSpaceOnUse">
<stop stop-color="#20D9A1"/>
<stop offset="1" stop-color="#5F39FF"/>
</linearGradient>
<linearGradient id="paint25_linear_478_791" x1="-180.879" y1="406.07" x2="73.5901" y2="406.07" gradientUnits="userSpaceOnUse">
<stop stop-color="#20D9A1"/>
<stop offset="1" stop-color="#5F39FF"/>
</linearGradient>
<linearGradient id="paint26_linear_478_791" x1="-236.467" y1="322.234" x2="18.0022" y2="322.234" gradientUnits="userSpaceOnUse">
<stop stop-color="#20D9A1"/>
<stop offset="1" stop-color="#5F39FF"/>
</linearGradient>
<linearGradient id="paint27_linear_478_791" x1="121.914" y1="497.428" x2="172.061" y2="547.576" gradientUnits="userSpaceOnUse">
<stop stop-color="white"/>
<stop offset="1" stop-color="white" stop-opacity="0"/>
</linearGradient>
<linearGradient id="paint28_linear_478_791" x1="121.914" y1="526.254" x2="172.061" y2="576.401" gradientUnits="userSpaceOnUse">
<stop stop-color="white"/>
<stop offset="1" stop-color="white" stop-opacity="0"/>
</linearGradient>
<linearGradient id="paint29_linear_478_791" x1="112.447" y1="602.136" x2="143.631" y2="633.32" gradientUnits="userSpaceOnUse">
<stop stop-color="white"/>
<stop offset="1" stop-color="white" stop-opacity="0"/>
</linearGradient>
<linearGradient id="paint30_linear_478_791" x1="176.398" y1="568.277" x2="210.771" y2="602.65" gradientUnits="userSpaceOnUse">
<stop stop-color="white"/>
<stop offset="1" stop-color="white" stop-opacity="0"/>
</linearGradient>
<linearGradient id="paint31_linear_478_791" x1="103.118" y1="487.891" x2="130.211" y2="514.985" gradientUnits="userSpaceOnUse">
<stop stop-color="white"/>
<stop offset="1" stop-color="white" stop-opacity="0"/>
</linearGradient>
<linearGradient id="paint32_linear_478_791" x1="413.134" y1="547.836" x2="159.603" y2="547.836" gradientUnits="userSpaceOnUse">
<stop stop-color="#20D9A1"/>
<stop offset="1" stop-color="#5F39FF"/>
</linearGradient>
<linearGradient id="paint33_linear_478_791" x1="345.947" y1="583.243" x2="92.4164" y2="583.243" gradientUnits="userSpaceOnUse">
<stop stop-color="#20D9A1"/>
<stop offset="1" stop-color="#5F39FF"/>
</linearGradient>
<linearGradient id="paint34_linear_478_791" x1="468.515" y1="398.486" x2="214.984" y2="398.486" gradientUnits="userSpaceOnUse">
<stop stop-color="#20D9A1"/>
<stop offset="1" stop-color="#5F39FF"/>
</linearGradient>
<linearGradient id="paint35_linear_478_791" x1="359.112" y1="472.48" x2="105.581" y2="472.48" gradientUnits="userSpaceOnUse">
<stop stop-color="#20D9A1"/>
<stop offset="1" stop-color="#5F39FF"/>
</linearGradient>
<linearGradient id="paint36_linear_478_791" x1="425.843" y1="342.65" x2="172.312" y2="342.65" gradientUnits="userSpaceOnUse">
<stop stop-color="#20D9A1"/>
<stop offset="1" stop-color="#5F39FF"/>
</linearGradient>
<linearGradient id="paint37_linear_478_791" x1="341.863" y1="406.203" x2="88.3324" y2="406.203" gradientUnits="userSpaceOnUse">
<stop stop-color="#20D9A1"/>
<stop offset="1" stop-color="#5F39FF"/>
</linearGradient>
<linearGradient id="paint38_linear_478_791" x1="397.244" y1="322.676" x2="143.713" y2="322.676" gradientUnits="userSpaceOnUse">
<stop stop-color="#20D9A1"/>
<stop offset="1" stop-color="#5F39FF"/>
</linearGradient>
</defs>
</svg>
