<svg width="129" height="117" viewBox="0 0 129 117" fill="none" xmlns="http://www.w3.org/2000/svg">
<g opacity="0.3">
<path d="M33.9834 31.9622C37.2756 15.6265 48.3745 10.0645 53.5124 9.32552C71.9634 5.8939 95.4776 28.8092 105.661 41.4529C115.844 54.0967 120.72 71.5445 105.333 81.7971C89.945 92.0496 79.5657 107.299 57.7038 109.497C35.8419 111.696 18.4719 94.6221 15.6512 78.5786C12.8305 62.5352 29.8682 52.3818 33.9834 31.9622Z" stroke="url(#paint0_linear_1_5078)"/>
<path d="M33.1849 28.1521C39.1894 11.1566 53.0411 6.31872 59.2163 6.02419C81.4929 4.14244 106.36 30.6579 116.778 45.0227C127.196 59.3875 130.714 78.338 111.182 87.7381C91.6496 97.1382 77.3988 112.309 51.2451 112.56C25.0915 112.81 6.74099 93.0686 5.47416 75.8016C4.20734 58.5346 25.6792 49.3965 33.1849 28.1521Z" stroke="url(#paint1_linear_1_5078)"/>
<path d="M40.1166 34.9392C44.7832 21.7304 55.5487 17.9704 60.3481 17.7415C77.6613 16.279 96.9879 36.8867 105.085 48.051C113.181 59.2152 115.916 73.9435 100.735 81.2492C85.555 88.5549 74.4794 100.346 54.1529 100.54C33.8264 100.735 19.5645 85.392 18.5799 71.9722C17.5954 58.5524 34.2832 51.4503 40.1166 34.9392Z" stroke="url(#paint2_linear_1_5078)"/>
<path d="M43.2455 38.0029C47.3082 26.5034 56.6805 23.23 60.8588 23.0307C75.9315 21.7575 92.7571 39.6983 99.8059 49.4178C106.855 59.1373 109.235 71.9595 96.0195 78.3198C82.8037 84.6801 73.1614 94.9451 55.4653 95.1146C37.7693 95.284 25.3531 81.9265 24.4959 70.2434C23.6388 58.5602 38.167 52.3772 43.2455 38.0029Z" stroke="url(#paint3_linear_1_5078)"/>
<path d="M46.2857 40.9798C49.7617 31.1411 57.7804 28.3405 61.3553 28.17C74.2512 27.0806 88.6467 42.4304 94.6776 50.7462C100.708 59.062 102.745 70.0324 91.438 75.4741C80.1308 80.9158 71.8811 89.6984 56.7407 89.8434C41.6004 89.9883 30.9773 78.5599 30.2439 68.5641C29.5106 58.5682 41.9406 53.2782 46.2857 40.9798Z" stroke="url(#paint4_linear_1_5078)"/>
<path d="M50.5878 45.1925C53.2334 37.7043 59.3365 35.5727 62.0573 35.4429C71.8724 34.6138 82.8289 46.2965 87.419 52.6257C92.009 58.9549 93.5592 67.3045 84.9533 71.4462C76.3474 75.5878 70.0685 82.2723 58.5452 82.3826C47.0219 82.4929 38.9366 73.7948 38.3785 66.1869C37.8203 58.5791 47.2808 54.5528 50.5878 45.1925Z" stroke="url(#paint5_linear_1_5078)"/>
<path d="M53.2643 47.8131C55.3934 41.787 60.3048 40.0716 62.4944 39.9671C70.3931 39.2999 79.2104 48.7016 82.9043 53.795C86.5982 58.8884 87.8457 65.6078 80.92 68.9408C73.9944 72.2739 68.9415 77.6532 59.668 77.742C50.3946 77.8307 43.888 70.8309 43.4388 64.7084C42.9896 58.586 50.603 55.3459 53.2643 47.8131Z" stroke="url(#paint6_linear_1_5078)"/>
<path d="M55.4611 49.9643C57.1661 45.1384 61.0993 43.7646 62.8528 43.681C69.1783 43.1467 76.2395 50.6759 79.1976 54.7548C82.1558 58.8338 83.1549 64.2148 77.6086 66.884C72.0624 69.5532 68.0158 73.8611 60.5894 73.9322C53.1629 74.0033 47.9522 68.3976 47.5925 63.4946C47.2328 58.5916 53.3298 55.9968 55.4611 49.9643Z" stroke="url(#paint7_linear_1_5078)"/>
</g>
<defs>
<linearGradient id="paint0_linear_1_5078" x1="13.5553" y1="67.3168" x2="112.695" y2="48.8782" gradientUnits="userSpaceOnUse">
<stop stop-color="#20D9A1"/>
<stop offset="1" stop-color="#5F39FF"/>
</linearGradient>
<linearGradient id="paint1_linear_1_5078" x1="4.44774" y1="63.6699" x2="124.143" y2="53.559" gradientUnits="userSpaceOnUse">
<stop stop-color="#20D9A1"/>
<stop offset="1" stop-color="#5F39FF"/>
</linearGradient>
<linearGradient id="paint2_linear_1_5078" x1="17.7822" y1="62.5435" x2="110.809" y2="54.6853" gradientUnits="userSpaceOnUse">
<stop stop-color="#20D9A1"/>
<stop offset="1" stop-color="#5F39FF"/>
</linearGradient>
<linearGradient id="paint3_linear_1_5078" x1="23.8014" y1="62.0348" x2="104.789" y2="55.1936" gradientUnits="userSpaceOnUse">
<stop stop-color="#20D9A1"/>
<stop offset="1" stop-color="#5F39FF"/>
</linearGradient>
<linearGradient id="paint4_linear_1_5078" x1="29.6497" y1="61.541" x2="98.9413" y2="55.6878" gradientUnits="userSpaceOnUse">
<stop stop-color="#20D9A1"/>
<stop offset="1" stop-color="#5F39FF"/>
</linearGradient>
<linearGradient id="paint5_linear_1_5078" x1="37.9262" y1="60.8417" x2="90.664" y2="56.3868" gradientUnits="userSpaceOnUse">
<stop stop-color="#20D9A1"/>
<stop offset="1" stop-color="#5F39FF"/>
</linearGradient>
<linearGradient id="paint6_linear_1_5078" x1="43.0749" y1="60.4068" x2="85.5158" y2="56.8218" gradientUnits="userSpaceOnUse">
<stop stop-color="#20D9A1"/>
<stop offset="1" stop-color="#5F39FF"/>
</linearGradient>
<linearGradient id="paint7_linear_1_5078" x1="47.301" y1="60.0498" x2="81.289" y2="57.1787" gradientUnits="userSpaceOnUse">
<stop stop-color="#20D9A1"/>
<stop offset="1" stop-color="#5F39FF"/>
</linearGradient>
</defs>
</svg>
