<svg width="232" height="231" viewBox="0 0 232 231" fill="none" xmlns="http://www.w3.org/2000/svg">
<path opacity="0.16" d="M123.255 47.3965L26.1273 144.524L26.1273 196.526L123.255 99.3984L123.255 47.3965Z" fill="url(#paint0_linear_325_23415)"/>
<path opacity="0.16" d="M191.607 0.476562L43.3174 148.767V228.161L191.607 79.8708L191.607 0.476562Z" fill="url(#paint1_linear_325_23415)"/>
<path opacity="0.16" d="M125.299 16.7031L88.2914 53.7105L88.2914 73.5242L125.299 36.5168L125.299 16.7031Z" fill="url(#paint2_linear_325_23415)"/>
<path opacity="0.16" d="M76.5664 137.742L16.1686 198.14L16.1686 230.477L76.5664 170.079L76.5664 137.742Z" fill="url(#paint3_linear_325_23415)"/>
<path opacity="0.16" d="M137.467 111.67L70.892 178.245L70.892 213.889L137.467 147.314L137.467 111.67Z" fill="url(#paint4_linear_325_23415)"/>
<path opacity="0.16" d="M66.5625 65.6289L14.0871 118.104V146.2L66.5625 93.7242V65.6289Z" fill="url(#paint5_linear_325_23415)"/>
<defs>
<linearGradient id="paint0_linear_325_23415" x1="92.5265" y1="114.85" x2="44.3217" y2="94.2419" gradientUnits="userSpaceOnUse">
<stop stop-color="#705FFF"/>
<stop offset="1" stop-color="#705FFF" stop-opacity="0"/>
</linearGradient>
<linearGradient id="paint1_linear_325_23415" x1="144.693" y1="103.462" x2="71.0957" y2="71.998" gradientUnits="userSpaceOnUse">
<stop stop-color="#705FFF"/>
<stop offset="1" stop-color="#705FFF" stop-opacity="0"/>
</linearGradient>
<linearGradient id="paint2_linear_325_23415" x1="113.591" y1="42.4043" x2="95.2238" y2="34.5521" gradientUnits="userSpaceOnUse">
<stop stop-color="#705FFF"/>
<stop offset="1" stop-color="#705FFF" stop-opacity="0"/>
</linearGradient>
<linearGradient id="paint3_linear_325_23415" x1="57.4583" y1="179.688" x2="27.4826" y2="166.872" gradientUnits="userSpaceOnUse">
<stop stop-color="#705FFF"/>
<stop offset="1" stop-color="#705FFF" stop-opacity="0"/>
</linearGradient>
<linearGradient id="paint4_linear_325_23415" x1="116.404" y1="157.905" x2="83.3631" y2="143.779" gradientUnits="userSpaceOnUse">
<stop stop-color="#705FFF"/>
<stop offset="1" stop-color="#705FFF" stop-opacity="0"/>
</linearGradient>
<linearGradient id="paint5_linear_325_23415" x1="49.9608" y1="102.072" x2="23.917" y2="90.9382" gradientUnits="userSpaceOnUse">
<stop stop-color="#705FFF"/>
<stop offset="1" stop-color="#705FFF" stop-opacity="0"/>
</linearGradient>
</defs>
</svg>
