<svg width="104" height="97" viewBox="0 0 104 97" fill="none" xmlns="http://www.w3.org/2000/svg">
<g opacity="0.15">
<path d="M27.3864 27.2402C30.0395 13.7814 38.984 9.19892 43.1245 8.59006C57.9938 5.76278 76.9436 24.6425 85.1499 35.0595C93.3563 45.4766 97.2862 59.8517 84.8856 68.2987C72.485 76.7457 64.1204 89.3099 46.5023 91.1209C28.8841 92.9318 14.8859 78.8652 12.6128 65.6471C10.3396 52.429 24.07 44.0638 27.3864 27.2402Z" stroke="url(#paint0_linear_1_27655)"/>
<path d="M26.7411 24.0982C31.5815 10.0949 42.7445 6.10762 47.721 5.86439C65.6732 4.31193 85.7104 26.1559 94.1045 37.9902C102.499 49.8245 105.332 65.4376 89.5909 73.1843C73.8497 80.9309 62.3641 93.4318 41.2876 93.6406C20.2112 93.8493 5.42492 77.5858 4.40559 63.3595C3.38626 49.1332 20.6906 41.6023 26.7411 24.0982Z" stroke="url(#paint1_linear_1_27655)"/>
<path d="M32.3296 29.6928C36.0904 18.8101 44.7661 15.7123 48.6338 15.5237C62.5863 14.3188 78.1613 31.2972 84.6863 40.4954C91.2112 49.6936 93.4149 61.828 81.1813 67.8471C68.9477 73.8662 60.022 83.5807 43.6412 83.741C27.2604 83.9014 15.767 71.2604 14.9736 60.2039C14.1801 49.1474 27.6286 43.296 32.3296 29.6928Z" stroke="url(#paint2_linear_1_27655)"/>
<path d="M34.8508 32.2172C38.1249 22.7429 45.6778 20.0459 49.0451 19.8817C61.1919 18.8327 74.7514 33.614 80.4319 41.6218C86.1125 49.6296 88.0309 60.1938 77.3805 65.4339C66.7301 70.6741 58.9595 79.1314 44.6986 79.271C30.4376 79.4106 20.4316 68.4055 19.7408 58.7798C19.05 49.1542 30.7581 44.06 34.8508 32.2172Z" stroke="url(#paint3_linear_1_27655)"/>
<path d="M37.3 34.6696C40.1012 26.5636 46.5634 24.2562 49.4443 24.1157C59.8369 23.2182 71.4381 35.8647 76.2982 42.7161C81.1584 49.5674 82.7998 58.6058 73.6875 63.0892C64.5753 67.5726 57.9269 74.8084 45.7255 74.9279C33.5242 75.0473 24.9632 65.6316 24.3722 57.3961C23.7812 49.1606 33.7984 44.8021 37.3 34.6696Z" stroke="url(#paint4_linear_1_27655)"/>
<path d="M40.7674 38.1405C42.8995 31.971 47.8178 30.2148 50.0105 30.1079C57.9203 29.4248 66.75 39.0501 70.4491 44.2646C74.1481 49.4792 75.3974 56.3583 68.462 59.7706C61.5267 63.1829 56.4666 68.6902 47.1801 68.7811C37.8937 68.872 31.3779 61.7057 30.9281 55.4376C30.4783 49.1696 38.1024 45.8524 40.7674 38.1405Z" stroke="url(#paint5_linear_1_27655)"/>
<path d="M42.9258 40.2995C44.6416 35.3346 48.5996 33.9213 50.3642 33.8353C56.7297 33.2855 63.8353 41.0315 66.8122 45.2279C69.789 49.4244 70.7944 54.9604 65.2131 57.7064C59.6319 60.4525 55.5598 64.8845 48.0865 64.9576C40.6131 65.0308 35.3696 59.2637 35.0076 54.2194C34.6456 49.1752 40.7811 46.5057 42.9258 40.2995Z" stroke="url(#paint6_linear_1_27655)"/>
<path d="M44.6956 42.072C46.0697 38.096 49.2396 36.9641 50.6527 36.8952C55.7505 36.455 61.4411 42.6582 63.8252 46.0188C66.2092 49.3794 67.0143 53.8128 62.5445 56.012C58.0747 58.2111 54.8136 61.7604 48.8285 61.819C42.8435 61.8776 38.6441 57.2591 38.3542 53.2195C38.0643 49.18 42.978 47.0421 44.6956 42.072Z" stroke="url(#paint7_linear_1_27655)"/>
</g>
<defs>
<linearGradient id="paint0_linear_1_27655" x1="10.9237" y1="56.3686" x2="90.9342" y2="41.813" gradientUnits="userSpaceOnUse">
<stop stop-color="#20D9A1"/>
<stop offset="1" stop-color="#5F39FF"/>
</linearGradient>
<linearGradient id="paint1_linear_1_27655" x1="3.57953" y1="53.3642" x2="100.07" y2="45.4024" gradientUnits="userSpaceOnUse">
<stop stop-color="#20D9A1"/>
<stop offset="1" stop-color="#5F39FF"/>
</linearGradient>
<linearGradient id="paint2_linear_1_27655" x1="14.3307" y1="52.4356" x2="89.3222" y2="46.2394" gradientUnits="userSpaceOnUse">
<stop stop-color="#20D9A1"/>
<stop offset="1" stop-color="#5F39FF"/>
</linearGradient>
<linearGradient id="paint3_linear_1_27655" x1="19.1811" y1="52.0169" x2="84.4679" y2="46.6225" gradientUnits="userSpaceOnUse">
<stop stop-color="#20D9A1"/>
<stop offset="1" stop-color="#5F39FF"/>
</linearGradient>
<linearGradient id="paint4_linear_1_27655" x1="23.8933" y1="51.6098" x2="79.7514" y2="46.9945" gradientUnits="userSpaceOnUse">
<stop stop-color="#20D9A1"/>
<stop offset="1" stop-color="#5F39FF"/>
</linearGradient>
<linearGradient id="paint5_linear_1_27655" x1="30.5636" y1="51.0337" x2="73.0772" y2="47.521" gradientUnits="userSpaceOnUse">
<stop stop-color="#20D9A1"/>
<stop offset="1" stop-color="#5F39FF"/>
</linearGradient>
<linearGradient id="paint6_linear_1_27655" x1="34.7143" y1="50.6754" x2="68.9272" y2="47.8485" gradientUnits="userSpaceOnUse">
<stop stop-color="#20D9A1"/>
<stop offset="1" stop-color="#5F39FF"/>
</linearGradient>
<linearGradient id="paint7_linear_1_27655" x1="38.1194" y1="50.3813" x2="65.519" y2="48.1174" gradientUnits="userSpaceOnUse">
<stop stop-color="#20D9A1"/>
<stop offset="1" stop-color="#5F39FF"/>
</linearGradient>
</defs>
</svg>
