<svg width="150" height="150" viewBox="0 0 150 150" fill="none" xmlns="http://www.w3.org/2000/svg">
<g opacity="0.2">
<circle cx="2.67854" cy="50.892" r="2.67854" fill="#20D9A1"/>
<circle cx="2.67854" cy="66.9633" r="2.67854" fill="#20D9A1"/>
<circle cx="2.67854" cy="83.0345" r="2.67854" fill="#20D9A1"/>
<circle cx="2.67854" cy="99.1055" r="2.67854" fill="#20D9A1"/>
<circle cx="2.67854" cy="115.177" r="2.67854" fill="#20D9A1"/>
<circle cx="18.7498" cy="18.7496" r="2.67854" fill="#20D9A1"/>
<circle cx="18.7498" cy="34.8209" r="2.67854" fill="#20D9A1"/>
<circle cx="5.89338" cy="34.8208" r="2.67854" fill="#20D9A1"/>
<circle cx="18.7498" cy="50.892" r="2.67854" fill="#20D9A1"/>
<circle cx="18.7498" cy="66.9633" r="2.67854" fill="#20D9A1"/>
<circle cx="18.7498" cy="83.0343" r="2.67854" fill="#20D9A1"/>
<circle cx="18.7498" cy="99.1055" r="2.67854" fill="#20D9A1"/>
<circle cx="18.7498" cy="115.177" r="2.67854" fill="#20D9A1"/>
<circle cx="18.7498" cy="131.248" r="2.67854" fill="#20D9A1"/>
<circle cx="34.8231" cy="18.7496" r="2.67854" fill="#20D9A1"/>
<circle cx="34.8231" cy="8.03535" r="2.67854" fill="#20D9A1"/>
<circle cx="34.8231" cy="34.8208" r="2.67854" fill="#20D9A1"/>
<circle cx="34.8231" cy="50.892" r="2.67854" fill="#20D9A1"/>
<circle cx="34.8231" cy="66.9633" r="2.67854" fill="#20D9A1"/>
<circle cx="34.8231" cy="83.0345" r="2.67854" fill="#20D9A1"/>
<circle cx="34.8231" cy="99.1055" r="2.67854" fill="#20D9A1"/>
<circle cx="34.8231" cy="115.177" r="2.67854" fill="#20D9A1"/>
<circle cx="34.8231" cy="131.248" r="2.67854" fill="#20D9A1"/>
<circle cx="34.8231" cy="147.32" r="2.67854" fill="#20D9A1"/>
<circle cx="50.8934" cy="2.6783" r="2.67854" fill="#20D9A1"/>
<circle cx="50.8934" cy="18.7496" r="2.67854" fill="#20D9A1"/>
<circle cx="50.8934" cy="34.8208" r="2.67854" fill="#20D9A1"/>
<circle cx="50.8934" cy="50.892" r="2.67854" fill="#20D9A1"/>
<circle cx="50.8934" cy="66.9633" r="2.67854" fill="#20D9A1"/>
<circle cx="50.8934" cy="83.0345" r="2.67854" fill="#20D9A1"/>
<circle cx="50.8934" cy="99.1055" r="2.67854" fill="#20D9A1"/>
<circle cx="50.8934" cy="115.177" r="2.67854" fill="#20D9A1"/>
<circle cx="50.8934" cy="131.248" r="2.67854" fill="#20D9A1"/>
<circle cx="50.8934" cy="147.32" r="2.67854" fill="#20D9A1"/>
<circle cx="66.9617" cy="2.6783" r="2.67854" fill="#20D9A1"/>
<circle cx="66.9617" cy="18.7496" r="2.67854" fill="#20D9A1"/>
<circle cx="66.9617" cy="34.8209" r="2.67854" fill="#20D9A1"/>
<circle cx="66.9617" cy="50.892" r="2.67854" fill="#20D9A1"/>
<circle cx="66.9617" cy="66.9633" r="2.67854" fill="#20D9A1"/>
<circle cx="66.9617" cy="83.0343" r="2.67854" fill="#20D9A1"/>
<circle cx="66.9617" cy="99.1055" r="2.67854" fill="#20D9A1"/>
<circle cx="66.9617" cy="115.177" r="2.67854" fill="#20D9A1"/>
<circle cx="66.9617" cy="131.248" r="2.67854" fill="#20D9A1"/>
<circle cx="66.9617" cy="147.32" r="2.67854" fill="#20D9A1"/>
<circle cx="83.0321" cy="2.6783" r="2.67854" fill="#20D9A1"/>
<circle cx="83.0321" cy="18.7496" r="2.67854" fill="#20D9A1"/>
<circle cx="83.0321" cy="34.8209" r="2.67854" fill="#20D9A1"/>
<circle cx="83.0321" cy="50.892" r="2.67854" fill="#20D9A1"/>
<circle cx="83.0321" cy="66.9633" r="2.67854" fill="#20D9A1"/>
<circle cx="83.0321" cy="83.0343" r="2.67854" fill="#20D9A1"/>
<circle cx="83.0321" cy="99.1055" r="2.67854" fill="#20D9A1"/>
<circle cx="83.0321" cy="115.177" r="2.67854" fill="#20D9A1"/>
<circle cx="83.0321" cy="131.248" r="2.67854" fill="#20D9A1"/>
<circle cx="83.0321" cy="147.32" r="2.67854" fill="#20D9A1"/>
<circle cx="99.1053" cy="2.6783" r="2.67854" fill="#20D9A1"/>
<circle cx="99.1053" cy="18.7496" r="2.67854" fill="#20D9A1"/>
<circle cx="99.1053" cy="34.8208" r="2.67854" fill="#20D9A1"/>
<circle cx="99.1053" cy="50.892" r="2.67854" fill="#20D9A1"/>
<circle cx="99.1053" cy="66.9633" r="2.67854" fill="#20D9A1"/>
<circle cx="99.1053" cy="83.0345" r="2.67854" fill="#20D9A1"/>
<circle cx="99.1053" cy="99.1055" r="2.67854" fill="#20D9A1"/>
<circle cx="99.1053" cy="115.177" r="2.67854" fill="#20D9A1"/>
<circle cx="99.1053" cy="131.248" r="2.67854" fill="#20D9A1"/>
<circle cx="99.1053" cy="147.32" r="2.67854" fill="#20D9A1"/>
<circle cx="99.1053" cy="2.6783" r="2.67854" fill="#20D9A1"/>
<circle cx="99.1053" cy="18.7496" r="2.67854" fill="#20D9A1"/>
<circle cx="99.1053" cy="34.8208" r="2.67854" fill="#20D9A1"/>
<circle cx="99.1053" cy="50.892" r="2.67854" fill="#20D9A1"/>
<circle cx="99.1053" cy="66.9633" r="2.67854" fill="#20D9A1"/>
<circle cx="99.1053" cy="83.0345" r="2.67854" fill="#20D9A1"/>
<circle cx="99.1053" cy="99.1055" r="2.67854" fill="#20D9A1"/>
<circle cx="99.1053" cy="115.177" r="2.67854" fill="#20D9A1"/>
<circle cx="99.1053" cy="131.248" r="2.67854" fill="#20D9A1"/>
<circle cx="99.1053" cy="147.32" r="2.67854" fill="#20D9A1"/>
<circle cx="115.177" cy="18.7496" r="2.67854" fill="#20D9A1"/>
<circle cx="115.177" cy="34.8209" r="2.67854" fill="#20D9A1"/>
<circle cx="115.177" cy="50.892" r="2.67854" fill="#20D9A1"/>
<circle cx="115.177" cy="66.9633" r="2.67854" fill="#20D9A1"/>
<circle cx="115.177" cy="83.0343" r="2.67854" fill="#20D9A1"/>
<circle cx="115.177" cy="99.1055" r="2.67854" fill="#20D9A1"/>
<circle cx="115.177" cy="115.177" r="2.67854" fill="#20D9A1"/>
<circle cx="115.177" cy="131.248" r="2.67854" fill="#20D9A1"/>
<circle cx="115.177" cy="147.32" r="2.67854" fill="#20D9A1"/>
<circle cx="131.25" cy="34.8208" r="2.67854" fill="#20D9A1"/>
<circle cx="131.25" cy="50.892" r="2.67854" fill="#20D9A1"/>
<circle cx="131.25" cy="66.9633" r="2.67854" fill="#20D9A1"/>
<circle cx="131.25" cy="83.0345" r="2.67854" fill="#20D9A1"/>
<circle cx="131.25" cy="99.1055" r="2.67854" fill="#20D9A1"/>
<circle cx="131.25" cy="115.177" r="2.67854" fill="#20D9A1"/>
<circle cx="131.25" cy="131.248" r="2.67854" fill="#20D9A1"/>
<circle cx="147.321" cy="50.892" r="2.67854" fill="#20D9A1"/>
<circle cx="147.321" cy="66.9633" r="2.67854" fill="#20D9A1"/>
<circle cx="147.321" cy="83.0345" r="2.67854" fill="#20D9A1"/>
<circle cx="147.321" cy="99.1055" r="2.67854" fill="#20D9A1"/>
</g>
</svg>
