<svg width="121" height="122" viewBox="0 0 121 122" fill="none" xmlns="http://www.w3.org/2000/svg">
<g opacity="0.2">
<ellipse cx="2.28628" cy="41.6079" rx="2.14565" ry="2.15119" fill="#20D9A1"/>
<ellipse cx="2.28628" cy="54.515" rx="2.14565" ry="2.15119" fill="#20D9A1"/>
<ellipse cx="2.28628" cy="67.4221" rx="2.14565" ry="2.15119" fill="#20D9A1"/>
<ellipse cx="2.28628" cy="80.3293" rx="2.14565" ry="2.15119" fill="#20D9A1"/>
<ellipse cx="2.28628" cy="93.2364" rx="2.14565" ry="2.15119" fill="#20D9A1"/>
<ellipse cx="15.1603" cy="15.7935" rx="2.14565" ry="2.15119" fill="#20D9A1"/>
<ellipse cx="15.1603" cy="28.7008" rx="2.14565" ry="2.15119" fill="#20D9A1"/>
<ellipse cx="4.86147" cy="28.7008" rx="2.14565" ry="2.15119" fill="#20D9A1"/>
<ellipse cx="15.1603" cy="41.6079" rx="2.14565" ry="2.15119" fill="#20D9A1"/>
<ellipse cx="15.1603" cy="54.515" rx="2.14565" ry="2.15119" fill="#20D9A1"/>
<ellipse cx="15.1603" cy="67.4221" rx="2.14565" ry="2.15119" fill="#20D9A1"/>
<ellipse cx="15.1603" cy="80.3293" rx="2.14565" ry="2.15119" fill="#20D9A1"/>
<ellipse cx="15.1603" cy="93.2364" rx="2.14565" ry="2.15119" fill="#20D9A1"/>
<ellipse cx="15.1603" cy="106.144" rx="2.14565" ry="2.15119" fill="#20D9A1"/>
<ellipse cx="28.0353" cy="15.7935" rx="2.14565" ry="2.15119" fill="#20D9A1"/>
<ellipse cx="28.0363" cy="7.18879" rx="2.14565" ry="2.15119" fill="#20D9A1"/>
<ellipse cx="28.0353" cy="28.7008" rx="2.14565" ry="2.15119" fill="#20D9A1"/>
<ellipse cx="28.0353" cy="41.6079" rx="2.14565" ry="2.15119" fill="#20D9A1"/>
<ellipse cx="28.0353" cy="54.515" rx="2.14565" ry="2.15119" fill="#20D9A1"/>
<ellipse cx="28.0353" cy="67.4221" rx="2.14565" ry="2.15119" fill="#20D9A1"/>
<ellipse cx="28.0363" cy="80.3293" rx="2.14565" ry="2.15119" fill="#20D9A1"/>
<ellipse cx="28.0363" cy="93.2364" rx="2.14565" ry="2.15119" fill="#20D9A1"/>
<ellipse cx="28.0363" cy="106.144" rx="2.14565" ry="2.15119" fill="#20D9A1"/>
<ellipse cx="28.0363" cy="119.051" rx="2.14565" ry="2.15119" fill="#20D9A1"/>
<ellipse cx="40.9083" cy="2.88642" rx="2.14565" ry="2.15119" fill="#20D9A1"/>
<ellipse cx="40.9083" cy="15.7935" rx="2.14565" ry="2.15119" fill="#20D9A1"/>
<ellipse cx="40.9083" cy="28.7008" rx="2.14565" ry="2.15119" fill="#20D9A1"/>
<ellipse cx="40.9083" cy="41.6079" rx="2.14565" ry="2.15119" fill="#20D9A1"/>
<ellipse cx="40.9083" cy="54.515" rx="2.14565" ry="2.15119" fill="#20D9A1"/>
<ellipse cx="40.9083" cy="67.4221" rx="2.14565" ry="2.15119" fill="#20D9A1"/>
<ellipse cx="40.9093" cy="80.3293" rx="2.14565" ry="2.15119" fill="#20D9A1"/>
<ellipse cx="40.9093" cy="93.2364" rx="2.14565" ry="2.15119" fill="#20D9A1"/>
<ellipse cx="40.9093" cy="106.144" rx="2.14565" ry="2.15119" fill="#20D9A1"/>
<ellipse cx="40.9093" cy="119.051" rx="2.14565" ry="2.15119" fill="#20D9A1"/>
<ellipse cx="53.7804" cy="2.88642" rx="2.14565" ry="2.15119" fill="#20D9A1"/>
<ellipse cx="53.7804" cy="15.7935" rx="2.14565" ry="2.15119" fill="#20D9A1"/>
<ellipse cx="53.7804" cy="28.7008" rx="2.14565" ry="2.15119" fill="#20D9A1"/>
<ellipse cx="53.7804" cy="41.6079" rx="2.14565" ry="2.15119" fill="#20D9A1"/>
<ellipse cx="53.7804" cy="54.515" rx="2.14565" ry="2.15119" fill="#20D9A1"/>
<ellipse cx="53.7804" cy="67.4221" rx="2.14565" ry="2.15119" fill="#20D9A1"/>
<ellipse cx="53.7804" cy="80.3293" rx="2.14565" ry="2.15119" fill="#20D9A1"/>
<ellipse cx="53.7804" cy="93.2364" rx="2.14565" ry="2.15119" fill="#20D9A1"/>
<ellipse cx="53.7804" cy="106.144" rx="2.14565" ry="2.15119" fill="#20D9A1"/>
<ellipse cx="53.7804" cy="119.051" rx="2.14565" ry="2.15119" fill="#20D9A1"/>
<ellipse cx="66.6535" cy="2.88642" rx="2.14565" ry="2.15119" fill="#20D9A1"/>
<ellipse cx="66.6535" cy="15.7935" rx="2.14565" ry="2.15119" fill="#20D9A1"/>
<ellipse cx="66.6535" cy="28.7008" rx="2.14565" ry="2.15119" fill="#20D9A1"/>
<ellipse cx="66.6535" cy="41.6079" rx="2.14565" ry="2.15119" fill="#20D9A1"/>
<ellipse cx="66.6535" cy="54.515" rx="2.14565" ry="2.15119" fill="#20D9A1"/>
<ellipse cx="66.6535" cy="67.4221" rx="2.14565" ry="2.15119" fill="#20D9A1"/>
<ellipse cx="66.6535" cy="80.3293" rx="2.14565" ry="2.15119" fill="#20D9A1"/>
<ellipse cx="66.6535" cy="93.2364" rx="2.14565" ry="2.15119" fill="#20D9A1"/>
<ellipse cx="66.6535" cy="106.144" rx="2.14565" ry="2.15119" fill="#20D9A1"/>
<ellipse cx="66.6535" cy="119.051" rx="2.14565" ry="2.15119" fill="#20D9A1"/>
<ellipse cx="79.5294" cy="2.88642" rx="2.14565" ry="2.15119" fill="#20D9A1"/>
<ellipse cx="79.5294" cy="15.7935" rx="2.14565" ry="2.15119" fill="#20D9A1"/>
<ellipse cx="79.5294" cy="28.7008" rx="2.14565" ry="2.15119" fill="#20D9A1"/>
<ellipse cx="79.5294" cy="41.6079" rx="2.14565" ry="2.15119" fill="#20D9A1"/>
<ellipse cx="79.5294" cy="54.515" rx="2.14565" ry="2.15119" fill="#20D9A1"/>
<ellipse cx="79.5294" cy="67.4221" rx="2.14565" ry="2.15119" fill="#20D9A1"/>
<ellipse cx="79.5294" cy="80.3293" rx="2.14565" ry="2.15119" fill="#20D9A1"/>
<ellipse cx="79.5294" cy="93.2364" rx="2.14565" ry="2.15119" fill="#20D9A1"/>
<ellipse cx="79.5294" cy="106.144" rx="2.14565" ry="2.15119" fill="#20D9A1"/>
<ellipse cx="79.5294" cy="119.051" rx="2.14565" ry="2.15119" fill="#20D9A1"/>
<ellipse cx="79.5294" cy="2.88642" rx="2.14565" ry="2.15119" fill="#20D9A1"/>
<ellipse cx="79.5294" cy="15.7935" rx="2.14565" ry="2.15119" fill="#20D9A1"/>
<ellipse cx="79.5294" cy="28.7008" rx="2.14565" ry="2.15119" fill="#20D9A1"/>
<ellipse cx="79.5294" cy="41.6079" rx="2.14565" ry="2.15119" fill="#20D9A1"/>
<ellipse cx="79.5294" cy="54.515" rx="2.14565" ry="2.15119" fill="#20D9A1"/>
<ellipse cx="79.5294" cy="67.4221" rx="2.14565" ry="2.15119" fill="#20D9A1"/>
<ellipse cx="79.5294" cy="80.3293" rx="2.14565" ry="2.15119" fill="#20D9A1"/>
<ellipse cx="79.5294" cy="93.2364" rx="2.14565" ry="2.15119" fill="#20D9A1"/>
<ellipse cx="79.5294" cy="106.144" rx="2.14565" ry="2.15119" fill="#20D9A1"/>
<ellipse cx="79.5294" cy="119.051" rx="2.14565" ry="2.15119" fill="#20D9A1"/>
<ellipse cx="92.4035" cy="15.7935" rx="2.14565" ry="2.15119" fill="#20D9A1"/>
<ellipse cx="92.4035" cy="28.7008" rx="2.14565" ry="2.15119" fill="#20D9A1"/>
<ellipse cx="92.4035" cy="41.6079" rx="2.14565" ry="2.15119" fill="#20D9A1"/>
<ellipse cx="92.4035" cy="54.515" rx="2.14565" ry="2.15119" fill="#20D9A1"/>
<ellipse cx="92.4035" cy="67.4221" rx="2.14565" ry="2.15119" fill="#20D9A1"/>
<ellipse cx="92.4035" cy="80.3293" rx="2.14565" ry="2.15119" fill="#20D9A1"/>
<ellipse cx="92.4035" cy="93.2364" rx="2.14565" ry="2.15119" fill="#20D9A1"/>
<ellipse cx="92.4035" cy="106.144" rx="2.14565" ry="2.15119" fill="#20D9A1"/>
<ellipse cx="92.4035" cy="119.051" rx="2.14565" ry="2.15119" fill="#20D9A1"/>
<ellipse cx="105.278" cy="28.7008" rx="2.14565" ry="2.15119" fill="#20D9A1"/>
<ellipse cx="105.278" cy="41.6079" rx="2.14565" ry="2.15119" fill="#20D9A1"/>
<ellipse cx="105.278" cy="54.515" rx="2.14565" ry="2.15119" fill="#20D9A1"/>
<ellipse cx="105.278" cy="67.4221" rx="2.14565" ry="2.15119" fill="#20D9A1"/>
<ellipse cx="105.278" cy="80.3293" rx="2.14565" ry="2.15119" fill="#20D9A1"/>
<ellipse cx="105.278" cy="93.2364" rx="2.14565" ry="2.15119" fill="#20D9A1"/>
<ellipse cx="105.278" cy="106.144" rx="2.14565" ry="2.15119" fill="#20D9A1"/>
<ellipse cx="118.152" cy="41.6079" rx="2.14565" ry="2.15119" fill="#20D9A1"/>
<ellipse cx="118.152" cy="54.515" rx="2.14565" ry="2.15119" fill="#20D9A1"/>
<ellipse cx="118.152" cy="67.4221" rx="2.14565" ry="2.15119" fill="#20D9A1"/>
<ellipse cx="118.152" cy="80.3293" rx="2.14565" ry="2.15119" fill="#20D9A1"/>
</g>
</svg>
