<svg width="172" height="223" viewBox="0 0 172 223" fill="none" xmlns="http://www.w3.org/2000/svg">
<circle cx="1" cy="1" r="1" fill="#BCB4FF"/>
<circle cx="18" cy="1" r="1" fill="#BCB4FF"/>
<circle cx="35" cy="1" r="1" fill="#BCB4FF"/>
<circle cx="52" cy="1" r="1" fill="#BCB4FF"/>
<circle cx="69" cy="1" r="1" fill="#BCB4FF"/>
<circle cx="86" cy="1" r="1" fill="#BCB4FF"/>
<circle cx="103" cy="1" r="1" fill="#BCB4FF"/>
<circle cx="120" cy="1" r="1" fill="#BCB4FF"/>
<circle cx="137" cy="1" r="1" fill="#BCB4FF"/>
<circle cx="154" cy="1" r="1" fill="#BCB4FF"/>
<circle cx="171" cy="1" r="1" fill="#BCB4FF"/>
<circle cx="1" cy="18" r="1" fill="#BCB4FF"/>
<circle cx="18" cy="18" r="1" fill="#BCB4FF"/>
<circle cx="35" cy="18" r="1" fill="#BCB4FF"/>
<circle cx="52" cy="18" r="1" fill="#BCB4FF"/>
<circle cx="69" cy="18" r="1" fill="#BCB4FF"/>
<circle cx="86" cy="18" r="1" fill="#BCB4FF"/>
<circle cx="103" cy="18" r="1" fill="#BCB4FF"/>
<circle cx="120" cy="18" r="1" fill="#BCB4FF"/>
<circle cx="137" cy="18" r="1" fill="#BCB4FF"/>
<circle cx="154" cy="18" r="1" fill="#BCB4FF"/>
<circle cx="171" cy="18" r="1" fill="#BCB4FF"/>
<circle cx="1" cy="35" r="1" fill="#BCB4FF"/>
<circle cx="18" cy="35" r="1" fill="#BCB4FF"/>
<circle cx="35" cy="35" r="1" fill="#BCB4FF"/>
<circle cx="52" cy="35" r="1" fill="#BCB4FF"/>
<circle cx="69" cy="35" r="1" fill="#BCB4FF"/>
<circle cx="86" cy="35" r="1" fill="#BCB4FF"/>
<circle cx="103" cy="35" r="1" fill="#BCB4FF"/>
<circle cx="120" cy="35" r="1" fill="#BCB4FF"/>
<circle cx="137" cy="35" r="1" fill="#BCB4FF"/>
<circle cx="154" cy="35" r="1" fill="#BCB4FF"/>
<circle cx="171" cy="35" r="1" fill="#BCB4FF"/>
<circle cx="1" cy="52" r="1" fill="#BCB4FF"/>
<circle cx="18" cy="52" r="1" fill="#BCB4FF"/>
<circle cx="35" cy="52" r="1" fill="#BCB4FF"/>
<circle cx="52" cy="52" r="1" fill="#BCB4FF"/>
<circle cx="69" cy="52" r="1" fill="#BCB4FF"/>
<circle cx="86" cy="52" r="1" fill="#BCB4FF"/>
<circle cx="103" cy="52" r="1" fill="#BCB4FF"/>
<circle cx="120" cy="52" r="1" fill="#BCB4FF"/>
<circle cx="137" cy="52" r="1" fill="#BCB4FF"/>
<circle cx="154" cy="52" r="1" fill="#BCB4FF"/>
<circle cx="171" cy="52" r="1" fill="#BCB4FF"/>
<circle cx="1" cy="69" r="1" fill="#BCB4FF"/>
<circle cx="18" cy="69" r="1" fill="#BCB4FF"/>
<circle cx="35" cy="69" r="1" fill="#BCB4FF"/>
<circle cx="52" cy="69" r="1" fill="#BCB4FF"/>
<circle cx="69" cy="69" r="1" fill="#BCB4FF"/>
<circle cx="86" cy="69" r="1" fill="#BCB4FF"/>
<circle cx="103" cy="69" r="1" fill="#BCB4FF"/>
<circle cx="120" cy="69" r="1" fill="#BCB4FF"/>
<circle cx="137" cy="69" r="1" fill="#BCB4FF"/>
<circle cx="154" cy="69" r="1" fill="#BCB4FF"/>
<circle cx="171" cy="69" r="1" fill="#BCB4FF"/>
<circle cx="1" cy="86" r="1" fill="#BCB4FF"/>
<circle cx="18" cy="86" r="1" fill="#BCB4FF"/>
<circle cx="35" cy="86" r="1" fill="#BCB4FF"/>
<circle cx="52" cy="86" r="1" fill="#BCB4FF"/>
<circle cx="69" cy="86" r="1" fill="#BCB4FF"/>
<circle cx="86" cy="86" r="1" fill="#BCB4FF"/>
<circle cx="103" cy="86" r="1" fill="#BCB4FF"/>
<circle cx="120" cy="86" r="1" fill="#BCB4FF"/>
<circle cx="137" cy="86" r="1" fill="#BCB4FF"/>
<circle cx="154" cy="86" r="1" fill="#BCB4FF"/>
<circle cx="171" cy="86" r="1" fill="#BCB4FF"/>
<circle cx="1" cy="103" r="1" fill="#BCB4FF"/>
<circle cx="18" cy="103" r="1" fill="#BCB4FF"/>
<circle cx="35" cy="103" r="1" fill="#BCB4FF"/>
<circle cx="52" cy="103" r="1" fill="#BCB4FF"/>
<circle cx="69" cy="103" r="1" fill="#BCB4FF"/>
<circle cx="86" cy="103" r="1" fill="#BCB4FF"/>
<circle cx="103" cy="103" r="1" fill="#BCB4FF"/>
<circle cx="120" cy="103" r="1" fill="#BCB4FF"/>
<circle cx="137" cy="103" r="1" fill="#BCB4FF"/>
<circle cx="154" cy="103" r="1" fill="#BCB4FF"/>
<circle cx="171" cy="103" r="1" fill="#BCB4FF"/>
<circle cx="1" cy="120" r="1" fill="#BCB4FF"/>
<circle cx="18" cy="120" r="1" fill="#BCB4FF"/>
<circle cx="35" cy="120" r="1" fill="#BCB4FF"/>
<circle cx="52" cy="120" r="1" fill="#BCB4FF"/>
<circle cx="69" cy="120" r="1" fill="#BCB4FF"/>
<circle cx="86" cy="120" r="1" fill="#BCB4FF"/>
<circle cx="103" cy="120" r="1" fill="#BCB4FF"/>
<circle cx="120" cy="120" r="1" fill="#BCB4FF"/>
<circle cx="137" cy="120" r="1" fill="#BCB4FF"/>
<circle cx="154" cy="120" r="1" fill="#BCB4FF"/>
<circle cx="171" cy="120" r="1" fill="#BCB4FF"/>
<circle cx="1" cy="137" r="1" fill="#BCB4FF"/>
<circle cx="18" cy="137" r="1" fill="#BCB4FF"/>
<circle cx="35" cy="137" r="1" fill="#BCB4FF"/>
<circle cx="52" cy="137" r="1" fill="#BCB4FF"/>
<circle cx="69" cy="137" r="1" fill="#BCB4FF"/>
<circle cx="86" cy="137" r="1" fill="#BCB4FF"/>
<circle cx="103" cy="137" r="1" fill="#BCB4FF"/>
<circle cx="120" cy="137" r="1" fill="#BCB4FF"/>
<circle cx="137" cy="137" r="1" fill="#BCB4FF"/>
<circle cx="154" cy="137" r="1" fill="#BCB4FF"/>
<circle cx="171" cy="137" r="1" fill="#BCB4FF"/>
<circle cx="1" cy="154" r="1" fill="#BCB4FF"/>
<circle cx="18" cy="154" r="1" fill="#BCB4FF"/>
<circle cx="35" cy="154" r="1" fill="#BCB4FF"/>
<circle cx="52" cy="154" r="1" fill="#BCB4FF"/>
<circle cx="69" cy="154" r="1" fill="#BCB4FF"/>
<circle cx="86" cy="154" r="1" fill="#BCB4FF"/>
<circle cx="103" cy="154" r="1" fill="#BCB4FF"/>
<circle cx="120" cy="154" r="1" fill="#BCB4FF"/>
<circle cx="137" cy="154" r="1" fill="#BCB4FF"/>
<circle cx="154" cy="154" r="1" fill="#BCB4FF"/>
<circle cx="171" cy="154" r="1" fill="#BCB4FF"/>
<circle cx="1" cy="171" r="1" fill="#BCB4FF"/>
<circle cx="18" cy="171" r="1" fill="#BCB4FF"/>
<circle cx="35" cy="171" r="1" fill="#BCB4FF"/>
<circle cx="52" cy="171" r="1" fill="#BCB4FF"/>
<circle cx="69" cy="171" r="1" fill="#BCB4FF"/>
<circle cx="86" cy="171" r="1" fill="#BCB4FF"/>
<circle cx="103" cy="171" r="1" fill="#BCB4FF"/>
<circle cx="120" cy="171" r="1" fill="#BCB4FF"/>
<circle cx="137" cy="171" r="1" fill="#BCB4FF"/>
<circle cx="154" cy="171" r="1" fill="#BCB4FF"/>
<circle cx="171" cy="171" r="1" fill="#BCB4FF"/>
<circle cx="1" cy="188" r="1" fill="#BCB4FF"/>
<circle cx="18" cy="188" r="1" fill="#BCB4FF"/>
<circle cx="35" cy="188" r="1" fill="#BCB4FF"/>
<circle cx="52" cy="188" r="1" fill="#BCB4FF"/>
<circle cx="69" cy="188" r="1" fill="#BCB4FF"/>
<circle cx="86" cy="188" r="1" fill="#BCB4FF"/>
<circle cx="103" cy="188" r="1" fill="#BCB4FF"/>
<circle cx="120" cy="188" r="1" fill="#BCB4FF"/>
<circle cx="137" cy="188" r="1" fill="#BCB4FF"/>
<circle cx="154" cy="188" r="1" fill="#BCB4FF"/>
<circle cx="171" cy="188" r="1" fill="#BCB4FF"/>
<circle cx="1" cy="205" r="1" fill="#BCB4FF"/>
<circle cx="18" cy="205" r="1" fill="#BCB4FF"/>
<circle cx="35" cy="205" r="1" fill="#BCB4FF"/>
<circle cx="52" cy="205" r="1" fill="#BCB4FF"/>
<circle cx="69" cy="205" r="1" fill="#BCB4FF"/>
<circle cx="86" cy="205" r="1" fill="#BCB4FF"/>
<circle cx="103" cy="205" r="1" fill="#BCB4FF"/>
<circle cx="120" cy="205" r="1" fill="#BCB4FF"/>
<circle cx="137" cy="205" r="1" fill="#BCB4FF"/>
<circle cx="154" cy="205" r="1" fill="#BCB4FF"/>
<circle cx="171" cy="205" r="1" fill="#BCB4FF"/>
<circle cx="1" cy="222" r="1" fill="#BCB4FF"/>
<circle cx="18" cy="222" r="1" fill="#BCB4FF"/>
<circle cx="35" cy="222" r="1" fill="#BCB4FF"/>
<circle cx="52" cy="222" r="1" fill="#BCB4FF"/>
<circle cx="69" cy="222" r="1" fill="#BCB4FF"/>
<circle cx="86" cy="222" r="1" fill="#BCB4FF"/>
<circle cx="103" cy="222" r="1" fill="#BCB4FF"/>
<circle cx="120" cy="222" r="1" fill="#BCB4FF"/>
<circle cx="137" cy="222" r="1" fill="#BCB4FF"/>
<circle cx="154" cy="222" r="1" fill="#BCB4FF"/>
<circle cx="171" cy="222" r="1" fill="#BCB4FF"/>
</svg>
