<svg width="69" height="51" viewBox="0 0 69 51" fill="none" xmlns="http://www.w3.org/2000/svg">
<g opacity="0.3">
<path d="M0.659574 51C0.439716 49.4721 0.274823 47.8897 0.164893 46.2527C0.0549644 44.6157 0 43.4152 0 42.6512C0 35.3393 1.31915 28.4093 3.95745 21.8612C6.59575 15.204 9.83865 9.58363 13.6862 5L31 8.92882C28.9113 13.6216 27.2074 18.9146 25.8883 24.8078C24.6791 30.7011 24.0745 36.3215 24.0745 41.669C24.0745 41.8873 24.0745 42.3784 24.0745 43.1423C24.0745 43.7972 24.0745 44.6157 24.0745 45.5979C24.1844 46.4709 24.2394 47.3986 24.2394 48.3808C24.3493 49.363 24.4592 50.2361 24.5691 51H0.659574Z" fill="#DCDEE7"/>
<path d="M68.3404 0C68.5603 1.52788 68.7252 3.11032 68.8351 4.74733C68.945 6.38434 69 7.58481 69 8.34876C69 15.6607 67.6809 22.6453 65.0426 29.3025C62.4043 35.8505 59.1613 41.4164 55.3138 46L38 42.0712C40.0887 37.3784 41.7376 32.0854 42.9468 26.1922C44.266 20.2989 44.9255 14.6785 44.9255 9.33096C44.9255 9.11269 44.9255 8.67615 44.9255 8.02135C44.9255 7.25741 44.8706 6.43891 44.7606 5.56583C44.7606 4.58363 44.7057 3.60142 44.5957 2.61921C44.5957 1.637 44.5408 0.763935 44.4309 0H68.3404Z" fill="#DCDEE7"/>
</g>
</svg>
