<svg width="156" height="156" viewBox="0 0 156 156" fill="none" xmlns="http://www.w3.org/2000/svg">
<g opacity="0.3">
<circle cx="153.216" cy="103.071" r="2.78572" transform="rotate(-180 153.216 103.071)" fill="white"/>
<circle cx="153.216" cy="86.3568" r="2.78572" transform="rotate(-180 153.216 86.3568)" fill="white"/>
<circle cx="153.216" cy="69.6425" r="2.78572" transform="rotate(-180 153.216 69.6425)" fill="white"/>
<circle cx="153.216" cy="52.9266" r="2.78572" transform="rotate(-180 153.216 52.9266)" fill="white"/>
<circle cx="153.216" cy="36.2139" r="2.78572" transform="rotate(-180 153.216 36.2139)" fill="white"/>
<circle cx="136.501" cy="136.5" r="2.78572" transform="rotate(-180 136.501 136.5)" fill="white"/>
<circle cx="136.501" cy="119.784" r="2.78572" transform="rotate(-180 136.501 119.784)" fill="white"/>
<circle cx="149.872" cy="119.784" r="2.78572" transform="rotate(-180 149.872 119.784)" fill="white"/>
<circle cx="136.501" cy="103.071" r="2.78572" transform="rotate(-180 136.501 103.071)" fill="white"/>
<circle cx="136.501" cy="86.3568" r="2.78572" transform="rotate(-180 136.501 86.3568)" fill="white"/>
<circle cx="136.501" cy="69.6425" r="2.78572" transform="rotate(-180 136.501 69.6425)" fill="white"/>
<circle cx="136.501" cy="52.9266" r="2.78572" transform="rotate(-180 136.501 52.9266)" fill="white"/>
<circle cx="136.501" cy="36.2139" r="2.78572" transform="rotate(-180 136.501 36.2139)" fill="white"/>
<circle cx="136.501" cy="19.4996" r="2.78572" transform="rotate(-180 136.501 19.4996)" fill="white"/>
<circle cx="119.786" cy="136.5" r="2.78572" transform="rotate(-180 119.786 136.5)" fill="white"/>
<circle cx="119.786" cy="147.643" r="2.78572" transform="rotate(-180 119.786 147.643)" fill="white"/>
<circle cx="119.786" cy="119.784" r="2.78572" transform="rotate(-180 119.786 119.784)" fill="white"/>
<circle cx="119.786" cy="103.071" r="2.78572" transform="rotate(-180 119.786 103.071)" fill="white"/>
<circle cx="119.786" cy="86.3568" r="2.78572" transform="rotate(-180 119.786 86.3568)" fill="white"/>
<circle cx="119.786" cy="69.6425" r="2.78572" transform="rotate(-180 119.786 69.6425)" fill="white"/>
<circle cx="119.786" cy="52.9266" r="2.78572" transform="rotate(-180 119.786 52.9266)" fill="white"/>
<circle cx="119.786" cy="36.2139" r="2.78572" transform="rotate(-180 119.786 36.2139)" fill="white"/>
<circle cx="119.786" cy="19.4996" r="2.78572" transform="rotate(-180 119.786 19.4996)" fill="white"/>
<circle cx="119.786" cy="2.78526" r="2.78572" transform="rotate(-180 119.786 2.78526)" fill="white"/>
<circle cx="103.073" cy="153.214" r="2.78572" transform="rotate(-180 103.073 153.214)" fill="white"/>
<circle cx="103.073" cy="136.5" r="2.78572" transform="rotate(-180 103.073 136.5)" fill="white"/>
<circle cx="103.073" cy="119.784" r="2.78572" transform="rotate(-180 103.073 119.784)" fill="white"/>
<circle cx="103.073" cy="103.071" r="2.78572" transform="rotate(-180 103.073 103.071)" fill="white"/>
<circle cx="103.073" cy="86.3568" r="2.78572" transform="rotate(-180 103.073 86.3568)" fill="white"/>
<circle cx="103.073" cy="69.6425" r="2.78572" transform="rotate(-180 103.073 69.6425)" fill="white"/>
<circle cx="103.073" cy="52.9266" r="2.78572" transform="rotate(-180 103.073 52.9266)" fill="white"/>
<circle cx="103.073" cy="36.2139" r="2.78572" transform="rotate(-180 103.073 36.2139)" fill="white"/>
<circle cx="103.073" cy="19.4996" r="2.78572" transform="rotate(-180 103.073 19.4996)" fill="white"/>
<circle cx="103.073" cy="2.78526" r="2.78572" transform="rotate(-180 103.073 2.78526)" fill="white"/>
<circle cx="86.3598" cy="153.214" r="2.78572" transform="rotate(-180 86.3598 153.214)" fill="white"/>
<circle cx="86.3598" cy="136.5" r="2.78572" transform="rotate(-180 86.3598 136.5)" fill="white"/>
<circle cx="86.3598" cy="119.784" r="2.78572" transform="rotate(-180 86.3598 119.784)" fill="white"/>
<circle cx="86.3598" cy="103.071" r="2.78572" transform="rotate(-180 86.3598 103.071)" fill="white"/>
<circle cx="86.3598" cy="86.3568" r="2.78572" transform="rotate(-180 86.3598 86.3568)" fill="white"/>
<circle cx="86.3598" cy="69.6425" r="2.78572" transform="rotate(-180 86.3598 69.6425)" fill="white"/>
<circle cx="86.3598" cy="52.9266" r="2.78572" transform="rotate(-180 86.3598 52.9266)" fill="white"/>
<circle cx="86.3598" cy="36.2139" r="2.78572" transform="rotate(-180 86.3598 36.2139)" fill="white"/>
<circle cx="86.3598" cy="19.4996" r="2.78572" transform="rotate(-180 86.3598 19.4996)" fill="white"/>
<circle cx="86.3598" cy="2.78526" r="2.78572" transform="rotate(-180 86.3598 2.78526)" fill="white"/>
<circle cx="69.6469" cy="153.214" r="2.78572" transform="rotate(-180 69.6469 153.214)" fill="white"/>
<circle cx="69.6469" cy="136.5" r="2.78572" transform="rotate(-180 69.6469 136.5)" fill="white"/>
<circle cx="69.6469" cy="119.784" r="2.78572" transform="rotate(-180 69.6469 119.784)" fill="white"/>
<circle cx="69.6469" cy="103.071" r="2.78572" transform="rotate(-180 69.6469 103.071)" fill="white"/>
<circle cx="69.6469" cy="86.3568" r="2.78572" transform="rotate(-180 69.6469 86.3568)" fill="white"/>
<circle cx="69.6469" cy="69.6425" r="2.78572" transform="rotate(-180 69.6469 69.6425)" fill="white"/>
<circle cx="69.6469" cy="52.9266" r="2.78572" transform="rotate(-180 69.6469 52.9266)" fill="white"/>
<circle cx="69.6469" cy="36.2139" r="2.78572" transform="rotate(-180 69.6469 36.2139)" fill="white"/>
<circle cx="69.6469" cy="19.4996" r="2.78572" transform="rotate(-180 69.6469 19.4996)" fill="white"/>
<circle cx="69.6469" cy="2.78526" r="2.78572" transform="rotate(-180 69.6469 2.78526)" fill="white"/>
<circle cx="52.9311" cy="153.214" r="2.78572" transform="rotate(-180 52.9311 153.214)" fill="white"/>
<circle cx="52.9311" cy="136.5" r="2.78572" transform="rotate(-180 52.9311 136.5)" fill="white"/>
<circle cx="52.9311" cy="119.784" r="2.78572" transform="rotate(-180 52.9311 119.784)" fill="white"/>
<circle cx="52.9311" cy="103.071" r="2.78572" transform="rotate(-180 52.9311 103.071)" fill="white"/>
<circle cx="52.9311" cy="86.3568" r="2.78572" transform="rotate(-180 52.9311 86.3568)" fill="white"/>
<circle cx="52.9311" cy="69.6425" r="2.78572" transform="rotate(-180 52.9311 69.6425)" fill="white"/>
<circle cx="52.9311" cy="52.9266" r="2.78572" transform="rotate(-180 52.9311 52.9266)" fill="white"/>
<circle cx="52.9311" cy="36.2139" r="2.78572" transform="rotate(-180 52.9311 36.2139)" fill="white"/>
<circle cx="52.9311" cy="19.4996" r="2.78572" transform="rotate(-180 52.9311 19.4996)" fill="white"/>
<circle cx="52.9311" cy="2.78526" r="2.78572" transform="rotate(-180 52.9311 2.78526)" fill="white"/>
<circle cx="52.9311" cy="153.214" r="2.78572" transform="rotate(-180 52.9311 153.214)" fill="white"/>
<circle cx="52.9311" cy="136.5" r="2.78572" transform="rotate(-180 52.9311 136.5)" fill="white"/>
<circle cx="52.9311" cy="119.784" r="2.78572" transform="rotate(-180 52.9311 119.784)" fill="white"/>
<circle cx="52.9311" cy="103.071" r="2.78572" transform="rotate(-180 52.9311 103.071)" fill="white"/>
<circle cx="52.9311" cy="86.3568" r="2.78572" transform="rotate(-180 52.9311 86.3568)" fill="white"/>
<circle cx="52.9311" cy="69.6425" r="2.78572" transform="rotate(-180 52.9311 69.6425)" fill="white"/>
<circle cx="52.9311" cy="52.9266" r="2.78572" transform="rotate(-180 52.9311 52.9266)" fill="white"/>
<circle cx="52.9311" cy="36.2139" r="2.78572" transform="rotate(-180 52.9311 36.2139)" fill="white"/>
<circle cx="52.9311" cy="19.4996" r="2.78572" transform="rotate(-180 52.9311 19.4996)" fill="white"/>
<circle cx="52.9311" cy="2.78526" r="2.78572" transform="rotate(-180 52.9311 2.78526)" fill="white"/>
<circle cx="36.2162" cy="136.5" r="2.78572" transform="rotate(-180 36.2162 136.5)" fill="white"/>
<circle cx="36.2162" cy="119.784" r="2.78572" transform="rotate(-180 36.2162 119.784)" fill="white"/>
<circle cx="36.2162" cy="103.071" r="2.78572" transform="rotate(-180 36.2162 103.071)" fill="white"/>
<circle cx="36.2162" cy="86.3568" r="2.78572" transform="rotate(-180 36.2162 86.3568)" fill="white"/>
<circle cx="36.2162" cy="69.6425" r="2.78572" transform="rotate(-180 36.2162 69.6425)" fill="white"/>
<circle cx="36.2162" cy="52.9266" r="2.78572" transform="rotate(-180 36.2162 52.9266)" fill="white"/>
<circle cx="36.2162" cy="36.2139" r="2.78572" transform="rotate(-180 36.2162 36.2139)" fill="white"/>
<circle cx="36.2162" cy="19.4996" r="2.78572" transform="rotate(-180 36.2162 19.4996)" fill="white"/>
<circle cx="36.2162" cy="2.78526" r="2.78572" transform="rotate(-180 36.2162 2.78526)" fill="white"/>
<circle cx="19.5004" cy="119.784" r="2.78572" transform="rotate(-180 19.5004 119.784)" fill="white"/>
<circle cx="19.5004" cy="103.071" r="2.78572" transform="rotate(-180 19.5004 103.071)" fill="white"/>
<circle cx="19.5004" cy="86.3568" r="2.78572" transform="rotate(-180 19.5004 86.3568)" fill="white"/>
<circle cx="19.5004" cy="69.6425" r="2.78572" transform="rotate(-180 19.5004 69.6425)" fill="white"/>
<circle cx="19.5004" cy="52.9266" r="2.78572" transform="rotate(-180 19.5004 52.9266)" fill="white"/>
<circle cx="19.5004" cy="36.2139" r="2.78572" transform="rotate(-180 19.5004 36.2139)" fill="white"/>
<circle cx="19.5004" cy="19.4996" r="2.78572" transform="rotate(-180 19.5004 19.4996)" fill="white"/>
<circle cx="2.78557" cy="103.071" r="2.78572" transform="rotate(-180 2.78557 103.071)" fill="white"/>
<circle cx="2.78557" cy="86.3568" r="2.78572" transform="rotate(-180 2.78557 86.3568)" fill="white"/>
<circle cx="2.78557" cy="69.6425" r="2.78572" transform="rotate(-180 2.78557 69.6425)" fill="white"/>
<circle cx="2.78557" cy="52.9266" r="2.78572" transform="rotate(-180 2.78557 52.9266)" fill="white"/>
</g>
</svg>
