<svg width="721" height="663" viewBox="0 0 721 663" fill="none" xmlns="http://www.w3.org/2000/svg">
<path opacity="0.05" d="M206.613 241.538C223.856 350.752 76.0555 373.239 1.47056e-08 370.832L3.21562e-05 3.17573C45.336 -11.2705 97.3609 26.2897 97.3609 60.9606C97.3609 95.6315 108.509 131.025 126.346 142.582C196.951 193.143 202.154 215.535 206.613 241.538Z" fill="url(#paint0_linear_214_66)"/>
<path opacity="0.05" d="M390.916 445.338C115.85 445.338 262.903 193 6.10352e-05 193L1.99464e-05 663L721 663C721 509.89 576.588 445.338 390.916 445.338Z" fill="url(#paint1_linear_214_66)"/>
<defs>
<linearGradient id="paint0_linear_214_66" x1="208" y1="185.5" x2="1.29116e-05" y2="185.5" gradientUnits="userSpaceOnUse">
<stop stop-color="#20D9A1"/>
<stop offset="1" stop-color="#5F39FF"/>
</linearGradient>
<linearGradient id="paint1_linear_214_66" x1="721" y1="428" x2="2.90336e-05" y2="428" gradientUnits="userSpaceOnUse">
<stop stop-color="#20D9A1"/>
<stop offset="1" stop-color="#5F39FF"/>
</linearGradient>
</defs>
</svg>
