<svg width="96" height="116" viewBox="0 0 96 116" fill="none" xmlns="http://www.w3.org/2000/svg">
<g opacity="0.3">
<circle cx="6.92981" cy="14.5001" r="2.07141" fill="white"/>
<circle cx="6.92981" cy="6.21399" r="2.07141" fill="white"/>
<circle cx="6.92981" cy="26.9283" r="2.07141" fill="white"/>
<circle cx="6.92981" cy="39.3571" r="2.07141" fill="white"/>
<circle cx="6.92981" cy="51.7853" r="2.07141" fill="white"/>
<circle cx="6.92981" cy="64.214" r="2.07141" fill="white"/>
<circle cx="6.92981" cy="76.6422" r="2.07141" fill="white"/>
<circle cx="6.92981" cy="89.0709" r="2.07141" fill="white"/>
<circle cx="6.92981" cy="101.499" r="2.07141" fill="white"/>
<circle cx="6.92981" cy="113.928" r="2.07141" fill="white"/>
<circle cx="19.3575" cy="2.07141" r="2.07141" fill="white"/>
<circle cx="19.3575" cy="14.5001" r="2.07141" fill="white"/>
<circle cx="19.3575" cy="26.9283" r="2.07141" fill="white"/>
<circle cx="19.3575" cy="39.3571" r="2.07141" fill="white"/>
<circle cx="19.3575" cy="51.7853" r="2.07141" fill="white"/>
<circle cx="19.3575" cy="64.214" r="2.07141" fill="white"/>
<circle cx="19.3575" cy="76.6422" r="2.07141" fill="white"/>
<circle cx="19.3575" cy="89.0709" r="2.07141" fill="white"/>
<circle cx="19.3575" cy="101.499" r="2.07141" fill="white"/>
<circle cx="19.3575" cy="113.928" r="2.07141" fill="white"/>
<circle cx="31.7843" cy="2.07141" r="2.07141" fill="white"/>
<circle cx="31.7843" cy="14.5001" r="2.07141" fill="white"/>
<circle cx="31.7843" cy="26.9283" r="2.07141" fill="white"/>
<circle cx="31.7843" cy="39.3571" r="2.07141" fill="white"/>
<circle cx="31.7843" cy="51.7853" r="2.07141" fill="white"/>
<circle cx="31.7843" cy="64.214" r="2.07141" fill="white"/>
<circle cx="31.7843" cy="76.6422" r="2.07141" fill="white"/>
<circle cx="31.7843" cy="89.0709" r="2.07141" fill="white"/>
<circle cx="31.7843" cy="101.499" r="2.07141" fill="white"/>
<circle cx="31.7843" cy="113.928" r="2.07141" fill="white"/>
<circle cx="44.212" cy="2.07141" r="2.07141" fill="white"/>
<circle cx="44.212" cy="14.5001" r="2.07141" fill="white"/>
<circle cx="44.212" cy="26.9283" r="2.07141" fill="white"/>
<circle cx="44.212" cy="39.3566" r="2.07141" fill="white"/>
<circle cx="44.212" cy="51.7853" r="2.07141" fill="white"/>
<circle cx="44.212" cy="64.214" r="2.07141" fill="white"/>
<circle cx="44.212" cy="76.6422" r="2.07141" fill="white"/>
<circle cx="44.212" cy="89.0709" r="2.07141" fill="white"/>
<circle cx="44.212" cy="101.499" r="2.07141" fill="white"/>
<circle cx="44.212" cy="113.928" r="2.07141" fill="white"/>
<circle cx="56.6417" cy="2.07141" r="2.07141" fill="white"/>
<circle cx="56.6417" cy="14.5001" r="2.07141" fill="white"/>
<circle cx="56.6417" cy="26.9283" r="2.07141" fill="white"/>
<circle cx="56.6417" cy="39.3571" r="2.07141" fill="white"/>
<circle cx="56.6417" cy="51.7853" r="2.07141" fill="white"/>
<circle cx="56.6417" cy="64.214" r="2.07141" fill="white"/>
<circle cx="56.6417" cy="76.6422" r="2.07141" fill="white"/>
<circle cx="56.6417" cy="89.0709" r="2.07141" fill="white"/>
<circle cx="56.6417" cy="101.499" r="2.07141" fill="white"/>
<circle cx="56.6417" cy="113.928" r="2.07141" fill="white"/>
<circle cx="56.6417" cy="2.07141" r="2.07141" fill="white"/>
<circle cx="56.6417" cy="14.5001" r="2.07141" fill="white"/>
<circle cx="56.6417" cy="26.9283" r="2.07141" fill="white"/>
<circle cx="56.6417" cy="39.3571" r="2.07141" fill="white"/>
<circle cx="56.6417" cy="51.7853" r="2.07141" fill="white"/>
<circle cx="56.6417" cy="64.214" r="2.07141" fill="white"/>
<circle cx="56.6417" cy="76.6422" r="2.07141" fill="white"/>
<circle cx="56.6417" cy="89.0709" r="2.07141" fill="white"/>
<circle cx="56.6417" cy="101.499" r="2.07141" fill="white"/>
<circle cx="56.6417" cy="113.928" r="2.07141" fill="white"/>
<circle cx="69.0704" cy="14.5001" r="2.07141" fill="white"/>
<circle cx="69.0704" cy="26.9283" r="2.07141" fill="white"/>
<circle cx="69.0704" cy="39.3566" r="2.07141" fill="white"/>
<circle cx="69.0704" cy="51.7853" r="2.07141" fill="white"/>
<circle cx="69.0704" cy="64.214" r="2.07141" fill="white"/>
<circle cx="69.0704" cy="76.6422" r="2.07141" fill="white"/>
<circle cx="69.0704" cy="89.0709" r="2.07141" fill="white"/>
<circle cx="69.0704" cy="101.499" r="2.07141" fill="white"/>
<circle cx="69.0704" cy="113.928" r="2.07141" fill="white"/>
<circle cx="81.5001" cy="26.9283" r="2.07141" fill="white"/>
<circle cx="81.5001" cy="39.3566" r="2.07141" fill="white"/>
<circle cx="81.5001" cy="51.7853" r="2.07141" fill="white"/>
<circle cx="81.5001" cy="64.214" r="2.07141" fill="white"/>
<circle cx="81.5001" cy="76.6422" r="2.07141" fill="white"/>
<circle cx="81.5001" cy="89.0709" r="2.07141" fill="white"/>
<circle cx="81.5001" cy="101.499" r="2.07141" fill="white"/>
<circle cx="93.9288" cy="39.3571" r="2.07141" fill="white"/>
<circle cx="93.9288" cy="51.7853" r="2.07141" fill="white"/>
<circle cx="93.9288" cy="64.214" r="2.07141" fill="white"/>
<circle cx="93.9288" cy="76.6422" r="2.07141" fill="white"/>
</g>
</svg>
