<svg width="190" height="172" viewBox="0 0 190 172" fill="none" xmlns="http://www.w3.org/2000/svg">
<g opacity="0.3">
<path d="M50.1043 47.534C54.9582 23.449 71.3221 15.2486 78.8973 14.1591C106.101 9.09958 140.77 42.8852 155.783 61.5268C170.797 80.1685 177.987 105.893 155.3 121.009C132.613 136.125 117.31 158.609 85.077 161.85C52.8444 165.091 27.2346 139.918 23.0758 116.264C18.917 92.61 44.0369 77.6402 50.1043 47.534Z" stroke="url(#paint0_linear_1_3989)"/>
<path d="M48.9269 41.9163C57.7798 16.8586 78.2023 9.72567 87.307 9.29143C120.151 6.51702 156.814 45.6107 172.174 66.7898C187.534 87.9689 192.721 115.909 163.923 129.768C135.126 143.628 114.115 165.995 75.5544 166.365C36.9942 166.734 9.93873 137.627 8.07096 112.169C6.20319 86.7114 37.8608 73.2384 48.9269 41.9163Z" stroke="url(#paint1_linear_1_3989)"/>
<path d="M59.1468 51.923C66.0273 32.4483 81.8996 26.9047 88.9756 26.5672C114.502 24.4109 142.996 54.7943 154.934 71.2546C166.871 87.7149 170.903 109.43 148.522 120.201C126.14 130.973 109.81 148.357 79.8416 148.644C49.8728 148.931 28.8454 126.309 27.3938 106.523C25.9422 86.7376 50.5463 76.2664 59.1468 51.923Z" stroke="url(#paint2_linear_1_3989)"/>
<path d="M63.7596 56.4404C69.7496 39.4859 83.5678 34.6596 89.7282 34.3658C111.951 32.4886 136.758 58.9401 147.151 73.2702C157.543 87.6004 161.053 106.505 141.568 115.883C122.083 125.26 107.867 140.395 81.7762 140.644C55.6857 140.894 37.3795 121.2 36.1157 103.975C34.852 86.7495 56.272 77.6335 63.7596 56.4404Z" stroke="url(#paint3_linear_1_3989)"/>
<path d="M68.2422 60.8293C73.3672 46.3234 85.1898 42.1941 90.4604 41.9428C109.474 40.3367 130.698 62.968 139.59 75.2286C148.482 87.4891 151.485 103.664 134.814 111.687C118.143 119.71 105.979 132.659 83.6569 132.872C61.3344 133.086 45.672 116.236 44.5907 101.499C43.5095 86.7612 61.836 78.9616 68.2422 60.8293Z" stroke="url(#paint4_linear_1_3989)"/>
<path d="M74.5856 67.0406C78.4862 56.0002 87.4843 52.8574 91.4958 52.6661C105.967 51.4437 122.121 68.6684 128.888 77.9999C135.656 87.3314 137.941 99.6419 125.253 105.748C112.565 111.855 103.307 121.71 86.3177 121.873C69.328 122.035 57.4073 109.211 56.5844 97.9942C55.7615 86.7774 69.7098 80.8412 74.5856 67.0406Z" stroke="url(#paint5_linear_1_3989)"/>
<path d="M78.5314 70.9043C81.6704 62.0195 88.9117 59.4904 92.14 59.3364C103.786 58.3526 116.786 72.2143 122.232 79.7239C127.678 87.2334 129.517 97.1403 119.306 102.054C109.095 106.969 101.645 114.9 87.9728 115.031C74.3003 115.162 64.7071 104.841 64.0449 95.8143C63.3826 86.7876 74.6076 82.0104 78.5314 70.9043Z" stroke="url(#paint6_linear_1_3989)"/>
<path d="M81.7704 74.076C84.2843 66.9607 90.0833 64.9353 92.6686 64.812C101.995 64.0242 112.406 75.125 116.767 81.1389C121.128 87.1528 122.601 95.0865 114.424 99.0219C106.247 102.957 100.281 109.309 89.3314 109.414C78.3821 109.518 70.6996 101.254 70.1692 94.0246C69.6389 86.7957 78.6282 82.97 81.7704 74.076Z" stroke="url(#paint7_linear_1_3989)"/>
</g>
<defs>
<linearGradient id="paint0_linear_1_3989" x1="19.9856" y1="99.6599" x2="166.154" y2="72.4746" gradientUnits="userSpaceOnUse">
<stop stop-color="#20D9A1"/>
<stop offset="1" stop-color="#5F39FF"/>
</linearGradient>
<linearGradient id="paint1_linear_1_3989" x1="6.55763" y1="94.2827" x2="183.033" y2="79.3754" gradientUnits="userSpaceOnUse">
<stop stop-color="#20D9A1"/>
<stop offset="1" stop-color="#5F39FF"/>
</linearGradient>
<linearGradient id="paint2_linear_1_3989" x1="26.2176" y1="92.622" x2="163.373" y2="81.0361" gradientUnits="userSpaceOnUse">
<stop stop-color="#20D9A1"/>
<stop offset="1" stop-color="#5F39FF"/>
</linearGradient>
<linearGradient id="paint3_linear_1_3989" x1="35.0918" y1="91.8724" x2="154.498" y2="81.7859" gradientUnits="userSpaceOnUse">
<stop stop-color="#20D9A1"/>
<stop offset="1" stop-color="#5F39FF"/>
</linearGradient>
<linearGradient id="paint4_linear_1_3989" x1="43.7147" y1="91.1442" x2="145.876" y2="82.5144" gradientUnits="userSpaceOnUse">
<stop stop-color="#20D9A1"/>
<stop offset="1" stop-color="#5F39FF"/>
</linearGradient>
<linearGradient id="paint5_linear_1_3989" x1="55.9176" y1="90.1133" x2="133.673" y2="83.5451" gradientUnits="userSpaceOnUse">
<stop stop-color="#20D9A1"/>
<stop offset="1" stop-color="#5F39FF"/>
</linearGradient>
<linearGradient id="paint6_linear_1_3989" x1="63.5083" y1="89.4721" x2="126.082" y2="84.1864" gradientUnits="userSpaceOnUse">
<stop stop-color="#20D9A1"/>
<stop offset="1" stop-color="#5F39FF"/>
</linearGradient>
<linearGradient id="paint7_linear_1_3989" x1="69.7395" y1="88.9456" x2="119.85" y2="84.7127" gradientUnits="userSpaceOnUse">
<stop stop-color="#20D9A1"/>
<stop offset="1" stop-color="#5F39FF"/>
</linearGradient>
</defs>
</svg>
