<svg width="347" height="345" viewBox="0 0 347 345" fill="none" xmlns="http://www.w3.org/2000/svg">
<path opacity="0.4" d="M162 70.3477L307.625 215.972L307.625 293.94L162 148.315V70.3477Z" fill="url(#paint0_linear_325_24229)"/>
<path opacity="0.4" d="M59.5186 0L281.852 222.333V341.37L59.5186 119.037L59.5186 0Z" fill="url(#paint1_linear_325_24229)"/>
<path opacity="0.4" d="M158.935 24.3281L214.42 79.8138L214.42 109.521L158.935 54.0351V24.3281Z" fill="#D9D9D9"/>
<path opacity="0.4" d="M232 205.804L322.555 296.359L322.555 344.842L232 254.287V205.804Z" fill="url(#paint2_linear_325_24229)"/>
<path opacity="0.4" d="M140.691 166.713L240.508 266.529L240.508 319.971L140.691 220.155V166.713Z" fill="url(#paint3_linear_325_24229)"/>
<path opacity="0.4" d="M247 97.6846L325.677 176.362L325.677 218.485L247 139.808L247 97.6846Z" fill="url(#paint4_linear_325_24229)"/>
<defs>
<linearGradient id="paint0_linear_325_24229" x1="266.322" y1="150.634" x2="215.989" y2="200.967" gradientUnits="userSpaceOnUse">
<stop stop-color="white"/>
<stop offset="1" stop-color="white" stop-opacity="0"/>
</linearGradient>
<linearGradient id="paint1_linear_325_24229" x1="218.793" y1="122.577" x2="141.947" y2="199.423" gradientUnits="userSpaceOnUse">
<stop stop-color="white"/>
<stop offset="1" stop-color="white" stop-opacity="0"/>
</linearGradient>
<linearGradient id="paint2_linear_325_24229" x1="296.872" y1="255.729" x2="265.573" y2="287.028" gradientUnits="userSpaceOnUse">
<stop stop-color="white"/>
<stop offset="1" stop-color="white" stop-opacity="0"/>
</linearGradient>
<linearGradient id="paint3_linear_325_24229" x1="212.198" y1="221.744" x2="177.698" y2="256.244" gradientUnits="userSpaceOnUse">
<stop stop-color="white"/>
<stop offset="1" stop-color="white" stop-opacity="0"/>
</linearGradient>
<linearGradient id="paint4_linear_325_24229" x1="303.363" y1="141.061" x2="276.169" y2="168.255" gradientUnits="userSpaceOnUse">
<stop stop-color="white"/>
<stop offset="1" stop-color="white" stop-opacity="0"/>
</linearGradient>
</defs>
</svg>
