<svg width="636" height="583" viewBox="0 0 636 583" fill="none" xmlns="http://www.w3.org/2000/svg">
<path opacity="0.04" d="M181.78 212.892C196.95 309.153 66.9142 328.974 -3.05046e-05 326.852L-2.09999e-06 2.79912C39.8869 -9.93379 85.6589 23.1718 85.6589 53.7308C85.6589 84.2898 95.4671 115.485 111.16 125.672C173.279 170.237 177.857 189.973 181.78 212.892Z" fill="url(#paint0_linear_1_23646)"/>
<path opacity="0.04" d="M344.831 391.272C102.192 391.272 231.909 169 6.10352e-05 169L2.47463e-05 583L636 583C636 448.133 508.613 391.272 344.831 391.272Z" fill="url(#paint1_linear_1_23646)"/>
<defs>
<linearGradient id="paint0_linear_1_23646" x1="183" y1="163.5" x2="-1.90941e-05" y2="163.5" gradientUnits="userSpaceOnUse">
<stop stop-color="#20D9A1"/>
<stop offset="1" stop-color="#5F39FF"/>
</linearGradient>
<linearGradient id="paint1_linear_1_23646" x1="636" y1="376" x2="3.27843e-05" y2="376" gradientUnits="userSpaceOnUse">
<stop stop-color="#20D9A1"/>
<stop offset="1" stop-color="#5F39FF"/>
</linearGradient>
</defs>
</svg>
