<svg width="923" height="838" viewBox="0 0 923 838" fill="none" xmlns="http://www.w3.org/2000/svg">
<g style="mix-blend-mode:color-dodge" opacity="0.5">
<path d="M748.593 780.695L5.68491 53.6991L115.418 53.6991L867.507 780.696L748.593 780.695Z" fill="url(#paint0_linear_325_15981)"/>
<path d="M859.865 780.695L116.957 53.6991L226.691 53.6991L978.779 780.696L859.865 780.695Z" fill="url(#paint1_linear_325_15981)"/>
<path d="M971.14 780.695L228.232 53.6991L337.965 53.6991L1090.05 780.696L971.14 780.695Z" fill="url(#paint2_linear_325_15981)"/>
<path d="M1082.42 780.695L339.507 53.6991L449.241 53.6991L1201.33 780.696L1082.42 780.695Z" fill="url(#paint3_linear_325_15981)"/>
<path d="M1193.69 780.695L450.78 53.6991L560.513 53.6991L1312.6 780.696L1193.69 780.695Z" fill="url(#paint4_linear_325_15981)"/>
<path d="M1304.96 780.695L562.053 53.6991L671.787 53.6991L1423.88 780.696L1304.96 780.695Z" fill="url(#paint5_linear_325_15981)"/>
<path d="M1416.24 780.695L673.328 53.6991L783.061 53.6991L1535.15 780.696L1416.24 780.695Z" fill="url(#paint6_linear_325_15981)"/>
<path d="M1527.51 780.695L784.6 53.6991L894.333 53.6991L1646.42 780.696L1527.51 780.695Z" fill="url(#paint7_linear_325_15981)"/>
</g>
<defs>
<linearGradient id="paint0_linear_325_15981" x1="735.178" y1="794.008" x2="797.801" y2="729.035" gradientUnits="userSpaceOnUse">
<stop stop-color="#7B61FF"/>
<stop offset="1" stop-color="#D9D9D9" stop-opacity="0"/>
</linearGradient>
<linearGradient id="paint1_linear_325_15981" x1="846.45" y1="794.008" x2="909.074" y2="729.035" gradientUnits="userSpaceOnUse">
<stop stop-color="#7B61FF"/>
<stop offset="1" stop-color="#D9D9D9" stop-opacity="0"/>
</linearGradient>
<linearGradient id="paint2_linear_325_15981" x1="957.725" y1="794.008" x2="1020.35" y2="729.035" gradientUnits="userSpaceOnUse">
<stop stop-color="#7B61FF"/>
<stop offset="1" stop-color="#D9D9D9" stop-opacity="0"/>
</linearGradient>
<linearGradient id="paint3_linear_325_15981" x1="1069" y1="794.008" x2="1131.62" y2="729.035" gradientUnits="userSpaceOnUse">
<stop stop-color="#7B61FF"/>
<stop offset="1" stop-color="#D9D9D9" stop-opacity="0"/>
</linearGradient>
<linearGradient id="paint4_linear_325_15981" x1="1180.27" y1="794.008" x2="1242.9" y2="729.035" gradientUnits="userSpaceOnUse">
<stop stop-color="#7B61FF"/>
<stop offset="1" stop-color="#D9D9D9" stop-opacity="0"/>
</linearGradient>
<linearGradient id="paint5_linear_325_15981" x1="1291.55" y1="794.008" x2="1354.17" y2="729.035" gradientUnits="userSpaceOnUse">
<stop stop-color="#7B61FF"/>
<stop offset="1" stop-color="#D9D9D9" stop-opacity="0"/>
</linearGradient>
<linearGradient id="paint6_linear_325_15981" x1="1402.82" y1="794.008" x2="1465.44" y2="729.035" gradientUnits="userSpaceOnUse">
<stop stop-color="#7B61FF"/>
<stop offset="1" stop-color="#D9D9D9" stop-opacity="0"/>
</linearGradient>
<linearGradient id="paint7_linear_325_15981" x1="1514.09" y1="794.008" x2="1576.72" y2="729.035" gradientUnits="userSpaceOnUse">
<stop stop-color="#7B61FF"/>
<stop offset="1" stop-color="#D9D9D9" stop-opacity="0"/>
</linearGradient>
</defs>
</svg>
