<svg width="815" height="646" viewBox="0 0 815 646" fill="none" xmlns="http://www.w3.org/2000/svg">
<g opacity="0.5">
<path d="M20.4698 689.114L-635.977 46.7277L-539.015 46.7277L125.544 689.116L20.4698 689.114Z" fill="url(#paint0_linear_1_20036)"/>
<path d="M118.793 689.114L-537.654 46.7277L-440.691 46.7277L223.868 689.116L118.793 689.114Z" fill="url(#paint1_linear_1_20036)"/>
<path d="M217.116 689.114L-439.331 46.7277L-342.368 46.7277L322.191 689.116L217.116 689.114Z" fill="url(#paint2_linear_1_20036)"/>
<path d="M315.441 689.114L-341.006 46.7277L-244.043 46.7277L420.516 689.116L315.441 689.114Z" fill="url(#paint3_linear_1_20036)"/>
<path d="M413.765 689.114L-242.682 46.7277L-145.72 46.7277L518.839 689.116L413.765 689.114Z" fill="url(#paint4_linear_1_20036)"/>
<path d="M512.089 689.114L-144.358 46.7277L-47.3956 46.7277L617.163 689.116L512.089 689.114Z" fill="url(#paint5_linear_1_20036)"/>
<path d="M610.411 689.114L-46.0358 46.7277L50.9267 46.7277L715.486 689.116L610.411 689.114Z" fill="url(#paint6_linear_1_20036)"/>
<path d="M708.735 689.114L52.2884 46.7277L149.251 46.7277L813.81 689.116L708.735 689.114Z" fill="url(#paint7_linear_1_20036)"/>
</g>
<defs>
<linearGradient id="paint0_linear_1_20036" x1="8.616" y1="700.878" x2="63.9511" y2="643.467" gradientUnits="userSpaceOnUse">
<stop stop-color="white"/>
<stop offset="1" stop-color="#D9D9D9" stop-opacity="0"/>
</linearGradient>
<linearGradient id="paint1_linear_1_20036" x1="106.939" y1="700.878" x2="162.274" y2="643.467" gradientUnits="userSpaceOnUse">
<stop stop-color="white"/>
<stop offset="1" stop-color="#D9D9D9" stop-opacity="0"/>
</linearGradient>
<linearGradient id="paint2_linear_1_20036" x1="205.262" y1="700.878" x2="260.598" y2="643.467" gradientUnits="userSpaceOnUse">
<stop stop-color="white"/>
<stop offset="1" stop-color="#D9D9D9" stop-opacity="0"/>
</linearGradient>
<linearGradient id="paint3_linear_1_20036" x1="303.588" y1="700.878" x2="358.923" y2="643.467" gradientUnits="userSpaceOnUse">
<stop stop-color="white"/>
<stop offset="1" stop-color="#D9D9D9" stop-opacity="0"/>
</linearGradient>
<linearGradient id="paint4_linear_1_20036" x1="401.911" y1="700.878" x2="457.246" y2="643.467" gradientUnits="userSpaceOnUse">
<stop stop-color="white"/>
<stop offset="1" stop-color="#D9D9D9" stop-opacity="0"/>
</linearGradient>
<linearGradient id="paint5_linear_1_20036" x1="500.235" y1="700.878" x2="555.57" y2="643.467" gradientUnits="userSpaceOnUse">
<stop stop-color="white"/>
<stop offset="1" stop-color="#D9D9D9" stop-opacity="0"/>
</linearGradient>
<linearGradient id="paint6_linear_1_20036" x1="598.557" y1="700.878" x2="653.892" y2="643.467" gradientUnits="userSpaceOnUse">
<stop stop-color="white"/>
<stop offset="1" stop-color="#D9D9D9" stop-opacity="0"/>
</linearGradient>
<linearGradient id="paint7_linear_1_20036" x1="696.882" y1="700.878" x2="752.217" y2="643.467" gradientUnits="userSpaceOnUse">
<stop stop-color="white"/>
<stop offset="1" stop-color="#D9D9D9" stop-opacity="0"/>
</linearGradient>
</defs>
</svg>
