<svg width="22" height="20" viewBox="0 0 22 20" fill="none" xmlns="http://www.w3.org/2000/svg">
<path d="M9.94771 0.403527L0.425978 9.92536C-0.112016 10.4633 -0.112071 11.3388 0.425977 11.8769L2.78178 14.2328C3.04245 14.4934 3.38898 14.637 3.75756 14.637C4.12614 14.637 4.47272 14.4934 4.73334 14.2328L10.9235 8.04263L17.1151 14.233C17.6532 14.7709 18.5286 14.7709 19.0666 14.2329L21.4224 11.8771C21.6831 11.6164 21.8267 11.2699 21.8266 10.9012C21.8266 10.5326 21.683 10.1861 21.4224 9.92547L11.8992 0.403527C11.3612 -0.134412 10.4858 -0.134412 9.94771 0.403527ZM11.3162 0.986596L20.8394 10.5084C20.9443 10.6133 21.0021 10.7528 21.0021 10.9012C21.0021 11.0496 20.9443 11.189 20.8394 11.294L18.4835 13.6499C18.267 13.8664 17.9147 13.8664 17.6981 13.6499L11.215 7.16811C11.2147 7.16783 11.2144 7.16756 11.2141 7.16728C11.2137 7.16695 11.2135 7.16657 11.2131 7.16624C10.8091 6.76737 10.3933 6.35246 9.97734 5.93309C9.81699 5.77142 9.55594 5.77038 9.39432 5.93073C9.23265 6.09107 9.23161 6.35213 9.39196 6.51374C9.70947 6.83383 10.0268 7.15123 10.339 7.46104L4.15032 13.6498C4.04538 13.7547 3.90592 13.8124 3.75756 13.8124C3.6092 13.8124 3.46974 13.7546 3.3648 13.6498L1.00894 11.2939C0.900646 11.1856 0.8465 11.0434 0.8465 10.9011C0.8465 10.7589 0.900646 10.6167 1.00894 10.5084L7.19738 4.31993C7.51516 4.6403 7.82333 4.94742 8.16447 5.28367C8.32664 5.44352 8.58763 5.44166 8.74749 5.27949C8.8267 5.19918 8.86617 5.09463 8.86617 4.99008C8.86617 4.88354 8.82516 4.77712 8.74331 4.69648C8.40365 4.3616 8.09686 4.05591 7.78045 3.73687L10.5307 0.986596C10.7473 0.770068 11.0996 0.770068 11.3162 0.986596Z" fill="url(#paint0_linear_1_19995)"/>
<path d="M20.5586 2.40706C20.5586 2.6348 20.7432 2.81934 20.9709 2.81934L21.4336 2.81934C21.6612 2.81934 21.8458 2.6348 21.8458 2.40706C21.8458 2.17932 21.6612 1.99478 21.4336 1.99478L20.9709 1.99478C20.7432 1.99478 20.5586 2.17932 20.5586 2.40706Z" fill="url(#paint1_linear_1_19995)"/>
<path d="M20.5586 4.8409C20.5586 5.06864 20.7432 5.25317 20.9709 5.25317L21.4336 5.25317C21.6612 5.25317 21.8458 5.06864 21.8458 4.8409C21.8458 4.61316 21.6612 4.42862 21.4336 4.42862L20.9709 4.42862C20.7432 4.42862 20.5586 4.61316 20.5586 4.8409Z" fill="url(#paint2_linear_1_19995)"/>
<path d="M20.5586 7.27449C20.5586 7.50223 20.7432 7.68677 20.9709 7.68677L21.4336 7.68677C21.6612 7.68677 21.8458 7.50223 21.8458 7.27449C21.8458 7.04675 21.6612 6.86221 21.4336 6.86221L20.9709 6.86221C20.7432 6.86221 20.5586 7.0468 20.5586 7.27449Z" fill="url(#paint3_linear_1_19995)"/>
<path d="M5.40636e-08 14.7208C2.42061e-08 14.9485 0.18459 15.1331 0.412277 15.1331L0.874962 15.1331C1.10265 15.1331 1.28724 14.9485 1.28724 14.7208C1.28724 14.4931 1.10265 14.3085 0.874962 14.3085L0.412277 14.3085C0.18459 14.3085 8.3921e-08 14.4931 5.40636e-08 14.7208Z" fill="url(#paint4_linear_1_19995)"/>
<path d="M5.40636e-08 17.1544C2.42061e-08 17.3821 0.18459 17.5667 0.412277 17.5667L0.874962 17.5667C1.10265 17.5667 1.28724 17.3821 1.28724 17.1544C1.28724 16.9267 1.10265 16.7421 0.874962 16.7421L0.412277 16.7421C0.18459 16.7421 8.3921e-08 16.9267 5.40636e-08 17.1544Z" fill="url(#paint5_linear_1_19995)"/>
<path d="M5.40636e-08 19.588C2.42061e-08 19.8157 0.18459 20.0002 0.412277 20.0002L0.874962 20.0002C1.10265 20.0002 1.28724 19.8157 1.28724 19.588C1.28724 19.3603 1.10265 19.1757 0.874962 19.1757L0.412277 19.1757C0.18459 19.1757 8.3921e-08 19.3603 5.40636e-08 19.588Z" fill="url(#paint6_linear_1_19995)"/>
<defs>
<linearGradient id="paint0_linear_1_19995" x1="10.9245" y1="14.637" x2="10.9245" y2="7.17689e-05" gradientUnits="userSpaceOnUse">
<stop stop-color="#20D9A1"/>
<stop offset="1" stop-color="#5F39FF"/>
</linearGradient>
<linearGradient id="paint1_linear_1_19995" x1="21.2022" y1="2.81934" x2="21.2022" y2="1.99478" gradientUnits="userSpaceOnUse">
<stop stop-color="#20D9A1"/>
<stop offset="1" stop-color="#5F39FF"/>
</linearGradient>
<linearGradient id="paint2_linear_1_19995" x1="21.2022" y1="5.25317" x2="21.2022" y2="4.42862" gradientUnits="userSpaceOnUse">
<stop stop-color="#20D9A1"/>
<stop offset="1" stop-color="#5F39FF"/>
</linearGradient>
<linearGradient id="paint3_linear_1_19995" x1="21.2022" y1="7.68677" x2="21.2022" y2="6.86221" gradientUnits="userSpaceOnUse">
<stop stop-color="#20D9A1"/>
<stop offset="1" stop-color="#5F39FF"/>
</linearGradient>
<linearGradient id="paint4_linear_1_19995" x1="0.643618" y1="15.1331" x2="0.643618" y2="14.3085" gradientUnits="userSpaceOnUse">
<stop stop-color="#20D9A1"/>
<stop offset="1" stop-color="#5F39FF"/>
</linearGradient>
<linearGradient id="paint5_linear_1_19995" x1="0.643618" y1="17.5667" x2="0.643618" y2="16.7421" gradientUnits="userSpaceOnUse">
<stop stop-color="#20D9A1"/>
<stop offset="1" stop-color="#5F39FF"/>
</linearGradient>
<linearGradient id="paint6_linear_1_19995" x1="0.643618" y1="20.0002" x2="0.643618" y2="19.1757" gradientUnits="userSpaceOnUse">
<stop stop-color="#20D9A1"/>
<stop offset="1" stop-color="#5F39FF"/>
</linearGradient>
</defs>
</svg>
