<svg width="29" height="29" viewBox="0 0 29 29" fill="none" xmlns="http://www.w3.org/2000/svg">
<path fill-rule="evenodd" clip-rule="evenodd" d="M27.7051 11.8456L20.6638 18.8869L23.6379 21.861L21.6936 23.8052L18.7195 20.8311L18.3043 21.2464C16.1566 23.3941 12.6751 23.3941 10.5274 21.2464L10.1121 20.8311L7.13806 23.8052L5.19383 21.861L8.16791 18.8869L1.12662 11.8456L1.06888 11.9019C0.810388 12.1604 0.666016 12.5097 0.666016 12.8741V22.8331C0.666016 25.8704 3.12861 28.333 6.16595 28.333H22.6657C25.7031 28.333 28.1657 25.8704 28.1657 22.8331C28.1657 17.9464 28.1657 12.8741 28.1657 12.8741C28.1657 12.5097 28.0213 12.1604 27.7628 11.9019L27.7051 11.8456ZM3.07085 9.89998L12.4716 19.3007C13.5455 20.3746 15.2862 20.3746 16.3601 19.3007L25.7608 9.89998L18.3043 2.44483C16.1566 0.295733 12.6751 0.295733 10.5274 2.44483L3.07085 9.89998Z" fill="white"/>
</svg>
