<svg width="40" height="40" viewBox="0 0 40 40" fill="none" xmlns="http://www.w3.org/2000/svg">
<path fill-rule="evenodd" clip-rule="evenodd" d="M11.6106 15.9466L11.275 14.5466C10.2283 10.2141 29.7752 3.86773 31.4755 7.98822L32.0276 9.32197C33.5292 12.9611 40.7411 10.139 39.2351 6.53081C38.3254 4.33586 37.1727 3.04628 36.1878 2.24691C29.5412 -3.14551 6.30211 4.39769 4.0895 12.6696C3.76268 13.8929 3.58603 15.6109 4.13366 17.9251C5.03902 21.7276 12.5336 19.7756 11.6106 15.9466ZM12.4713 23.7728H11.3407C9.94513 23.7728 9.01328 24.9255 8.80571 26.3078L7.73252 33.3255C7.35271 33.1886 6.99499 32.9899 6.67701 32.7381C6.10729 32.2965 5.6524 31.6959 5.40509 31.0113L5.383 30.9539C5.79373 31.0864 6.2177 31.1085 6.64609 30.9981C6.70792 30.9804 6.76533 30.9627 6.81833 30.9406C7.23789 30.7817 7.52495 30.4858 7.68394 30.1236C7.83852 29.7791 7.86502 29.3728 7.76786 28.9886C7.75019 28.9268 7.72811 28.8649 7.70603 28.8031L7.70603 28.8031C7.52937 28.3306 7.20256 28.0302 6.81833 27.8801C6.53568 27.7697 6.22653 27.7432 5.92622 27.7962C5.63474 27.8448 5.34767 27.9728 5.10036 28.1583C4.76029 28.4233 4.49973 28.8031 4.4114 29.2845L4.36723 29.2315C3.99626 28.7678 3.70919 28.1936 3.55462 27.6063C3.5237 27.4826 3.49721 27.3589 3.47512 27.2353C3.54137 27.2795 3.6032 27.3148 3.66945 27.3457C3.99184 27.4959 4.31865 27.5356 4.62339 27.4914C4.9237 27.4517 5.20635 27.328 5.44483 27.1602C5.98363 26.7716 6.32811 26.1091 6.25303 25.5261C6.18679 25.0359 5.93505 24.6429 5.58616 24.3955V24.3911C5.34326 24.2145 5.05178 24.1085 4.75146 24.082C4.45115 24.0599 4.13758 24.1129 3.84168 24.263C3.50604 24.4353 3.19248 24.7268 2.96724 25.1596C2.84358 24.8283 2.73317 24.4309 2.63601 23.9583C2.62174 23.8955 2.61116 23.8346 2.60069 23.7743L2.60069 23.7743C2.59496 23.7413 2.58926 23.7085 2.58301 23.6757C2.88774 23.8656 3.21014 23.9539 3.5237 23.9627C3.82402 23.9672 4.11108 23.8965 4.36723 23.7684C4.61897 23.6359 4.83979 23.446 5.01203 23.2119C5.35651 22.7438 5.48458 22.099 5.2196 21.4189C4.98553 20.8138 4.52623 20.4605 4.00509 20.3634C3.72244 20.306 3.41771 20.3325 3.13065 20.4429C2.85241 20.5489 2.58743 20.7299 2.36219 20.9905C2.26062 21.1097 2.16346 21.2467 2.08396 21.3968C1.95589 20.7564 2.07954 20.1425 2.3357 19.5905C2.58743 19.0473 2.97166 18.5659 3.3868 18.1817C3.3603 18.0978 3.3338 18.0138 3.31172 17.9255C3.26314 17.7047 3.21897 17.4971 3.17923 17.2896C2.56535 17.7754 1.96472 18.4555 1.59816 19.246C1.12119 20.2618 1.01519 21.4586 1.69974 22.6776L1.72623 22.7261C1.69974 23.1369 1.73065 23.6006 1.83664 24.1217C2.03538 25.0933 2.31361 25.8088 2.63159 26.3299C2.58743 26.8157 2.63601 27.3192 2.7685 27.8138C2.94957 28.5116 3.29405 29.1873 3.73127 29.735C3.93885 30 4.17291 30.234 4.42023 30.4283C4.4644 30.7242 4.53947 31.0113 4.64105 31.2895C4.94137 32.1198 5.489 32.8441 6.17354 33.3785C6.60634 33.7141 7.09215 33.9791 7.60887 34.1425L7.35713 35.7854H4.91928V39.3186H35.6088V35.7854H33.1709L31.7224 26.3078C31.5104 24.9255 30.5829 23.7728 29.1873 23.7728H28.0567V20.7918H22.6511V23.7728H17.877V20.7918H12.4713V23.7728ZM3.54137 23.1457C3.21456 23.1413 2.85683 22.9558 2.56093 22.5274C2.62718 22.0858 2.77733 21.7545 2.97607 21.5249C3.10856 21.3703 3.26314 21.2643 3.41771 21.2069C3.56345 21.1495 3.71803 21.1362 3.85493 21.1627C4.11108 21.2113 4.34074 21.3968 4.45998 21.7104C4.61455 22.1078 4.54831 22.4744 4.35399 22.735C4.26124 22.8631 4.13758 22.9646 3.99626 23.0397C3.85493 23.1104 3.70036 23.1501 3.54137 23.1457ZM4.01834 26.6082C3.83727 26.5198 3.65178 26.3697 3.47954 26.1444C3.49721 26.0429 3.5237 25.9413 3.55904 25.8441C3.70919 25.3981 3.94768 25.1242 4.20824 24.9918C4.36282 24.9123 4.52623 24.8858 4.68521 24.899C4.83979 24.9123 4.98553 24.9653 5.10919 25.0536C5.28584 25.1772 5.4095 25.376 5.44483 25.6277C5.48458 25.9192 5.28143 26.2725 4.96786 26.4977C4.83096 26.5949 4.67638 26.6656 4.51298 26.6877C4.35399 26.7097 4.18616 26.6877 4.01834 26.6082ZM5.60382 30.1722C5.46692 30.1236 5.33001 30.0574 5.1931 29.9779C5.18868 29.8321 5.18868 29.6864 5.20193 29.5362C5.22843 29.2183 5.383 28.9665 5.59941 28.8031C5.73632 28.6971 5.89972 28.6265 6.06313 28.6C6.22212 28.5735 6.38111 28.5823 6.52243 28.6397C6.69909 28.7104 6.85366 28.8561 6.94199 29.0946H6.94641C6.94997 29.1071 6.95425 29.1202 6.95866 29.1338C6.9652 29.154 6.97205 29.1751 6.97732 29.1962C7.03032 29.4037 7.01707 29.6157 6.93757 29.7968C6.8625 29.9646 6.72559 30.1059 6.53127 30.181C6.52096 30.184 6.51066 30.1874 6.50036 30.1908C6.47975 30.1977 6.45913 30.2046 6.43852 30.2075C6.16029 30.2826 5.87764 30.2605 5.60382 30.1722ZM25.2612 31.7091C25.2612 28.9533 23.0221 26.7142 20.2618 26.7142C17.506 26.7142 15.2669 28.9533 15.2669 31.7091C15.2669 34.4694 17.506 36.7085 20.2618 36.7085C23.0221 36.7085 25.2612 34.4694 25.2612 31.7091ZM37.7026 19.3381C35.8079 19.5722 33.825 19.3911 31.895 18.7331C30.3493 18.2031 28.9669 17.4126 27.7789 16.4277L28.4237 15.6504C29.519 16.5558 30.7953 17.2845 32.2218 17.7747C34.0016 18.3842 35.83 18.552 37.5833 18.3356L37.7026 19.3381ZM37.2388 15.5445C35.8962 15.7079 34.4963 15.5798 33.1316 15.1161C32.0363 14.7407 31.0603 14.1798 30.2212 13.4864L30.866 12.7047C31.6123 13.3274 32.4868 13.8221 33.4584 14.1577C34.6729 14.5728 35.9227 14.6877 37.1152 14.5375L37.2388 15.5445ZM23.5901 31.6914C23.5901 33.5305 22.0993 35.0214 20.2602 35.0214C18.4211 35.0214 16.9302 33.5305 16.9302 31.6914C16.9302 29.8523 18.4211 28.3615 20.2602 28.3615C22.0993 28.3615 23.5901 29.8523 23.5901 31.6914Z" fill="#705FFF"/>
</svg>
