<svg width="25" height="25" viewBox="0 0 25 25" fill="none" xmlns="http://www.w3.org/2000/svg">
<path d="M12.3821 0C5.55476 0 0 5.60772 0 12.5C0 19.3923 5.55476 25 12.3821 25C15.6893 25 18.8394 23.6537 21.1781 21.2923C21.5668 20.8999 21.5229 20.2414 21.1287 19.8508L19.1745 17.9071C19.5959 17.3244 19.6513 16.6155 19.3037 15.9422C18.8293 15.0227 18.1247 14.2869 17.2107 13.7561C16.8582 13.5505 16.5251 13.4501 16.1933 13.4504C16.0641 13.4504 15.9338 13.4664 15.807 13.4966C15.3853 13.6004 14.9798 13.7998 14.5677 14.1058C14.4386 14.2035 14.2792 14.2522 14.0958 14.2522C13.872 14.2522 13.63 14.1746 13.464 14.0503C12.2602 13.1444 11.2395 12.1131 10.3422 10.8987C10.1664 10.6597 10.0261 10.1399 10.2863 9.78325C10.5907 9.36768 10.7875 8.95913 10.8898 8.53253C10.9999 8.0729 10.9157 7.6095 10.6336 7.11717C10.1074 6.19286 9.37845 5.48236 8.46775 5.003C8.17272 4.8478 7.87075 4.7684 7.56963 4.7684C7.06775 4.7684 6.59745 4.98953 6.21047 5.4055C5.85477 5.78792 5.54021 6.19291 5.17761 6.6828C4.84532 7.13146 4.87287 7.6496 4.89633 8.10634L4.89714 8.1158C4.93808 8.69607 5.15259 9.38166 5.5532 10.2119C6.23036 11.6183 7.19208 12.9537 8.49338 14.2939C8.76086 14.5697 9.82661 15.646 10.1002 15.916C11.4286 17.23 12.7513 18.2009 14.1437 18.8846C14.9665 19.2887 15.6457 19.5052 16.2201 19.5469L16.2297 19.5473C16.348 19.553 16.4742 19.5595 16.5973 19.5595C16.8907 19.5595 17.2667 19.5236 17.6059 19.2841L18.8918 20.5631C17.057 22.0782 14.784 22.908 12.3822 22.908C6.6975 22.908 2.07247 18.2389 2.07247 12.5001C2.07247 6.76123 6.69755 2.09211 12.3822 2.09211C18.0669 2.09211 22.692 6.76123 22.692 12.5001C22.692 13.0778 23.1559 13.5461 23.7282 13.5461C24.3005 13.5461 24.7644 13.0778 24.7644 12.5001C24.7642 5.60772 19.2093 0 12.3821 0Z" fill="white"/>
</svg>
