<svg width="26" height="25" viewBox="0 0 26 25" fill="none" xmlns="http://www.w3.org/2000/svg">
<path fill-rule="evenodd" clip-rule="evenodd" d="M22.0791 5.63668L21.9101 7.7384C21.8982 7.89808 21.9501 8.05595 22.0543 8.17747C22.1586 8.29899 22.3067 8.37425 22.4664 8.3868C22.626 8.39935 22.7841 8.34815 22.906 8.24442C23.028 8.14068 23.1039 7.99286 23.1172 7.83329L23.4172 4.10338C23.4219 4.06838 23.4219 4.0329 23.4172 3.99789C23.411 3.91871 23.3893 3.84151 23.3534 3.77071C23.3174 3.69991 23.2678 3.6369 23.2074 3.58529C23.147 3.53368 23.0771 3.49449 23.0015 3.46994C22.926 3.44539 22.8464 3.43598 22.7672 3.44224L19.0269 3.74291C18.947 3.74828 18.869 3.76945 18.7974 3.80518C18.7257 3.84092 18.6619 3.89051 18.6096 3.95109C18.5573 4.01167 18.5175 4.08204 18.4925 4.1581C18.4676 4.23417 18.458 4.31443 18.4643 4.39423C18.4706 4.47403 18.4927 4.55179 18.5292 4.623C18.5658 4.69421 18.6161 4.75746 18.6773 4.80907C18.7385 4.86069 18.8093 4.89966 18.8857 4.92371C18.962 4.94776 19.0424 4.95643 19.1221 4.9492L21.222 4.78011L16.8484 9.15501C16.7349 9.26866 16.6711 9.42278 16.6711 9.58346C16.6712 9.74414 16.7351 9.89822 16.8487 10.0118C16.9624 10.1254 17.1165 10.1892 17.2772 10.1891C17.4378 10.1891 17.5919 10.1252 17.7055 10.0115L22.0791 5.63658V5.63668ZM6.78223 1.70337C6.82558 1.72473 6.86501 1.75324 6.89887 1.78771L10.6487 5.53624C10.7326 5.62102 10.7796 5.73546 10.7796 5.85472C10.7796 5.97398 10.7326 6.08842 10.6487 6.1732L10.0536 6.76731L5.66801 2.38172L6.26318 1.78715C6.30456 1.74517 6.35384 1.71179 6.40818 1.68893C6.46252 1.66607 6.52084 1.65419 6.57979 1.65396H6.78218V1.70337H6.78223ZM16.7032 13.417L17.2984 12.8229C17.3828 12.7388 17.4971 12.6916 17.6162 12.6916C17.7353 12.6916 17.8496 12.7388 17.934 12.8229L21.6839 16.572C21.7678 16.6566 21.8148 16.771 21.8148 16.8902C21.8148 17.0094 21.7678 17.1237 21.6839 17.2084L21.0887 17.8025L16.7032 13.4169V13.417ZM20.5196 18.3739L19.596 19.2955C19.3537 19.5439 19.0546 19.7298 18.7246 19.8371C18.3907 19.9392 18.037 19.9592 17.6937 19.8952C16.12 19.6166 14.5629 18.8927 13.2058 18.063C11.6345 17.102 10.1703 15.9048 8.86795 14.6032C7.56561 13.3016 6.36806 11.8363 5.40858 10.265C4.5777 8.9079 3.85403 7.35234 3.57537 5.77704C3.50907 5.435 3.5292 5.0818 3.63395 4.74951C3.73871 4.41721 3.92476 4.11632 4.17523 3.87414L5.09661 2.95251L9.48447 7.3381L8.65597 8.16636C8.50205 8.31948 8.40755 8.52232 8.38932 8.73866C8.37136 8.95427 8.43134 9.16918 8.55835 9.34433C9.31544 10.4099 10.2038 11.4187 11.1274 12.3429C12.0535 13.267 13.0605 14.1554 14.1272 14.9135C14.3024 15.0396 14.5168 15.0993 14.7319 15.082C14.9486 15.0639 15.1519 14.9696 15.3058 14.816L16.1319 13.9878L20.5197 18.3738L20.5196 18.3739ZM21.6815 18.6374L20.8101 19.5101C21.0004 19.7678 21.2331 19.9914 21.4982 20.1713C21.9558 20.4809 22.4956 20.6465 23.0481 20.6467C23.4632 20.6491 23.8605 20.8156 24.1532 21.11C24.4459 21.4043 24.6102 21.8026 24.6102 22.2177C24.6102 22.6328 24.4459 23.031 24.1532 23.3254C23.8605 23.6198 23.4632 23.7863 23.0481 23.7887H2.77049C2.35538 23.7863 1.95808 23.6198 1.66538 23.3254C1.37269 23.031 1.20839 22.6328 1.20839 22.2177C1.20839 21.8026 1.37269 21.4043 1.66538 21.11C1.95808 20.8156 2.35538 20.6491 2.77049 20.6467C2.93112 20.6467 3.08518 20.5829 3.19876 20.4693C3.31235 20.3557 3.37616 20.2017 3.37616 20.041C3.37616 19.8804 3.31235 19.7264 3.19876 19.6128C3.08518 19.4992 2.93112 19.4354 2.77049 19.4354C2.03463 19.4385 1.32997 19.733 0.810743 20.2545C0.291514 20.7759 0 21.4818 0 22.2177C0 22.9536 0.291514 23.6595 0.810743 24.1809C1.32997 24.7023 2.03463 24.9969 2.77049 25H23.0481C23.784 24.9969 24.4886 24.7023 25.0079 24.1809C25.5271 23.6595 25.8186 22.9536 25.8186 22.2177C25.8186 21.4818 25.5271 20.7759 25.0079 20.2545C24.4886 19.733 23.784 19.4385 23.0481 19.4354C22.7374 19.4358 22.4338 19.3428 22.1767 19.1684C21.9728 19.0321 21.8033 18.8503 21.6815 18.6374ZM14.5723 4.55208L18.9459 0.17759C19.0595 0.0639283 19.2136 4.73495e-05 19.3743 2.63115e-08C19.535 -4.72969e-05 19.6891 0.0637428 19.8028 0.177337C19.9164 0.290932 19.9803 0.445026 19.9804 0.60572C19.9804 0.766414 19.9166 0.920545 19.803 1.03421L15.4295 5.40849L17.5317 5.23941C17.611 5.23332 17.6906 5.24289 17.7662 5.26758C17.8417 5.29228 17.9117 5.33161 17.972 5.38333C18.0323 5.43505 18.0819 5.49815 18.1178 5.56902C18.1538 5.6399 18.1754 5.71716 18.1815 5.7964C18.1876 5.87564 18.1781 5.9553 18.1534 6.03084C18.1287 6.10638 18.0893 6.17632 18.0376 6.23666C17.9859 6.297 17.9228 6.34656 17.8519 6.38252C17.7811 6.41847 17.7038 6.44011 17.6245 6.44621L13.8845 6.74712C13.8053 6.75338 13.7256 6.74395 13.65 6.71937C13.5744 6.69478 13.5044 6.65553 13.444 6.60385C13.3836 6.55218 13.334 6.4891 13.298 6.41822C13.262 6.34735 13.2404 6.27007 13.2343 6.19082C13.2319 6.15569 13.2319 6.12045 13.2343 6.08533L13.5343 2.35593C13.5468 2.19586 13.6224 2.04731 13.7444 1.94298C13.8665 1.83864 14.0249 1.78705 14.185 1.79957C14.3451 1.81209 14.4936 1.88768 14.598 2.00971C14.7023 2.13175 14.7539 2.29024 14.7414 2.45031L14.5723 4.55208Z" fill="#705FFF"/>
</svg>
