<svg width="20" height="30" viewBox="0 0 20 30" fill="none" xmlns="http://www.w3.org/2000/svg">
<path d="M0 9.10716V20.8928C0.00547517 25.9202 3.99786 29.9943 8.92435 30H11.0242C15.9507 29.9944 19.943 25.9202 19.9485 20.8928V9.10716C19.943 4.07975 15.9507 0.00565011 11.0242 0H8.92435C3.99786 0.00565011 0.00547517 4.07975 0 9.10716ZM9.14163 1.07145H9.44929V2.99255L1.04994 11.5639V9.32896L9.14163 1.07145ZM7.87441 11.7857H5.99187L7.87441 9.86465V11.7857ZM7.87441 8.03571V8.34967L4.5073 11.7857H2.31717L9.44929 4.50753V5.96896C8.52497 6.21248 7.87798 7.06157 7.87441 8.03571ZM8.92435 8.03571C8.92435 7.44395 9.39441 6.96426 9.97429 6.96426C10.5542 6.96426 11.0242 7.44395 11.0242 8.03571V12.3214C11.0242 12.9132 10.5542 13.3929 9.97429 13.3929C9.39441 13.3929 8.92435 12.9132 8.92435 12.3214V8.03571ZM11.0242 28.9286H8.92435C4.57749 28.9235 1.05486 25.3287 1.04994 20.8928V12.8571H7.94897C8.18471 13.8023 9.0186 14.4638 9.97429 14.4638C10.93 14.4638 11.7639 13.8023 11.9996 12.8571H18.8986V20.8928C18.8937 25.3288 15.371 28.9235 11.0242 28.9286ZM18.8986 9.10716V11.7857H12.0741V8.03577C12.0705 7.06163 11.4236 6.21254 10.4992 5.96896V1.07145H11.0242C15.371 1.07647 18.8937 4.67126 18.8986 9.10716ZM7.52529 1.20592L1.18171 7.6795C1.77014 4.3848 4.29672 1.80646 7.52529 1.20592Z" fill="white"/>
</svg>
