<svg width="331" height="283" viewBox="0 0 331 283" fill="none" xmlns="http://www.w3.org/2000/svg">
<path opacity="0.03" d="M95.3216 103.501C102.594 146.058 46.2324 157.721 9.69714 158.625C4.28979 158.759 -1.4847e-05 154.32 -1.43366e-05 148.911L-1.1664e-06 9.33115C-7.47918e-07 4.89603 2.92896 0.893486 7.3554 0.616021C26.1576 -0.562521 44.9178 13.4654 44.9178 26.5308C44.9178 41.3092 50.061 56.3954 58.2902 61.3215C90.8641 82.8733 93.2643 92.4176 95.3216 103.501Z" fill="url(#paint0_linear_1_36374)"/>
<path opacity="0.03" d="M179.123 189.8C56.7446 189.8 116.715 88.8024 10.0306 82.9355C4.51611 82.6323 9.11303e-05 87.1468 9.06092e-05 92.6696L7.36686e-05 272.208C7.31475e-05 277.731 4.46415 282.208 9.98701 282.208L320.483 282.208C326.006 282.208 330.44 277.696 329.823 272.208C323.318 214.383 259.7 189.8 179.123 189.8Z" fill="url(#paint1_linear_1_36374)"/>
<defs>
<linearGradient id="paint0_linear_1_36374" x1="95.9614" y1="79.6155" x2="-9.32306e-06" y2="79.6154" gradientUnits="userSpaceOnUse">
<stop stop-color="#20D9A1"/>
<stop offset="1" stop-color="#5F39FF"/>
</linearGradient>
<linearGradient id="paint1_linear_1_36374" x1="330.371" y1="182.439" x2="7.68891e-05" y2="182.439" gradientUnits="userSpaceOnUse">
<stop stop-color="#20D9A1"/>
<stop offset="1" stop-color="#5F39FF"/>
</linearGradient>
</defs>
</svg>
