<?xml version="1.0" standalone="no"?>
<!DOCTYPE svg PUBLIC "-//W3C//DTD SVG 20010904//EN"
 "http://www.w3.org/TR/2001/REC-SVG-20010904/DTD/svg10.dtd">
<svg version="1.0" xmlns="http://www.w3.org/2000/svg"
 width="324.000000pt" height="324.000000pt" viewBox="0 0 324.000000 324.000000"
 preserveAspectRatio="xMidYMid meet">
<metadata>
Created by potrace 1.14, written by Peter Selinger 2001-2017
</metadata>
<g transform="translate(0.000000,324.000000) scale(0.100000,-0.100000)"
fill="#000000" stroke="none">
<path d="M0 1620 l0 -1620 1620 0 1620 0 0 1620 0 1620 -1620 0 -1620 0 0
-1620z m2717 1134 c48 -39 73 -87 73 -143 0 -167 -199 -253 -312 -134 -57 60
-72 137 -39 208 35 76 90 107 178 103 51 -3 69 -9 100 -34z m-1953 2 c106 -44
116 -198 17 -254 -63 -36 -123 -28 -173 23 -72 72 -48 189 47 231 39 17 68 17
109 0z m1151 -171 c167 -48 292 -118 413 -230 161 -150 264 -332 307 -544 24
-117 17 -343 -14 -456 -83 -305 -312 -560 -604 -673 -157 -61 -192 -67 -377
-66 -149 0 -174 3 -255 28 -376 113 -632 382 -722 758 -24 100 -24 336 1 431
80 314 261 544 536 682 168 84 273 106 475 101 124 -4 165 -9 240 -31z m-1144
-1743 c76 -39 113 -101 113 -185 -1 -127 -88 -217 -212 -217 -101 0 -179 58
-207 154 -19 65 -11 123 26 182 55 90 179 119 280 66z"/>
<path d="M1036 2138 c4 -7 39 -46 78 -85 l70 -73 396 0 c396 0 397 0 441 -23
111 -59 123 -217 22 -295 -30 -22 -48 -27 -129 -32 -51 -3 -96 -8 -98 -11 -2
-2 9 -23 24 -46 16 -24 63 -107 103 -185 41 -79 90 -171 108 -205 l33 -62 89
-3 c49 -2 94 0 99 3 6 4 -33 78 -91 176 -55 93 -101 177 -101 185 0 9 13 21
29 28 50 20 129 109 152 170 31 81 28 192 -7 270 -35 78 -110 150 -187 178
-56 21 -70 22 -548 22 -389 0 -489 -3 -483 -12z"/>
<path d="M1107 1662 c-42 -42 -77 -81 -77 -86 0 -4 134 -5 298 -1 323 8 339 9
346 16 2 2 -12 36 -32 74 l-37 70 -210 3 -210 2 -78 -78z"/>
<path d="M1103 1212 c-46 -44 -83 -82 -83 -86 0 -3 194 -6 430 -6 276 0 430 4
430 10 0 5 -19 41 -42 80 l-42 70 -126 0 c-70 0 -207 2 -306 6 l-179 5 -82
-79z"/>
</g>
</svg>
