<svg width="52" height="45" viewBox="0 0 52 45" fill="none" xmlns="http://www.w3.org/2000/svg">
<ellipse cx="25.2615" cy="22.8944" rx="22.1053" ry="22.1053" fill="url(#paint0_linear_1_42088)"/>
<path d="M32.076 33.9471C31.7171 33.9471 31.3816 33.8508 31.0695 33.6581C30.1645 33.0319 29.4857 31.7313 29.0332 29.7562C28.924 29.2745 28.8304 28.7928 28.7524 28.3111C28.6899 27.8133 28.6275 27.3156 28.5651 26.8178C28.4247 25.3245 28.3545 23.8472 28.3545 22.386C28.3545 22.1933 28.3545 22.0007 28.3545 21.808C28.3545 21.5992 28.3545 21.4065 28.3545 21.2299C27.8083 22.1452 27.2232 23.0444 26.599 23.9275C25.9749 24.7946 25.3585 25.6055 24.75 26.3602C24.3286 26.874 23.8293 27.4199 23.252 27.998C22.6902 28.576 22.0895 29.1059 21.4497 29.5876C20.8256 30.0693 20.2014 30.4547 19.5773 30.7437C19.3276 30.8561 19.0857 30.9364 18.8517 30.9846C18.6176 31.0488 18.3992 31.0809 18.1963 31.0809C17.7126 31.0809 17.3225 30.9284 17.026 30.6233C16.7451 30.3182 16.6047 29.9008 16.6047 29.3709C16.6047 28.857 16.7451 28.279 17.026 27.6367C17.1821 27.3477 17.4161 26.9061 17.7282 26.312C18.0403 25.7179 18.3914 25.0515 18.7815 24.3129L21.2625 19.6884C21.6058 19.0622 21.9647 18.3798 22.3391 17.6412C22.7136 16.9025 23.0491 16.196 23.3456 15.5216C23.6577 14.8472 23.8605 14.2692 23.9542 13.7875C23.7513 14.1407 23.525 14.5181 23.2754 14.9195C23.0257 15.3049 22.7683 15.6983 22.503 16.0997L21.8476 17.0872C21.4731 17.6492 21.0752 18.2433 20.6539 18.8695C20.2482 19.4958 19.8347 20.0979 19.4134 20.676C18.9921 21.254 18.5786 21.7598 18.1729 22.1933C16.3785 24.1844 14.4436 25.18 12.3682 25.18C11.7597 25.18 11.2604 24.9552 10.8703 24.5056C10.4646 24.056 10.2617 23.5582 10.2617 23.0123C10.2617 22.6911 10.3319 22.4021 10.4724 22.1452C10.6128 21.7919 10.8625 21.4146 11.2214 21.0132C11.5802 20.6117 11.9781 20.2344 12.4151 19.8811C12.852 19.5279 13.2421 19.279 13.5854 19.1345C13.6634 19.0863 13.718 19.0622 13.7492 19.0622C13.8428 19.0622 13.8896 19.1104 13.8896 19.2067C13.8896 19.3031 13.835 19.3834 13.7258 19.4476C13.5541 19.6403 13.3357 19.9213 13.0704 20.2906C12.8208 20.6438 12.5711 21.0292 12.3214 21.4467C12.0874 21.8642 11.9001 22.2736 11.7597 22.6751C11.6505 23.0604 11.5959 23.3976 11.5959 23.6867C11.5959 24.2647 11.8221 24.5537 12.2746 24.5537C12.8832 24.5537 13.5385 24.337 14.2407 23.9034C14.9585 23.4538 15.6841 22.8758 16.4175 22.1693C17.1665 21.4627 17.8998 20.6679 18.6176 19.7848C18.9765 19.3352 19.3276 18.8936 19.6709 18.4601C20.0298 18.0265 20.3653 17.601 20.6773 17.1835C20.8646 16.9266 21.0674 16.6617 21.2859 16.3887C21.5043 16.1157 21.715 15.8347 21.9178 15.5457C22.2923 15.0479 22.6512 14.5823 22.9945 14.1487C23.3378 13.6991 23.6109 13.3459 23.8137 13.089C23.8605 13.0408 23.9073 12.9926 23.9542 12.9445C24.001 12.8963 24.04 12.8401 24.0712 12.7759C24.1492 12.6795 24.2272 12.6313 24.3052 12.6313C24.3989 12.6313 24.4925 12.6875 24.5861 12.7999C25.0074 13.2817 25.2181 13.9079 25.2181 14.6786C25.2181 15.9471 24.6485 17.6251 23.5094 19.7125C23.2286 20.2264 22.9165 20.7884 22.5732 21.3985C22.2299 22.0087 21.8866 22.6108 21.5433 23.2049C21.122 23.9436 20.7319 24.626 20.3731 25.2522C20.0142 25.8784 19.7567 26.3521 19.6007 26.6733C19.4602 26.9944 19.3042 27.3477 19.1325 27.733C18.9609 28.1184 18.8127 28.4958 18.6878 28.8651C18.563 29.2183 18.5006 29.5154 18.5006 29.7562C18.5006 30.0292 18.6098 30.1657 18.8283 30.1657C18.9687 30.1657 19.1794 30.1015 19.4602 29.973C19.8659 29.7964 20.295 29.5154 20.7475 29.13C21.2157 28.7286 21.676 28.287 22.1285 27.8053C22.5966 27.3075 23.0335 26.8178 23.4392 26.3361C23.8449 25.8544 24.1804 25.4369 24.4457 25.0836C25.1322 24.2005 25.8266 23.2772 26.5288 22.3138C27.231 21.3503 27.8707 20.3789 28.4481 19.3994C28.4637 18.8374 28.4949 18.3637 28.5417 17.9784C28.6041 17.5769 28.6509 17.2638 28.6821 17.039C28.7602 16.7179 28.8928 16.4931 29.08 16.3646C29.2673 16.2201 29.4623 16.1479 29.6652 16.1479C29.9305 16.1479 30.1645 16.2603 30.3674 16.4851C30.5858 16.7098 30.656 17.031 30.578 17.4485C30.5 17.8981 30.4064 18.5725 30.2971 19.4717C30.2035 20.3709 30.1177 21.3584 30.0397 22.4342C29.9773 23.51 29.9461 24.5618 29.9461 25.5894C29.9461 25.7982 29.9461 25.9989 29.9461 26.1916C29.9461 26.3842 29.9539 26.5769 29.9695 26.7696C30.1099 31.0247 30.8589 33.1523 32.2164 33.1523C32.3569 33.1523 32.5051 33.1282 32.6611 33.0801C33.0668 32.9677 33.4881 32.6706 33.9251 32.1889C34.3776 31.6911 34.8067 31.0649 35.2124 30.3102C35.6181 29.5716 35.9926 28.7366 36.3359 27.8053C36.5075 27.3396 36.6635 26.8579 36.804 26.3602C36.96 25.8463 37.0926 25.3245 37.2019 24.7946C37.514 23.2692 37.67 21.808 37.67 20.411C37.67 20.0578 37.6544 19.7125 37.6232 19.3753C37.6076 19.0381 37.5842 18.709 37.553 18.3878C37.4905 17.9864 37.4047 17.5368 37.2955 17.039C37.1863 16.5412 37.0224 16.0836 36.804 15.6661C36.5855 15.2487 36.2968 15.0399 35.938 15.0399C35.5167 15.0399 35.0797 15.3209 34.6272 15.8829C34.5336 16.0274 34.44 16.0997 34.3464 16.0997C34.2683 16.0997 34.2293 16.0355 34.2293 15.907C34.2293 15.7785 34.2605 15.6421 34.323 15.4975C34.3698 15.353 34.4868 15.1844 34.674 14.9917C34.8769 14.7991 35.0953 14.6224 35.3294 14.4619C35.5791 14.3013 35.7897 14.1969 35.9614 14.1487C36.133 14.1006 36.2969 14.0685 36.4529 14.0524C36.6089 14.0363 36.7572 14.0283 36.8976 14.0283C38.614 14.0283 39.4722 15.4333 39.4722 18.2433C39.4722 18.6608 39.4488 19.1264 39.402 19.6403C39.3396 20.395 39.2304 21.1817 39.0743 22.0007C38.9339 22.8035 38.7701 23.5903 38.5828 24.3611C38.3956 25.1157 38.2083 25.8062 38.0211 26.4324C37.8338 27.0586 37.67 27.5725 37.5296 27.9739C37.1863 28.857 36.7728 29.7081 36.289 30.527C35.8053 31.3459 35.2748 32.0444 34.6974 32.6224C34.1201 33.2165 33.4959 33.618 32.825 33.8267C32.7001 33.8749 32.5753 33.907 32.4505 33.923C32.3257 33.9391 32.2008 33.9471 32.076 33.9471Z" fill="white"/>
<circle cx="48.9485" cy="10.263" r="2.36842" fill="#3A3A3A"/>
<ellipse cx="3.94809" cy="1.57895" rx="1.57895" ry="1.57895" fill="#20D9A1"/>
<ellipse cx="3.15789" cy="40.2634" rx="3.15789" ry="3.15789" fill="#5F39FF"/>
<defs>
<linearGradient id="paint0_linear_1_42088" x1="3.15625" y1="22.8944" x2="47.3668" y2="22.8944" gradientUnits="userSpaceOnUse">
<stop stop-color="#20D9A1"/>
<stop offset="1" stop-color="#5F39FF"/>
</linearGradient>
</defs>
</svg>
